<?xml version="1.0" encoding="UTF-8" standalone="no"?>
<!DOCTYPE svg PUBLIC "-//W3C//DTD SVG 1.1//EN" "http://www.w3.org/Graphics/SVG/1.1/DTD/svg11.dtd">
<svg width="100%" height="100%" viewBox="0 0 495 498" version="1.1" xmlns="http://www.w3.org/2000/svg" xmlns:xlink="http://www.w3.org/1999/xlink" xml:space="preserve" xmlns:serif="http://www.serif.com/" style="fill-rule:evenodd;clip-rule:evenodd;stroke-linejoin:round;stroke-miterlimit:2;">
    <path d="M199.35,45.03L432.077,448.958C432.077,448.958 459.273,403.483 470.864,382.528C482.456,361.574 479.335,349.982 466.852,327.69C454.368,305.398 333.992,98.53 321.063,72.671C308.134,46.813 284.059,45.03 276.925,44.584C269.792,44.138 199.35,45.03 199.35,45.03Z" style="fill:rgb(37,151,226);"/>
    <path d="M160.562,112.351L264.888,291.132L57.128,291.577L160.562,112.351Z" style="fill:rgb(37,151,226);"/>
    <path d="M19.231,358.453L301.892,358.007L358.068,451.187L107.061,451.187C86.107,451.187 68.274,446.283 57.128,427.112C45.982,407.941 19.231,358.453 19.231,358.453Z" style="fill:rgb(37,151,226);"/>
</svg>
