<?xml version="1.0" encoding="UTF-8" standalone="no"?>
<?xml-stylesheet type="text/css" href="/css/main.css" ?>
<!DOCTYPE svg PUBLIC "-//W3C//DTD SVG 1.1//EN" "http://www.w3.org/Graphics/SVG/1.1/DTD/svg11.dtd">
<svg width="100%" height="100%" viewBox="0 0 40 40" version="1.1" xmlns="http://www.w3.org/2000/svg" xmlns:xlink="http://www.w3.org/1999/xlink" xml:space="preserve" xmlns:serif="http://www.serif.com/" style="fill-rule:evenodd;clip-rule:evenodd;stroke-linejoin:round;stroke-miterlimit:2;">
    <g transform="matrix(1,0,0,1,-136.982,0)">
        <g id="BeHance" transform="matrix(0.8,0,0,0.888889,136.982,0)">
            <rect x="0" y="0" width="50" height="45" style="fill:none;"/>
            <g transform="matrix(1.25,0,0,1.125,-171.228,0)" class="fg-color">
                <path d="M170.645,25.692L174.605,25.692C174.341,28.218 173.215,29.692 172.052,30.552C170.888,31.413 169.433,31.843 167.685,31.843C164.919,31.843 162.872,30.876 161.544,28.941C160.496,27.39 159.971,25.434 159.971,23.071C159.971,20.249 160.66,18.038 162.038,16.44C163.416,14.842 165.159,14.042 167.266,14.042C169.633,14.042 171.5,14.879 172.868,16.552C174.236,18.225 174.89,20.789 174.83,24.242L164.285,24.242C164.315,25.578 164.655,26.618 165.304,27.361C165.953,28.104 166.762,28.475 167.73,28.475C168.389,28.475 169.054,28.305 169.503,27.92C169.952,27.535 170.635,26.794 170.645,25.692ZM139.091,7.949L147.868,7.949C149.606,7.949 150.902,8.026 151.755,8.181C152.609,8.336 153.373,8.659 154.047,9.151C154.721,9.643 155.283,10.298 155.732,11.116C156.182,11.934 156.406,12.85 156.406,13.866C156.406,14.967 156.129,15.978 155.575,16.897C155.021,17.816 154.269,18.506 153.321,18.966C154.659,19.383 155.687,20.094 156.406,21.099C157.125,22.104 157.485,23.285 157.485,24.643C157.485,25.712 157.253,26.752 156.788,27.762C156.324,28.772 155.69,29.579 154.886,30.183C154.082,30.787 153.091,31.159 151.913,31.298C151.174,31.383 149.391,31.437 146.565,31.458L139.091,31.458L139.091,7.949ZM143.525,21.211L143.525,27.497L147.629,27.497C149.227,27.497 150.24,27.449 150.669,27.353C151.329,27.225 151.865,26.912 152.28,26.415C152.694,25.918 152.901,25.252 152.901,24.418C152.901,23.713 152.742,23.114 152.422,22.622C152.102,22.13 151.641,21.772 151.036,21.548C150.432,21.323 149.122,21.211 147.105,21.211L143.525,21.211ZM170.651,21.483C170.621,20.179 170.307,19.188 169.707,18.509C169.108,17.83 168.379,17.49 167.521,17.49C166.602,17.49 165.843,17.848 165.244,18.565C164.645,19.281 164.35,20.254 164.36,21.483L170.651,21.483ZM143.525,11.861L143.525,17.298L146.43,17.298C148.158,17.298 149.232,17.271 149.651,17.218C150.41,17.121 151.006,16.841 151.441,16.376C151.875,15.911 152.092,15.299 152.092,14.54C152.092,13.813 151.905,13.222 151.531,12.768C151.156,12.313 150.6,12.038 149.861,11.942C149.421,11.888 148.158,11.861 146.071,11.861L143.525,11.861ZM171.706,9.275L161.339,9.275L161.339,12.283L171.706,12.283L171.706,9.275Z" style="fill-rule:nonzero;"/>
            </g>
        </g>
    </g>
</svg>
