<?xml version="1.0" encoding="UTF-8" standalone="no"?>
<!DOCTYPE svg PUBLIC "-//W3C//DTD SVG 1.1//EN" "http://www.w3.org/Graphics/SVG/1.1/DTD/svg11.dtd">
<svg width="100%" height="100%" viewBox="0 0 41 40" version="1.1" xmlns="http://www.w3.org/2000/svg" xmlns:xlink="http://www.w3.org/1999/xlink" xml:space="preserve" xmlns:serif="http://www.serif.com/" style="fill-rule:evenodd;clip-rule:evenodd;stroke-linejoin:round;stroke-miterlimit:2;">
    <g id="Artboard1" transform="matrix(0.801589,0,0,0.882498,0,0)">
        <rect x="0" y="0" width="50" height="45" style="fill:none;"/>
        <g transform="matrix(1.16522,0,0,1.13315,-2.43385,0.0570631)">
            <path d="M5.541,8.644L14.352,8.644C16.096,8.644 17.396,8.717 18.253,8.862C19.11,9.008 19.877,9.311 20.554,9.772C21.23,10.233 21.794,10.847 22.245,11.614C22.696,12.38 22.922,13.24 22.922,14.192C22.922,15.225 22.644,16.172 22.087,17.034C21.531,17.896 20.777,18.542 19.824,18.973C21.168,19.364 22.2,20.031 22.922,20.973C23.643,21.915 24.004,23.023 24.004,24.296C24.004,25.298 23.771,26.273 23.305,27.22C22.839,28.168 22.203,28.924 21.396,29.491C20.589,30.057 19.594,30.405 18.411,30.536C17.669,30.616 15.88,30.666 13.044,30.686L5.541,30.686L5.541,8.644ZM9.991,12.313L9.991,17.41L12.908,17.41C14.642,17.41 15.72,17.385 16.141,17.335C16.903,17.244 17.502,16.981 17.938,16.545C18.374,16.109 18.592,15.535 18.592,14.824C18.592,14.142 18.404,13.588 18.028,13.162C17.652,12.736 17.093,12.478 16.351,12.388C15.91,12.338 14.642,12.313 12.547,12.313L9.991,12.313ZM9.991,21.078L9.991,26.972L14.111,26.972C15.715,26.972 16.732,26.927 17.163,26.837C17.825,26.717 18.364,26.423 18.78,25.957C19.195,25.491 19.403,24.867 19.403,24.085C19.403,23.424 19.243,22.863 18.922,22.401C18.602,21.94 18.138,21.605 17.532,21.394C16.925,21.184 15.61,21.078 13.585,21.078L9.991,21.078Z" style="fill-rule:nonzero;"/>
        </g>
        <g transform="matrix(1.16522,0,0,1.13315,-2.43385,0.0570631)">
            <path d="M37.214,25.279L41.19,25.279C40.924,27.648 39.794,29.03 38.626,29.836C37.458,30.643 35.997,31.047 34.243,31.047C31.467,31.047 29.412,30.14 28.079,28.325C27.026,26.872 26.5,25.038 26.5,22.822C26.5,20.176 27.192,18.104 28.575,16.605C29.958,15.107 31.707,14.358 33.822,14.358C36.198,14.358 38.072,15.142 39.446,16.711C40.819,18.279 41.475,20.682 41.415,23.92L30.83,23.92C30.86,25.173 31.201,26.148 31.853,26.844C32.504,27.541 33.316,27.889 34.288,27.889C34.95,27.889 35.617,27.73 36.068,27.369C36.519,27.008 37.204,26.313 37.214,25.279ZM37.22,21.334C37.19,20.111 36.875,19.181 36.273,18.545C35.672,17.908 34.94,17.59 34.078,17.59C33.156,17.59 32.394,17.926 31.793,18.598C31.191,19.269 30.895,20.181 30.906,21.334L37.22,21.334Z" style="fill-rule:nonzero;"/>
        </g>
        <g transform="matrix(1.24752,0,0,1.22031,0,-1.1121)">
            <rect x="24.083" y="10.14" width="9.719" height="2.619"/>
        </g>
    </g>
</svg>
