<?xml version="1.0" encoding="UTF-8" standalone="no"?>
<!DOCTYPE svg PUBLIC "-//W3C//DTD SVG 1.1//EN" "http://www.w3.org/Graphics/SVG/1.1/DTD/svg11.dtd">
<svg width="100%" height="100%" viewBox="0 0 202 67" version="1.1" xmlns="http://www.w3.org/2000/svg" xmlns:xlink="http://www.w3.org/1999/xlink" xml:space="preserve" xmlns:serif="http://www.serif.com/" style="fill-rule:evenodd;clip-rule:evenodd;stroke-linejoin:round;stroke-miterlimit:2;">
    <g id="Artboard1" transform="matrix(1,0,0,1.06193,0,0)">
        <rect x="0" y="0" width="202" height="63" style="fill:none;"/>
        <g transform="matrix(1,0,0,0.941679,0,0)">
            <path d="M40.559,59.303C35.262,47.755 14.778,2.204 14.778,2.204L27.501,17.543L22.864,15.879C22.864,15.879 38.299,49.046 42.842,58.445C43.555,58.136 44.26,57.79 44.954,57.408C45.604,57.05 46.837,56.26 46.837,56.26L48.402,58.385C48.402,58.385 46.325,59.851 44.172,61.101C44.927,62.78 43.015,63.487 42.003,62.247C41.775,62.352 41.555,62.446 41.347,62.526C27.54,67.869 11.719,60.291 6.04,45.615C1.158,32.999 5.349,19.218 15.393,12.203C5.594,19.947 2.741,34.312 9.254,46.136C15.646,57.74 28.928,63.028 40.559,59.303Z" style="fill:url(#_Linear1);"/>
        </g>
        <g>
            <g id="C" transform="matrix(1,0,0,0.941679,0,0)">
                <path d="M31.041,44.011L28.988,44.007L28.988,54.502C28.988,55.32 28.325,55.983 27.508,55.983C26.69,55.983 26.027,55.32 26.027,54.502L26.027,18.546C26.027,17.729 26.69,17.066 27.508,17.066C28.325,17.066 28.988,17.729 28.988,18.546L28.988,28.06L31.041,28.021L31.041,18.292C31.041,17.043 30.027,16.029 28.778,16.029L26.279,16.029C25.03,16.029 24.016,17.043 24.016,18.292L24.016,54.572C24.016,55.821 25.03,56.835 26.279,56.835L28.778,56.835C30.027,56.835 31.041,55.821 31.041,54.572L31.041,44.011Z"/>
            </g>
            <g id="O" transform="matrix(1,0,0,0.941679,0,0)">
                <path d="M56.916,18.292C56.916,17.043 55.902,16.029 54.653,16.029L52.154,16.029C50.905,16.029 49.891,17.043 49.891,18.292L49.891,54.572C49.891,55.821 50.905,56.835 52.154,56.835L54.653,56.835C55.902,56.835 56.916,55.821 56.916,54.572L56.916,18.292ZM54.863,18.546C54.863,17.729 54.2,17.066 53.383,17.066C52.565,17.066 51.902,17.729 51.902,18.546L51.902,54.502C51.902,55.32 52.565,55.983 53.383,55.983C54.2,55.983 54.863,55.32 54.863,54.502L54.863,18.546Z"/>
            </g>
            <g id="M" transform="matrix(1,0,0,0.941679,0,0)">
                <path d="M77.987,16.43L77.994,16.132L81.092,41.033L84.015,16.43L84.015,16.132L86.085,16.132L86.085,57.045L84.015,57.045L84.015,35.035L82.066,50.991L80.025,50.991L77.987,35.035L77.987,57.045L75.917,57.045L75.917,16.132L77.987,16.132L77.987,16.43Z"/>
            </g>
            <g id="P" transform="matrix(1,0,0,0.941679,0,0)">
                <path d="M105.03,15.834L105.03,56.942L107.1,56.942L107.1,42.926L109.678,42.926C110.598,42.926 111.481,42.561 112.132,41.91C112.783,41.259 113.148,40.376 113.148,39.456C113.148,34.257 113.148,24.503 113.148,19.304C113.148,18.384 112.783,17.501 112.132,16.85C111.481,16.199 110.598,15.834 109.678,15.834C107.599,15.834 105.03,15.834 105.03,15.834ZM111.233,18.138C111.233,17.75 111.079,17.379 110.805,17.105C110.531,16.831 110.16,16.677 109.772,16.677C108.597,16.677 107.142,16.677 107.142,16.677L107.142,41.926L109.772,41.926C110.16,41.926 110.531,41.772 110.805,41.498C111.079,41.224 111.233,40.852 111.233,40.465C111.233,36.004 111.233,22.598 111.233,18.138Z"/>
            </g>
            <g id="A" transform="matrix(1,0,0,0.941679,0,0)">
                <path d="M134.188,56.988L134.188,35.986L137.15,35.986L137.15,56.988L139.085,56.988L139.202,18.292C139.202,17.043 138.188,16.029 136.939,16.029L134.44,16.029C133.191,16.029 132.177,17.043 132.177,18.292L132.061,56.988L134.188,56.988ZM134.188,34.038L137.15,34.038L137.15,18.546C137.15,17.729 136.486,17.066 135.669,17.066C134.852,17.066 134.188,17.729 134.188,18.546L134.188,34.038Z"/>
            </g>
            <g id="S" transform="matrix(1,0,0,0.941679,0,0)">
                <path d="M158.001,29.176C158.024,33.121 163.048,36.779 163.004,42.016L162.942,54.502C162.942,55.32 162.279,55.983 161.461,55.983C160.644,55.983 159.981,55.32 159.981,54.502L159.981,44.022L157.97,44.02L157.97,54.572C157.97,55.821 158.984,56.835 160.233,56.835L162.732,56.835C163.98,56.835 164.994,55.821 164.994,54.572L165.057,40.978C164.988,36.113 159.972,32.277 159.981,27.912L159.981,18.546C159.981,17.729 160.644,17.066 161.461,17.066C162.279,17.066 162.942,17.729 162.942,18.546L162.942,27.988L164.994,27.966L164.994,18.292C164.994,17.043 163.98,16.029 162.732,16.029L160.233,16.029C158.984,16.029 157.97,17.043 157.97,18.292L158.001,29.176Z"/>
            </g>
            <g id="S1" serif:id="S" transform="matrix(1,0,0,0.941679,26.0117,0)">
                <path d="M158.001,29.176C158.024,33.121 163.048,36.779 163.004,42.016L162.942,54.502C162.942,55.32 162.279,55.983 161.461,55.983C160.644,55.983 159.981,55.32 159.981,54.502L159.981,44.022L157.97,44.02L157.97,54.572C157.97,55.821 158.984,56.835 160.233,56.835L162.732,56.835C163.98,56.835 164.994,55.821 164.994,54.572L165.057,40.978C164.988,36.113 159.972,32.277 159.981,27.912L159.981,18.546C159.981,17.729 160.644,17.066 161.461,17.066C162.279,17.066 162.942,17.729 162.942,18.546L162.942,27.988L164.994,27.966L164.994,18.292C164.994,17.043 163.98,16.029 162.732,16.029L160.233,16.029C158.984,16.029 157.97,17.043 157.97,18.292L158.001,29.176Z"/>
            </g>
        </g>
    </g>
    <defs>
        <linearGradient id="_Linear1" x1="0" y1="0" x2="1" y2="0" gradientUnits="userSpaceOnUse" gradientTransform="matrix(21.285,46.1374,-46.1374,21.285,21.437,14.6895)"><stop offset="0" style="stop-color:rgb(200,182,154);stop-opacity:1"/><stop offset="0.16" style="stop-color:rgb(194,175,145);stop-opacity:1"/><stop offset="0.22" style="stop-color:rgb(180,159,125);stop-opacity:1"/><stop offset="0.27" style="stop-color:rgb(167,143,105);stop-opacity:1"/><stop offset="1" style="stop-color:rgb(96,87,74);stop-opacity:1"/></linearGradient>
    </defs>
</svg>
