<?xml version="1.0" encoding="UTF-8" standalone="no"?>
<!DOCTYPE svg PUBLIC "-//W3C//DTD SVG 1.1//EN" "http://www.w3.org/Graphics/SVG/1.1/DTD/svg11.dtd">
<svg width="100%" height="100%" viewBox="0 0 141 107" version="1.1" xmlns="http://www.w3.org/2000/svg" xmlns:xlink="http://www.w3.org/1999/xlink" xml:space="preserve" xmlns:serif="http://www.serif.com/" style="fill-rule:evenodd;clip-rule:evenodd;stroke-linecap:round;stroke-linejoin:round;stroke-miterlimit:1.5;">
    <g transform="matrix(1,0,0,1,0,-124.17)">
        <g id="coursera" transform="matrix(0.342262,0,0,0.409231,0,124.17)">
            <rect x="0" y="0" width="411.3" height="260" style="fill:none;"/>
            <g transform="matrix(2.51676,0,0,2.20836,-292.827,-128.86)">
                <g transform="matrix(0.125633,0,0,0.125633,125.497,146.455)">
                    <path d="M159.75,81.54C159.75,37.05 196.38,1.07 242.18,1.07C288.3,1.07 324.94,37.07 324.94,81.54C324.94,125.7 288.3,162.34 242.18,162.34C196.38,162.34 159.75,125.66 159.75,81.54ZM285.36,81.54C285.36,59.3 266.06,39.67 242.18,39.67C218.63,39.67 199.33,59.3 199.33,81.54C199.33,104.11 218.63,123.74 242.18,123.74C266.1,123.74 285.36,104.11 285.36,81.54ZM990.99,82.85C990.99,34.11 1030.57,1.07 1066.56,1.07C1091.09,1.07 1105.16,8.59 1114.64,22.99L1118.41,3.99L1155.2,3.99L1155.2,159.39L1118.41,159.39L1113.66,143.39C1102.87,155.17 1089.45,162.39 1066.56,162.39C1031.23,162.34 990.99,131.26 990.99,82.85ZM1116.6,82.52C1116.51,58.993 1097.13,39.685 1073.6,39.685C1050.01,39.685 1030.6,59.096 1030.6,82.685L1030.6,82.85C1030.6,104.44 1049.9,123.74 1073.46,123.74C1097.31,123.74 1116.6,104.44 1116.6,82.52ZM945.78,22L945.78,4L905.55,4L905.55,159.39L945.78,159.39L945.78,75.66C945.78,50.47 958.22,37.39 979.78,37.39C981.21,37.39 982.57,37.49 983.9,37.62L991.36,0.11C970.39,0.22 955.19,7.41 945.78,22ZM541.51,22.01L541.51,4.01L501.28,4.1L501.62,159.47L541.85,159.38L541.63,75.66C541.57,50.48 553.98,37.37 575.56,37.32C576.936,37.324 578.312,37.401 579.68,37.55L587.1,0C566.1,0.17 550.88,7.39 541.51,22.01ZM338.88,99.2L338.88,4.01L379.1,4.01L379.1,94.3C379.1,114.25 390.22,126.03 409.52,126.03C431.11,126.03 443.52,112.94 443.52,87.75L443.52,4.01L483.76,4.01L483.76,159.39L443.55,159.39L443.55,141.39C434.07,156.11 418.69,163.31 397.43,163.31C361.45,163.32 338.88,137.15 338.88,99.2ZM730.62,81.72C730.71,38.21 761.85,0.98 811.24,1.07C857.04,1.16 889.35,37.85 889.24,81.07C889.25,85.343 888.91,89.61 888.24,93.83L769.83,93.61C774.37,112.26 789.72,125.7 812.95,125.75C827.01,125.75 842.07,120.57 851.25,108.81L878.69,130.81C864.58,150.74 839.69,162.47 813.21,162.42C766.46,162.26 730.54,127.19 730.62,81.72ZM848.74,65.58C846.48,49.88 830.15,37.74 810.85,37.71C792.2,37.71 777.14,48.77 771.22,65.44L848.74,65.58ZM587.34,125.52L623.1,106.8C629.01,119.61 640.83,127.16 657.58,127.16C673.01,127.16 678.92,122.24 678.92,115.34C678.92,90.34 594.21,105.49 594.21,48.34C594.21,16.82 621.79,0.08 655.93,0.08C681.87,0.08 704.85,11.57 717.33,32.91L681.89,51.66C676.64,41.15 666.79,35.24 654.31,35.24C642.17,35.24 636.25,39.51 636.25,46.73C636.25,71.03 720.96,55.6 720.96,113.73C720.96,143.94 696.34,162.32 656.61,162.32C622.79,162.29 599.15,151.13 587.34,125.52ZM0,81.54C0,36.73 36.63,0.74 82.43,0.74C110.377,0.544 136.612,14.477 152.1,37.74L117.76,57.66C109.698,46.15 96.483,39.297 82.43,39.34C58.88,39.34 39.58,58.97 39.58,81.54C39.58,104.11 58.88,123.74 82.43,123.74C97.168,123.828 110.937,116.243 118.74,103.74L152.74,124.02C137.433,147.975 110.838,162.451 82.41,162.3C36.63,162.34 0,125.66 0,81.54Z" style="fill:rgb(0,86,210);fill-rule:nonzero;"/>
                </g>
                <g transform="matrix(1.08084,0,0,1.08084,-24.2121,-23.5431)">
                    <path d="M271.863,90.338C271.863,86.95 268.978,84.2 265.424,84.2L146.106,84.2C142.552,84.2 139.667,86.95 139.667,90.338L139.667,141.462C139.667,144.849 142.552,147.6 146.106,147.6L265.424,147.6C268.978,147.6 271.863,144.849 271.863,141.462L271.863,90.338Z" style="fill:rgb(0,40,85);"/>
                </g>
                <g transform="matrix(0.875872,0,0,0.890502,24.6005,11.1176)">
                    <path d="M192.001,77.266C192.525,77.266 193.027,77.474 193.397,77.844C193.768,78.214 193.976,78.717 193.976,79.24C193.976,82.523 193.976,89.068 193.976,92.351C193.976,92.875 193.768,93.377 193.397,93.748C193.027,94.118 192.525,94.326 192.001,94.326C190.368,94.326 188.314,94.326 188.314,94.326L188.314,100.736L207.797,100.736L207.797,94.326L204.269,94.326C203.746,94.326 203.244,94.118 202.873,93.748C202.503,93.377 202.295,92.875 202.295,92.351C202.295,89.068 202.295,82.523 202.295,79.24C202.295,78.717 202.503,78.214 202.873,77.844C203.244,77.474 203.746,77.266 204.269,77.266C205.848,77.266 207.797,77.266 207.797,77.266L207.797,70.856L188.314,70.856L188.314,77.266L192.001,77.266Z" style="fill:rgb(232,74,39);stroke:rgb(105,105,105);stroke-width:0.13px;"/>
                    <g transform="matrix(1,0,0,1,-0.567983,-6)">
                        <path d="M269.198,116.057C266.069,114.46 263.137,114.094 260.737,114.094C254.972,114.094 251.544,116.223 251.544,120.587C251.544,124.919 254.939,126.118 260.97,127.651C263.403,128.284 265.87,128.817 265.87,131.183C265.87,134.016 262.403,134.682 260.07,134.682C257.471,134.682 255.105,133.849 252.343,132.216L250.412,135.414C253.608,137.378 256.571,138.21 260.304,138.21C264.903,138.21 270.196,136.945 270.196,131.15C270.196,126.152 266.202,125.419 262.37,124.319C256.204,122.553 255.838,121.62 255.838,120.52C255.838,118.187 257.537,117.621 260.47,117.621C263.37,117.621 265.436,118.187 267.9,119.254L269.198,116.057ZM237.248,126.152C237.248,117.421 231.555,114.094 224.824,114.094C218.159,114.094 212.433,117.421 212.433,126.152C212.433,134.882 218.159,138.21 224.824,138.21C231.555,138.21 237.248,134.882 237.248,126.152ZM131.573,137.81L131.573,114.494L127.313,114.494L127.313,137.81L131.573,137.81ZM180.846,137.81L180.846,114.494L176.586,114.494L176.586,137.81L180.846,137.81ZM246.609,137.81L246.609,114.494L242.349,114.494L242.349,137.81L246.609,137.81ZM191.207,137.81L191.207,120.956L202.838,137.81L207.298,137.81L207.298,114.494L203.038,114.494L203.038,131.381L191.374,114.494L186.947,114.494L186.947,137.81L191.207,137.81ZM153.328,134.349L141.934,134.349L141.934,114.494L137.674,114.494L137.674,137.81L153.328,137.81L153.328,134.349ZM172.784,134.349L161.39,134.349L161.39,114.494L157.13,114.494L157.13,137.81L172.784,137.81L172.784,134.349ZM216.726,126.152C216.726,119.787 220.392,117.621 224.824,117.621C229.189,117.621 232.921,119.787 232.921,126.152C232.921,132.516 229.189,134.682 224.824,134.682C220.392,134.682 216.726,132.516 216.726,126.152Z" style="fill:white;fill-rule:nonzero;stroke:rgb(51,51,51);stroke-width:0.17px;stroke-linecap:butt;stroke-miterlimit:2;"/>
                    </g>
                </g>
                <path d="M126.745,140.856L269.628,140.856" style="fill:none;stroke:rgb(105,105,105);stroke-width:0.15px;"/>
            </g>
        </g>
    </g>
</svg>
