<?xml version="1.0" encoding="UTF-8" standalone="no"?>
<!DOCTYPE svg PUBLIC "-//W3C//DTD SVG 1.1//EN" "http://www.w3.org/Graphics/SVG/1.1/DTD/svg11.dtd">
<svg width="100%" height="100%" viewBox="0 0 170 90" version="1.1" xmlns="http://www.w3.org/2000/svg" xmlns:xlink="http://www.w3.org/1999/xlink" xml:space="preserve" xmlns:serif="http://www.serif.com/" style="fill-rule:evenodd;clip-rule:evenodd;stroke-linejoin:round;stroke-miterlimit:2;">
    <g id="Artboard1" transform="matrix(1.0411,0,0,1.11544,0,0)">
        <rect x="0" y="0" width="163" height="80" style="fill:none;"/>
        <g transform="matrix(0.960522,0,0,0.896505,0,0)">
            <path d="M134.565,76.056C136.951,76.056 138.889,77.994 138.889,80.38C138.889,82.766 136.951,84.703 134.565,84.703C132.179,84.703 130.242,82.766 130.242,80.38C130.242,77.994 132.179,76.056 134.565,76.056ZM134.565,76.769C136.558,76.769 138.176,78.387 138.176,80.38C138.176,82.372 136.558,83.99 134.565,83.99C132.572,83.99 130.954,82.372 130.954,80.38C130.954,78.387 132.572,76.769 134.565,76.769ZM86.313,47.087L70.87,47.087L36.687,83.219L47.632,83.219L73.719,56.532L72.015,68.526L64.723,68.526L58.643,74.673L71.157,74.673L70.115,83.219L81.665,83.219L86.313,47.087ZM49.88,47.087L46.732,53.084L32.339,53.084L27.092,62.23L39.536,62.23L36.387,68.976L23.793,68.976L19.445,77.072L38.036,77.072L34.738,83.219L2.954,83.219L22.744,47.087L49.88,47.087ZM129.549,68.574C134.327,68.77 158.833,68.565 162.415,44.014C165.127,25.433 136.364,14.469 136.364,14.469L140.736,12.304C140.736,12.304 169.341,24.01 166.313,44.014C162.152,71.505 133.838,73.605 128.881,73.762L127.665,83.219L116.115,83.219L117.157,74.673L104.643,74.673L110.723,68.526L118.015,68.526L119.719,56.532L93.632,83.219L82.687,83.219L116.87,47.087L132.313,47.087L129.549,68.574ZM132.375,82.836L132.375,77.73L134.639,77.73C135.094,77.73 135.44,77.776 135.677,77.868C135.913,77.959 136.103,78.121 136.244,78.354C136.386,78.586 136.457,78.842 136.457,79.123C136.457,79.486 136.34,79.791 136.105,80.039C135.871,80.288 135.508,80.446 135.018,80.513C135.197,80.599 135.333,80.684 135.426,80.767C135.623,80.948 135.81,81.175 135.987,81.446L136.875,82.836L136.025,82.836L135.349,81.774C135.152,81.467 134.989,81.233 134.862,81.07C134.734,80.908 134.62,80.794 134.519,80.729C134.418,80.664 134.315,80.619 134.21,80.593C134.134,80.577 134.008,80.569 133.834,80.569L133.051,80.569L133.051,82.836L132.375,82.836ZM133.051,79.984L134.503,79.984C134.812,79.984 135.053,79.952 135.227,79.888C135.402,79.824 135.534,79.722 135.624,79.581C135.715,79.441 135.76,79.288 135.76,79.123C135.76,78.882 135.673,78.683 135.497,78.528C135.322,78.372 135.045,78.294 134.667,78.294L133.051,78.294L133.051,79.984ZM123.184,9.64L128.897,7.617C128.897,7.617 103.425,2.856 72.969,4.058C20.366,6.134 18.246,22.724 17.646,25.723C17.116,28.373 18.967,38.446 46.732,40.49C64.876,41.826 90.511,33.294 90.511,33.294L110.451,41.99L114.049,39.891L108.646,27.423L97.197,30.757C97.197,30.757 126.334,18.507 133.875,14.835C143.705,10.048 145.537,9.506 144.847,8.3C143.877,6.605 136.872,5.746 127.902,9.228C121.087,11.873 99.806,20.55 99.806,20.55L66.222,18.001L61.725,20.4L78.516,27.447C78.516,27.447 61.463,35.355 46.432,35.393C29.872,35.434 20.77,30.547 21.095,25.723C21.613,18.025 35.374,8.516 72.819,6.757C96.974,5.622 123.184,9.64 123.184,9.64Z" style="fill:rgb(47,47,47);"/>
        </g>
    </g>
</svg>
