<?xml version="1.0" encoding="UTF-8" standalone="no"?>
<!DOCTYPE svg PUBLIC "-//W3C//DTD SVG 1.1//EN" "http://www.w3.org/Graphics/SVG/1.1/DTD/svg11.dtd">
<svg width="100%" height="100%" viewBox="0 0 2371 2371" version="1.1" xmlns="http://www.w3.org/2000/svg" xmlns:xlink="http://www.w3.org/1999/xlink" xml:space="preserve" xmlns:serif="http://www.serif.com/" style="fill-rule:evenodd;clip-rule:evenodd;stroke-linejoin:round;stroke-miterlimit:2;">
    <g id="Artboard1" transform="matrix(0.718386,0,0,0.929647,0,0)">
        <rect x="0" y="0" width="3300" height="2550" style="fill:none;"/>
        <g transform="matrix(1.39201,0,0,1.07568,-879.759,-488.656)">
            <path d="M997.338,1214.53C993.502,1261.52 991.584,1295.56 991.584,1316.66C991.584,1400.09 1003.77,1481.59 1028.14,1561.18C1052.51,1640.78 1085.72,1706.94 1127.76,1759.68C1170.78,1813.38 1224.06,1855.58 1287.61,1886.26C1351.16,1916.95 1417.82,1932.29 1487.58,1932.29C1539.19,1932.29 1588.16,1923.66 1634.51,1906.4C1680.86,1889.14 1719.33,1865.17 1749.91,1834.48C1784.33,1800.92 1813.96,1747.22 1838.8,1673.38L1869.01,1683.45C1844.07,1795.64 1790.61,1880.27 1708.62,1937.33C1626.64,1994.38 1517.56,2022.91 1381.39,2022.91C1263.44,2022.91 1162.27,2004.21 1077.89,1966.81C993.502,1929.41 922.062,1871.88 863.567,1794.2C782.058,1685.85 741.303,1552.56 741.303,1394.33C741.303,1178.57 818.497,1009.32 972.885,886.578C1085.08,797.397 1213.1,752.807 1356.94,752.807C1433.65,752.807 1504.61,766.472 1569.82,793.801C1635.03,821.131 1690.16,860.687 1735.23,912.469C1805.24,993.019 1840.24,1093.71 1840.24,1214.53L997.338,1214.53ZM1624.48,1158.43C1617.8,1062.54 1600.14,988.704 1571.51,936.922C1545.73,889.934 1511.37,852.776 1468.41,825.446C1425.45,798.117 1379.64,784.452 1330.96,784.452C1248.86,784.452 1177.03,819.932 1115.47,890.893C1053.9,961.854 1017.38,1051.03 1005.92,1158.43L1624.48,1158.43Z" style="fill-rule:nonzero;"/>
            <path d="M1918.15,1876.19L1919.59,2140.27L1919.59,2239.3C1919.59,2304.36 1923.43,2351.95 1931.1,2382.09C1938.77,2412.23 1953.63,2437.83 1975.69,2458.88C2002.54,2484.71 2051.92,2503.84 2123.84,2516.28L2123.84,2546.49L1488.07,2546.49L1488.07,2516.28C1545.61,2508.61 1586.84,2498.07 1611.77,2484.66C1636.71,2471.25 1656.84,2447.78 1672.19,2414.24C1682.74,2392.2 1690.17,2358.67 1694.48,2313.64C1698.8,2268.6 1700.95,2204.41 1700.95,2121.06L1700.95,1127.98C1700.95,1019.71 1683.93,942.582 1649.89,896.591C1615.85,850.599 1558.55,827.604 1478,827.604L1478,791.644L1898.02,732.67C1908.56,778.698 1913.84,820.891 1913.84,859.248L1913.84,886.578C1984.69,838.631 2051.24,804.35 2113.48,783.733C2175.72,763.116 2243.23,752.807 2316,752.807C2461.54,752.807 2586.01,796.439 2689.42,883.701C2754.54,939.319 2804.81,1008.84 2840.24,1092.27C2875.67,1175.69 2893.38,1267.75 2893.38,1368.44C2893.38,1472.96 2874.47,1570.3 2836.65,1660.43C2798.82,1750.57 2744.96,1824.89 2675.06,1883.39C2565.91,1976.4 2436.17,2022.91 2285.84,2022.91C2214.03,2022.91 2152.03,2012.36 2099.84,1991.27C2047.65,1970.17 1987.09,1931.81 1918.15,1876.19ZM1918.15,1398.65C1918.15,1530.98 1923.88,1630.71 1935.35,1697.83C1946.81,1764.96 1967.34,1819.14 1996.95,1860.37C2023.69,1896.81 2058.8,1926.06 2102.26,1948.11C2145.72,1970.17 2189.89,1981.2 2234.78,1981.2C2336.02,1981.2 2424.37,1933.25 2499.83,1837.36C2545.68,1779.82 2581.02,1711.74 2605.85,1633.11C2630.69,1554.47 2643.1,1472.48 2643.1,1387.14C2643.1,1304.67 2631.4,1223.88 2608,1144.77C2584.59,1065.66 2551.89,997.814 2509.87,941.237C2438.22,843.426 2350.83,794.521 2247.68,794.521C2197.05,794.521 2149.29,806.987 2104.4,831.919C2059.51,856.851 2023.69,890.893 1996.95,934.045C1967.34,980.074 1946.81,1037.37 1935.35,1105.93C1923.88,1174.5 1918.15,1272.07 1918.15,1398.65Z" style="fill-rule:nonzero;"/>
        </g>
    </g>
</svg>
