<?xml version="1.0" encoding="UTF-8" standalone="no"?>
<?xml-stylesheet type="text/css" href="/css/main.css" ?>
<!DOCTYPE svg PUBLIC "-//W3C//DTD SVG 1.1//EN" "http://www.w3.org/Graphics/SVG/1.1/DTD/svg11.dtd">
<svg width="100%" height="100%" viewBox="0 0 40 40" version="1.1" xmlns="http://www.w3.org/2000/svg" xmlns:xlink="http://www.w3.org/1999/xlink" xml:space="preserve" xmlns:serif="http://www.serif.com/" style="fill-rule:evenodd;clip-rule:evenodd;stroke-linejoin:round;stroke-miterlimit:2;">
    <g transform="matrix(1,0,0,1,-45.8708,0)">
        <g id="GitHub" transform="matrix(0.8,0,0,0.888889,45.8708,0)">
            <rect x="0" y="0" width="50" height="45" style="fill:none;"/>
            <g transform="matrix(1.24019,0,0,1.11617,-56.6921,0.708506)" class="bg-color">
                <circle cx="65.871" cy="19.922" r="18.133" />
            </g>
            <g transform="matrix(0.035008,0,0,0.0315072,-1.12697,-0.616438)" class="fg-color">
                <path d="M588.016,1349.06C578.14,1360.24 562.596,1364.54 548.382,1360.01C287.126,1279.9 98.866,1035.67 98.866,747.819C98.866,390.483 388.978,100.371 746.315,100.371C1103.65,100.371 1393.76,390.483 1393.76,747.819C1393.76,1029.25 1213.82,1268.98 962.803,1358.13C948.34,1363.07 932.385,1360.77 919.905,1351.95C907.425,1343.13 899.937,1328.85 899.772,1313.57C899.554,1313.32 899.552,1313.06 899.552,1312.8C899.552,1247.71 899.552,1140.27 899.552,1076.45C899.552,1061.22 893.037,1047.51 882.642,1037.95C1064.8,1007.58 1198.93,909.104 1198.93,709.042C1198.93,618.591 1167.5,545.414 1114.19,489.985C1166.13,373.526 1101.99,299.373 1101.99,299.373C1101.99,299.373 991.157,294.706 917.95,382.243C866.25,368.835 809.747,362.074 750.582,362.074C691.269,362.074 634.63,369.857 582.773,384.61C509.613,294.622 396.777,299.373 396.777,299.373C396.777,299.373 330.168,376.39 387.679,496.695C333.949,552.98 302.238,625.008 302.238,709.042C302.238,911.553 433.916,1009.97 617.378,1039.04C607.65,1048.53 601.611,1061.79 601.611,1076.45L601.611,1123.85C581.558,1132.66 544.066,1142.1 489.536,1127.38C399.622,1103.1 411.807,1055.95 375.291,1031.33C334.642,1003.93 312.475,1000.15 293.919,1002.26C280.04,1003.84 266.666,1010.06 273.59,1021.31C282.654,1036.03 303.126,1042.94 319.775,1062.18C341.389,1087.16 347.557,1109.43 365.685,1144.79C384.395,1181.3 425.158,1219.67 492.554,1230.84C533.695,1237.65 574.006,1231.39 601.611,1224.53L601.611,1312.8C601.611,1326.68 596.482,1339.37 588.016,1349.06Z"/>
            </g>
        </g>
    </g>
</svg>
