<?xml version="1.0" encoding="UTF-8" standalone="no"?>
<!DOCTYPE svg PUBLIC "-//W3C//DTD SVG 1.1//EN" "http://www.w3.org/Graphics/SVG/1.1/DTD/svg11.dtd">
<svg width="100%" height="100%" viewBox="0 0 1600 1600" version="1.1" xmlns="http://www.w3.org/2000/svg" xmlns:xlink="http://www.w3.org/1999/xlink" xml:space="preserve" xmlns:serif="http://www.serif.com/" style="fill-rule:evenodd;clip-rule:evenodd;stroke-linejoin:round;stroke-miterlimit:2;">
    <g transform="matrix(1,0,0,1,53.6851,67.8762)">
        <path d="M591.766,1344.26C580.101,1360.93 558.863,1367.95 539.56,1361.51C283.489,1275.16 98.866,1032.88 98.866,747.819C98.866,390.483 388.978,100.371 746.315,100.371C1103.65,100.371 1393.76,390.483 1393.76,747.819C1393.76,1029.92 1212.95,1270.13 960.99,1358.77C949.147,1362.89 936.134,1362 924.968,1356.29C913.803,1350.58 905.455,1340.56 901.86,1328.55C900.35,1323.56 899.552,1318.28 899.552,1312.8C899.552,1247.71 899.552,1140.27 899.552,1076.45C899.552,1061.22 893.037,1047.51 882.642,1037.95C1064.8,1007.58 1198.93,909.104 1198.93,709.042C1198.93,618.591 1167.5,545.414 1114.19,489.985C1166.13,373.526 1101.99,299.373 1101.99,299.373C1101.99,299.373 991.157,294.706 917.95,382.243C866.25,368.835 809.747,362.074 750.582,362.074C691.269,362.074 634.63,369.857 582.773,384.61C509.613,294.622 396.777,299.373 396.777,299.373C396.777,299.373 330.168,376.39 387.679,496.695C333.949,552.98 302.238,625.008 302.238,709.042C302.238,911.553 433.916,1009.97 617.378,1039.04C607.65,1048.53 601.611,1061.79 601.611,1076.45L601.611,1123.85C581.558,1132.66 544.066,1142.1 489.536,1127.38C399.622,1103.1 411.807,1055.95 375.291,1031.33C334.642,1003.93 312.475,1000.15 293.919,1002.26C280.04,1003.84 266.666,1010.06 273.59,1021.31C282.654,1036.03 303.126,1042.94 319.775,1062.18C341.389,1087.16 347.557,1109.43 365.685,1144.79C384.395,1181.3 425.158,1219.67 492.554,1230.84C533.695,1237.65 574.006,1231.39 601.611,1224.53L601.611,1312.8C601.611,1324.49 597.973,1335.34 591.766,1344.26Z"/>
    </g>
</svg>
