<?xml version="1.0" encoding="UTF-8" standalone="no"?>
<!DOCTYPE svg PUBLIC "-//W3C//DTD SVG 1.1//EN" "http://www.w3.org/Graphics/SVG/1.1/DTD/svg11.dtd">
<svg width="100%" height="100%" viewBox="0 0 104 105" version="1.1" xmlns="http://www.w3.org/2000/svg" xmlns:xlink="http://www.w3.org/1999/xlink" xml:space="preserve" xmlns:serif="http://www.serif.com/" style="fill-rule:evenodd;clip-rule:evenodd;stroke-linecap:round;stroke-linejoin:round;stroke-miterlimit:1.5;">
    <g transform="matrix(1,0,0,1,-387.664,0)">
        <g id="LeSS" transform="matrix(0.252115,0,0,0.401522,387.664,0)">
            <rect x="0" y="0" width="411.3" height="260" style="fill:none;"/>
            <g>
                <g transform="matrix(4.13248,0,0,2.59153,-1602.7,-5.27245)">
                    <path d="M437.195,4.377L439.811,6.451L442.646,4.689L445.008,7.047L448.026,5.62L450.104,8.232L453.265,7.158L455.032,9.99L458.294,9.284L459.727,12.299L463.049,11.969L464.128,15.127L467.466,15.178L468.178,18.439L471.488,18.87L471.825,22.191L475.064,22.996L475.019,26.334L478.146,27.503L477.721,30.814L480.694,32.332L479.895,35.573L482.675,37.42L481.511,40.549L484.063,42.701L482.55,45.677L484.84,48.106L482.998,50.889L484.996,53.563L482.849,56.119L484.529,59.003L482.104,61.298L483.444,64.355L480.774,66.358L481.757,69.548L478.876,71.233L479.489,74.514L476.434,75.86L476.669,79.19L473.481,80.179L473.335,83.514L470.055,84.133L469.53,87.429L466.201,87.671L465.303,90.886L461.968,90.746L460.71,93.837L457.412,93.318L455.81,96.247L452.593,95.355L450.667,98.081L447.573,96.829L445.349,99.318L442.418,97.721L439.925,99.94L437.195,98.02L434.465,99.94L431.971,97.721L429.04,99.318L426.816,96.829L423.722,98.081L421.796,95.355L418.58,96.247L416.977,93.318L413.68,93.837L412.422,90.746L409.086,90.886L408.189,87.671L404.86,87.429L404.334,84.133L401.054,83.514L400.908,80.179L397.72,79.19L397.955,75.86L394.901,74.514L395.514,71.233L392.632,69.548L393.615,66.358L390.945,64.355L392.285,61.298L389.861,59.003L391.541,56.119L389.394,53.563L391.391,50.889L389.55,48.106L391.839,45.677L390.327,42.701L392.878,40.549L391.715,37.42L394.495,35.573L393.696,32.332L396.668,30.814L396.244,27.503L399.37,26.334L399.325,22.996L402.565,22.191L402.901,18.87L406.211,18.439L406.924,15.178L410.261,15.127L411.341,11.969L414.663,12.299L416.095,9.284L419.358,9.99L421.125,7.158L424.285,8.232L426.364,5.62L429.381,7.047L431.744,4.689L434.579,6.451L437.195,4.377Z" style="fill:rgb(154,204,230);"/>
                </g>
                <g transform="matrix(3.96645,0,0,2.49053,-1537.65,0)">
                    <circle cx="439.095" cy="52.157" r="45.095" style="fill:rgb(49,153,206);stroke:white;stroke-width:0.65px;"/>
                </g>
            </g>
            <g>
                <g transform="matrix(3.96645,0,0,2.49053,-1537.65,0)">
                    <path d="M425.457,34.856L419.778,30.456L405.759,48.209L422.234,61.103L426.122,56.293C426.122,56.293 428.885,57.982 432.518,57.214C436.15,56.447 437.173,56.037 437.173,56.037L437.02,54.298C437.02,54.298 437.583,56.754 440.448,56.907C443.313,57.061 447.559,57.163 450.476,57.061C453.392,56.958 454.569,54.656 454.569,54.656C454.569,54.656 455.643,56.958 457.997,57.009C460.35,57.061 464.339,57.092 467.666,57.061C473.089,57.009 472.584,51.688 472.629,50.716C472.804,46.922 471.793,46.163 471.793,46.163L472.356,45.754L472.356,41.968C472.356,39.461 469.388,37.721 466.421,37.772C463.453,37.823 462.942,37.721 459.411,37.926C455.881,38.13 454.602,41.149 454.602,41.149C454.602,41.149 453.886,38.028 449.742,37.977C445.597,37.926 444.622,37.78 441.504,37.926C436.03,38.182 437.002,44.321 437.002,44.321C437.002,44.321 434.853,40.228 429.941,40.382C425.03,40.535 423.75,43.218 422.676,44.73C421.32,46.64 421.815,52.031 422.318,51.842L415.923,47.033L425.457,34.856Z" style="fill:rgb(41,60,126);"/>
                </g>
                <g transform="matrix(3.96645,0,0,2.49053,-1537.65,0)">
                    <path d="M427.141,50.028L435.685,49.875C435.685,49.875 435.736,50.437 435.685,47.368C435.634,44.298 433.28,42.558 430.108,42.558C430.108,42.558 423.406,41.944 423.815,49.107C424.224,56.27 429.903,55.503 431.848,55.298C433.792,55.093 434.969,54.633 434.969,54.633L434.457,52.126C434.457,52.126 431.569,52.926 430.824,52.893C430.056,52.86 427.192,52.791 427.141,50.028ZM427.038,47.879L432.82,47.879C432.82,47.879 432.871,45.168 430.006,45.168C427.141,45.168 427.038,47.879 427.038,47.879Z" style="fill:white;"/>
                </g>
                <g transform="matrix(3.96645,0,0,2.49053,-1537.65,0)">
                    <path d="M449.959,45.168L450.01,43.121L441.876,43.07L441.876,45.935C441.876,45.935 447.708,46.037 449.806,46.037C451.903,46.037 452.876,46.907 452.978,49.312C453.08,51.717 453.029,51.461 452.978,52.689C452.927,53.917 452.62,55.247 449.396,55.298C446.173,55.349 443.462,55.247 441.057,55.196C438.652,55.144 438.396,53.763 438.345,52.637C438.294,51.512 438.294,50.642 438.294,50.642L441.415,49.875L441.415,52.228L450.113,52.279L450.062,49.107C450.062,49.107 444.127,49.056 441.722,49.005C439.317,48.954 438.959,46.958 438.908,46.191C438.857,45.423 438.857,43.684 438.857,42.661C438.857,41.637 439.624,40.103 441.517,40.103C443.41,40.103 448.066,39.949 449.755,40.051C451.443,40.154 452.773,40.972 452.773,42.354C452.773,43.735 452.824,44.298 452.824,44.298L449.959,45.168Z" style="fill:white;"/>
                </g>
                <g transform="matrix(3.96645,0,0,2.49053,-1468.04,0)">
                    <path d="M449.959,45.168L450.01,43.121L441.876,43.07L441.876,45.935C441.876,45.935 447.708,46.037 449.806,46.037C451.903,46.037 452.876,46.907 452.978,49.312C453.08,51.717 453.029,51.461 452.978,52.689C452.927,53.917 452.62,55.247 449.396,55.298C446.173,55.349 443.462,55.247 441.057,55.196C438.652,55.144 438.396,53.763 438.345,52.637C438.294,51.512 438.294,50.642 438.294,50.642L441.415,49.875L441.415,52.228L450.113,52.279L450.062,49.107C450.062,49.107 444.127,49.056 441.722,49.005C439.317,48.954 438.959,46.958 438.908,46.191C438.857,45.423 438.857,43.684 438.857,42.661C438.857,41.637 439.624,40.103 441.517,40.103C443.41,40.103 448.066,39.949 449.755,40.051C451.443,40.154 452.773,40.972 452.773,42.354C452.773,43.735 452.824,44.298 452.824,44.298L449.959,45.168Z" style="fill:white;"/>
                </g>
                <g transform="matrix(3.96645,0,0,2.49053,-1537.65,0)">
                    <path d="M419.966,32.984L422.564,35.182L413.171,47.373L424.063,55.867L421.965,58.165L408.475,47.573L419.966,32.984Z" style="fill:white;"/>
                </g>
            </g>
            <g transform="matrix(3.96645,0,0,2.49053,-1540.92,-0.398195)">
                <text x="403.781px" y="72.425px" style="font-family:'Amiko-Bold', 'Amiko';font-weight:700;font-size:10.463px;fill:white;">P<tspan x="409.986px 416.609px 423.232px 430.064px 436.059px 438.706px 444.701px 447.348px 455.436px 463.105px 469.1px " y="72.425px 72.425px 72.425px 72.425px 72.425px 72.425px 72.425px 72.425px 72.425px 72.425px 72.425px ">RACTITIONER</tspan></text>
            </g>
            <g>
                <g transform="matrix(3.96645,0,0,2.49053,-1538.65,0)">
                    <path d="M439.511,85.726L440.713,88.07L443.314,88.489L441.455,90.356L441.861,92.959L439.511,91.768L437.161,92.959L437.567,90.356L435.708,88.489L438.31,88.07L439.511,85.726Z" style="fill:white;"/>
                </g>
                <g transform="matrix(3.96645,0,0,2.49053,-1537.65,0)">
                    <path d="M422.95,90.256L434.738,90.256" style="fill:none;stroke:white;stroke-width:0.35px;"/>
                </g>
                <g transform="matrix(3.96645,0,0,2.49053,-1456.31,0)">
                    <path d="M422.95,90.256L434.738,90.256" style="fill:none;stroke:white;stroke-width:0.35px;"/>
                </g>
            </g>
            <g transform="matrix(3.80779,0,0,2.49053,-1471.69,0.995488)">
                <text x="420.706px" y="84.36px" style="font-family:'VanchromeFront-Regular', 'Vanchrome', fantasy;font-size:17px;fill:rgb(238,193,22);">PRO<tspan x="441.591px 449.105px " y="84.36px 84.36px ">VI</tspan>SIONAL</text>
            </g>
            <g transform="matrix(3.96645,0,0,2.49053,-1551.52,-0.248872)">
                <g transform="matrix(0.748085,-0.444149,0.510516,0.859868,91.2677,189.982)">
                    <text x="418.928px" y="27.945px" style="font-family:'Amiko-Bold', 'Amiko';font-weight:700;font-size:11px;fill:white;">C</text>
                </g>
                <g transform="matrix(0.813491,-0.308436,0.354524,0.935047,70.5988,132.622)">
                    <text x="424.851px" y="24.371px" style="font-family:'Amiko-Bold', 'Amiko';font-weight:700;font-size:11px;fill:white;">E</text>
                </g>
                <g transform="matrix(0.853122,-0.170535,0.196017,0.9806,58.9131,73.8532)">
                    <text x="430.557px" y="22.07px" style="font-family:'Amiko-Bold', 'Amiko';font-weight:700;font-size:11px;fill:white;">R</text>
                </g>
                <g transform="matrix(0.868628,-0.0488355,0.0561328,0.998423,56.2332,21.3689)">
                    <text x="436.9px" y="20.721px" style="font-family:'Amiko-Bold', 'Amiko';font-weight:700;font-size:11px;fill:white;">T</text>
                </g>
                <g transform="matrix(0.869068,0.0402616,-0.0462777,0.998929,58.9506,-17.8148)">
                    <text x="443.02px" y="20.421px" style="font-family:'Amiko-Bold', 'Amiko';font-weight:700;font-size:11px;fill:white;">I</text>
                </g>
                <g transform="matrix(0.858234,0.142599,-0.163906,0.986476,66.5891,-63.3368)">
                    <text x="446.098px" y="20.423px" style="font-family:'Amiko-Bold', 'Amiko';font-weight:700;font-size:11px;fill:white;">F</text>
                </g>
                <g transform="matrix(0.84093,0.223018,-0.256343,0.966586,77.3424,-100.037)">
                    <text x="451.762px" y="21.38px" style="font-family:'Amiko-Bold', 'Amiko';font-weight:700;font-size:11px;fill:white;">I</text>
                </g>
                <g transform="matrix(0.806743,0.325678,-0.374343,0.92729,96.1341,-146.508)">
                    <text x="454.773px" y="22.028px" style="font-family:'Amiko-Bold', 'Amiko';font-weight:700;font-size:11px;fill:white;">E</text>
                </g>
                <g transform="matrix(0.733931,0.467167,-0.536974,0.843599,135.515,-211.375)">
                    <text x="460.552px" y="24.166px" style="font-family:'Amiko-Bold', 'Amiko';font-weight:700;font-size:11px;fill:white;">D</text>
                </g>
            </g>
        </g>
    </g>
</svg>
