<?xml version="1.0" encoding="UTF-8" standalone="no"?>
<!DOCTYPE svg PUBLIC "-//W3C//DTD SVG 1.1//EN" "http://www.w3.org/Graphics/SVG/1.1/DTD/svg11.dtd">
<svg width="100%" height="100%" viewBox="0 0 41 40" version="1.1" xmlns="http://www.w3.org/2000/svg" xmlns:xlink="http://www.w3.org/1999/xlink" xml:space="preserve" xmlns:serif="http://www.serif.com/" style="fill-rule:evenodd;clip-rule:evenodd;stroke-linejoin:round;stroke-miterlimit:2;">
    <symbol id="linkedIn">
    <g id="Artboard1" transform="matrix(0.801589,0,0,0.882498,0,0)">
        <rect x="0" y="0" width="50" height="45" style="fill:none;"/>
        <g transform="matrix(1.24752,0,0,1.13315,-4.3976,-1.88308)">
            <path d="M40.974,7.083C40.974,5.375 39.587,3.988 37.879,3.988L9.1,3.988C7.392,3.988 6.005,5.375 6.005,7.083L6.005,35.903C6.005,37.611 7.392,38.997 9.1,38.997L37.879,38.997C39.587,38.997 40.974,37.611 40.974,35.903L40.974,7.083Z" style="fill:rgb(17,102,191);"/>
        </g>
        <g transform="matrix(1.24752,0,0,1.13315,-4.3976,-1.88308)">
            <path d="M17.003,18.995C17.003,18.733 16.899,18.482 16.714,18.297C16.529,18.112 16.278,18.008 16.016,18.008C14.902,18.008 13.101,18.008 11.987,18.008C11.726,18.008 11.475,18.112 11.29,18.297C11.104,18.482 11,18.733 11,18.995C11,21.865 11,30.185 11,33.055C11,33.317 11.104,33.568 11.29,33.753C11.475,33.938 11.726,34.042 11.987,34.042C13.101,34.042 14.902,34.042 16.016,34.042C16.278,34.042 16.529,33.938 16.714,33.753C16.899,33.568 17.003,33.317 17.003,33.055C17.003,30.185 17.003,21.865 17.003,18.995Z" style="fill:white;"/>
        </g>
        <g transform="matrix(1.24752,0,0,1.13315,-4.3976,-1.88308)">
            <path d="M25.866,19.886L25.866,18.894C25.866,18.659 25.773,18.434 25.607,18.268C25.44,18.101 25.215,18.008 24.98,18.008C23.844,18.008 21.886,18.008 20.75,18.008C20.515,18.008 20.289,18.101 20.123,18.268C19.957,18.434 19.863,18.659 19.863,18.894C19.863,21.698 19.863,30.352 19.863,33.156C19.863,33.391 19.957,33.616 20.123,33.782C20.289,33.949 20.515,34.042 20.75,34.042C21.886,34.042 23.844,34.042 24.98,34.042C25.215,34.042 25.44,33.949 25.607,33.782C25.773,33.616 25.866,33.391 25.866,33.156C25.866,30.736 25.866,24.197 25.866,24.197C26.248,23.366 26.843,22.748 27.706,22.399C28.167,22.185 28.705,22.222 29.133,22.496C29.561,22.769 29.821,23.242 29.821,23.751C29.935,26.325 29.935,31.168 29.935,33.156C29.935,33.391 30.028,33.616 30.195,33.782C30.361,33.949 30.586,34.042 30.821,34.042C31.957,34.042 33.915,34.042 35.051,34.042C35.287,34.042 35.512,33.949 35.678,33.782C35.844,33.616 35.938,33.391 35.938,33.156C35.938,31.381 35.938,27.262 35.938,23.766C35.938,22.243 35.33,20.782 34.249,19.708C33.168,18.634 31.703,18.036 30.18,18.046C29.999,18.048 29.895,18.048 29.895,18.048C28.696,18.063 26.998,18.851 25.866,19.886Z" style="fill:white;"/>
        </g>
        <g fill="var( --color1 )" transform="matrix(1.24752,0,0,1.13315,-4.3976,-1.88308)">
            <circle cx="14.103" cy="11.925" r="3.142" />
        </g>
    </g>
    </symbol>
</svg>
