<?xml version="1.0" encoding="UTF-8" standalone="no" ?>
<?xml-stylesheet type="text/css" href="/css/main.css" ?>
<!DOCTYPE svg PUBLIC "-//W3C//DTD SVG 1.1//EN" "http://www.w3.org/Graphics/SVG/1.1/DTD/svg11.dtd">
<svg width="100%" height="100%" viewBox="0 0 40 40" version="1.1" xmlns="http://www.w3.org/2000/svg" xmlns:xlink="http://www.w3.org/1999/xlink" xml:space="preserve" xmlns:serif="http://www.serif.com/" style="fill-rule:evenodd;clip-rule:evenodd;stroke-linejoin:round;stroke-miterlimit:2;">
    <g id="LinkedIn" transform="matrix(0.8,0,0,0.888889,0,0)">
        <rect x="0" y="0" width="50" height="45" style="fill:none;"/>
        <g transform="matrix(1.25,0,0,1.125,-55.514,0)" class="fg-color">
            <path d="M82.148,4.515C82.148,3.918 81.911,3.345 81.488,2.923C81.066,2.5 80.493,2.263 79.896,2.263L48.927,2.263C48.329,2.263 47.756,2.5 47.334,2.923C46.912,3.345 46.674,3.918 46.674,4.515L46.674,35.485C46.674,36.082 46.912,36.655 47.334,37.077C47.756,37.5 48.329,37.737 48.927,37.737L79.896,37.737C80.493,37.737 81.066,37.5 81.488,37.077C81.911,36.655 82.148,36.082 82.148,35.485L82.148,4.515Z"/>
        </g>
        <g transform="matrix(1.25,0,0,1.125,-55.514,0)" class="bg-color">
            <path d="M61.63,16.939C61.63,16.63 61.753,16.333 61.972,16.115C62.191,15.896 62.487,15.773 62.797,15.773L66.218,15.773C66.528,15.773 66.824,15.896 67.043,16.115C67.262,16.333 67.385,16.63 67.385,16.939C67.385,17.714 67.385,18.589 67.385,18.589C68.245,17.439 69.116,16.617 69.996,16.123C70.877,15.629 71.95,15.382 73.215,15.382C74.926,15.382 76.264,15.928 77.231,17.018C78.198,18.109 78.681,19.793 78.681,22.072L78.681,31.892C78.681,32.536 78.159,33.058 77.515,33.058C76.406,33.058 74.747,33.058 73.637,33.058C73.328,33.058 73.031,32.935 72.813,32.716C72.594,32.498 72.471,32.201 72.471,31.892C72.471,29.353 72.471,23.553 72.471,23.553C72.471,22.468 72.284,21.7 71.909,21.25C71.535,20.8 71.008,20.574 70.33,20.574C69.581,20.574 68.974,20.878 68.508,21.486C68.043,22.093 67.81,23.184 67.81,24.757L67.81,31.892C67.81,32.536 67.288,33.058 66.643,33.058C65.542,33.058 63.898,33.058 62.797,33.058C62.152,33.058 61.63,32.536 61.63,31.892C61.63,28.742 61.63,20.089 61.63,16.939ZM51.503,16.939C51.503,16.295 52.025,15.773 52.669,15.773C53.771,15.773 55.415,15.773 56.516,15.773C57.16,15.773 57.683,16.295 57.683,16.939C57.683,20.089 57.683,28.742 57.683,31.892C57.683,32.536 57.16,33.058 56.516,33.058C55.415,33.058 53.771,33.058 52.669,33.058C52.025,33.058 51.503,32.536 51.503,31.892C51.503,28.742 51.503,20.089 51.503,16.939ZM54.7,6.787C56.465,6.787 57.897,8.219 57.897,9.984C57.897,11.748 56.465,13.181 54.7,13.181C52.936,13.181 51.503,11.748 51.503,9.984C51.503,8.219 52.936,6.787 54.7,6.787Z" />
        </g>
    </g>
</svg>
