<svg enable-background="new 0 0 231.3 51.6" viewBox="0 0 231.3 51.6" xml:space="preserve" xmlns="http://www.w3.org/2000/svg"><style type="text/css">.st0{fill:#E27026;} .st1{fill:#E27226;} .st2{fill:#FFFFFF;}</style><rect x="45.5" y="37.3" width="181.1" height=".8"/><path d="m45.5 51.1v-8.2h2.5c0.6 0 1 0.1 1.3 0.2 0.4 0.1 0.7 0.4 0.9 0.8s0.3 0.9 0.3 1.4c0 0.7-0.2 1.3-0.6 1.8s-1 0.7-1.9 0.7h-1.7v3.3h-0.8zm0.9-4.3h1.7c0.5 0 0.9-0.1 1.2-0.4 0.3-0.2 0.4-0.6 0.4-1.1 0-0.3-0.1-0.6-0.2-0.8s-0.3-0.4-0.5-0.5-0.5-0.1-1-0.1h-1.7v2.9z"/><polygon points="52.4 51.1 52.4 42.9 53.3 42.9 53.3 46.3 56.8 46.3 56.8 42.9 57.6 42.9 57.6 51.1 56.8 51.1 56.8 47.2 53.3 47.2 53.3 51.1"/><path d="m59.1 51.1l2.6-8.2h0.9l2.7 8.2h-1l-0.8-2.5h-2.8l-0.7 2.5h-0.9zm1.9-3.4h2.3l-0.7-2.3c-0.2-0.7-0.4-1.3-0.5-1.7-0.1 0.5-0.2 1-0.4 1.6l-0.7 2.4z"/><path d="m66.7 51.1v-8.2h3c0.6 0 1.1 0.1 1.4 0.2 0.3 0.2 0.5 0.4 0.7 0.8s0.3 0.8 0.3 1.2c0 0.6-0.2 1.1-0.5 1.5s-0.8 0.6-1.4 0.7c0.2 0.1 0.4 0.3 0.6 0.5 0.3 0.3 0.5 0.7 0.7 1l1.2 2.2h-1.1l-0.9-1.7c-0.3-0.7-0.6-1.1-0.8-1.3s-0.3-0.4-0.5-0.5-0.4-0.1-0.7-0.1h-1v3.6h-1zm0.9-4.6h1.9c0.4 0 0.7-0.1 0.9-0.2s0.4-0.3 0.5-0.5 0.2-0.5 0.2-0.8c0-0.4-0.1-0.7-0.4-1-0.2-0.2-0.6-0.4-1.1-0.4h-2.1v2.9z"/><path d="m74.1 51.1v-8.2h1.3l1.6 5.8 0.3 1.2c0.1-0.3 0.2-0.7 0.4-1.3l1.6-5.7h1.2v8.2h-0.9v-6.8l-2 6.8h-0.8l-1.8-7v6.9h-0.9z"/><path d="m81.9 51.1l2.6-8.2h0.9l2.7 8.2h-1l-0.8-2.5h-2.8l-0.7 2.5h-0.9zm1.9-3.4h2.3l-0.7-2.3c-0.2-0.7-0.4-1.3-0.5-1.7-0.1 0.5-0.2 1-0.4 1.6l-0.7 2.4z"/><path d="m94.3 48.2l0.9 0.3c-0.2 0.9-0.5 1.6-1 2.1s-1.1 0.7-1.8 0.7c-0.6 0-1.1-0.2-1.6-0.5-0.4-0.3-0.8-0.8-1.1-1.5s-0.4-1.5-0.4-2.4 0.1-1.7 0.4-2.3 0.7-1.1 1.1-1.4c0.5-0.3 1-0.5 1.6-0.5s1.2 0.2 1.7 0.6 0.8 1 1 1.8l-0.9 0.2c-0.3-1.1-0.9-1.7-1.8-1.7-0.4 0-0.8 0.1-1.2 0.3-0.3 0.2-0.6 0.6-0.8 1.1s-0.3 1.1-0.3 1.8c0 1.1 0.2 2 0.6 2.5 0.4 0.6 0.9 0.8 1.6 0.8 0.5 0 0.9-0.2 1.2-0.5 0.4-0.2 0.7-0.7 0.8-1.4"/><path d="m98.9 51.1v-3.5l-2.6-4.7h1.1l1.3 2.5c0.3 0.5 0.5 0.9 0.7 1.4 0.2-0.4 0.4-0.9 0.7-1.4l1.3-2.4h1l-2.7 4.7v3.5h-0.8z"/><path d="m107 51.1v-8.2h2.5c0.5 0 0.9 0.1 1.2 0.2 0.3 0.2 0.5 0.4 0.7 0.7s0.3 0.7 0.3 1.1-0.1 0.7-0.2 1c-0.2 0.3-0.4 0.5-0.7 0.7 0.4 0.1 0.7 0.4 0.9 0.7s0.3 0.8 0.3 1.3-0.1 0.9-0.3 1.3-0.5 0.6-0.8 0.8-0.8 0.3-1.4 0.3h-2.5zm0.9-4.8h1.4c0.4 0 0.6 0 0.8-0.1s0.4-0.2 0.5-0.4 0.2-0.4 0.2-0.7-0.1-0.5-0.2-0.7-0.3-0.3-0.5-0.4-0.5-0.1-1-0.1h-1.3v2.4zm0 3.8h1.7c0.4 0 0.6 0 0.8-0.1 0.3-0.1 0.4-0.3 0.6-0.5 0.1-0.2 0.2-0.5 0.2-0.8s-0.1-0.6-0.2-0.8-0.3-0.4-0.5-0.5-0.5-0.1-1-0.1h-1.5v2.8z"/><polygon points="113.9 51.1 113.9 42.9 118.8 42.9 118.8 43.9 114.8 43.9 114.8 46.4 118.5 46.4 118.5 47.3 114.8 47.3 114.8 50.1 118.9 50.1 118.9 51.1"/><polygon points="120.8 51.1 120.8 42.9 121.7 42.9 125.2 49.3 125.2 42.9 126.1 42.9 126.1 51.1 125.2 51.1 121.7 44.7 121.7 51.1"/><polygon points="128.3 51.1 128.3 42.9 133.1 42.9 133.1 43.9 129.2 43.9 129.2 46.4 132.9 46.4 132.9 47.3 129.2 47.3 129.2 50.1 133.3 50.1 133.3 51.1"/><polygon points="135.3 51.1 135.3 42.9 139.8 42.9 139.8 43.9 136.1 43.9 136.1 46.4 139.3 46.4 139.3 47.4 136.1 47.4 136.1 51.1"/><rect x="141.8" y="42.9" width=".9" height="8.2"/><polygon points="146.6 51.1 146.6 43.9 144.4 43.9 144.4 42.9 149.7 42.9 149.7 43.9 147.5 43.9 147.5 51.1"/><path d="m151 48.5l0.8-0.1c0 0.4 0.1 0.8 0.3 1s0.4 0.5 0.7 0.6c0.3 0.2 0.6 0.2 1 0.2 0.5 0 0.9-0.1 1.2-0.4s0.4-0.6 0.4-1c0-0.2-0.1-0.5-0.2-0.6-0.1-0.2-0.3-0.3-0.5-0.4s-0.7-0.3-1.4-0.5c-0.6-0.2-1.1-0.4-1.3-0.6-0.3-0.2-0.5-0.4-0.6-0.7s-0.2-0.6-0.2-1c0-0.7 0.2-1.2 0.6-1.6s1-0.6 1.7-0.6c0.5 0 0.9 0.1 1.3 0.3s0.7 0.5 0.9 0.8c0.2 0.4 0.3 0.8 0.3 1.3l-0.9 0.1c0-0.5-0.2-0.9-0.5-1.2s-0.7-0.4-1.1-0.4c-0.5 0-0.9 0.1-1.1 0.3-0.3 0.2-0.4 0.5-0.4 0.9 0 0.3 0.1 0.6 0.3 0.8s0.6 0.4 1.3 0.6 1.1 0.3 1.4 0.5c0.4 0.2 0.7 0.5 0.9 0.8s0.3 0.7 0.3 1.2-0.1 0.9-0.3 1.3-0.5 0.7-0.9 0.9-0.8 0.3-1.4 0.3c-0.8 0-1.5-0.2-2-0.7-0.4-0.6-0.6-1.3-0.6-2.1"/><path d="m161.5 51.1v-8.2h3c0.6 0 1.1 0.1 1.4 0.2 0.3 0.2 0.5 0.4 0.7 0.8s0.3 0.8 0.3 1.2c0 0.6-0.2 1.1-0.5 1.5s-0.8 0.6-1.4 0.7c0.2 0.1 0.4 0.3 0.6 0.5 0.3 0.3 0.5 0.7 0.7 1l1.2 2.2h-1.1l-0.9-1.7c-0.3-0.7-0.6-1.1-0.8-1.3s-0.3-0.4-0.5-0.5-0.4-0.1-0.7-0.1h-1v3.6h-1zm0.8-4.6h1.9c0.4 0 0.7-0.1 0.9-0.2s0.4-0.3 0.5-0.5 0.2-0.5 0.2-0.8c0-0.4-0.1-0.7-0.4-1-0.2-0.2-0.6-0.4-1.1-0.4h-2.1v2.9z"/><polygon points="168.9 51.1 168.9 42.9 173.7 42.9 173.7 43.9 169.8 43.9 169.8 46.4 173.5 46.4 173.5 47.3 169.8 47.3 169.8 50.1 173.9 50.1 173.9 51.1"/><rect x="176" y="42.9" width=".9" height="8.2"/><polygon points="179.1 51.1 179.1 42.9 180 42.9 183.5 49.3 183.5 42.9 184.3 42.9 184.3 51.1 183.4 51.1 179.9 44.7 179.9 51.1"/><path d="m188.4 51.1l-2.6-8.2h1l1.7 5.9c0.1 0.5 0.3 0.9 0.4 1.3 0.1-0.4 0.2-0.9 0.4-1.3l1.8-5.9h0.9l-2.6 8.2h-1z"/><polygon points="193.4 51.1 193.4 42.9 198.3 42.9 198.3 43.9 194.3 43.9 194.3 46.4 198 46.4 198 47.3 194.3 47.3 194.3 50.1 198.4 50.1 198.4 51.1"/><polygon points="200.3 51.1 200.3 42.9 201.2 42.9 204.7 49.3 204.7 42.9 205.6 42.9 205.6 51.1 204.7 51.1 201.2 44.7 201.2 51.1"/><polygon points="209.5 51.1 209.5 43.9 207.3 43.9 207.3 42.9 212.6 42.9 212.6 43.9 210.4 43.9 210.4 51.1"/><polygon points="214.2 51.1 214.2 42.9 219 42.9 219 43.9 215.1 43.9 215.1 46.4 218.8 46.4 218.8 47.3 215.1 47.3 215.1 50.1 219.2 50.1 219.2 51.1"/><path d="m221.1 51.1v-8.2h2.3c0.6 0 1 0 1.3 0.1 0.4 0.1 0.7 0.4 1 0.7s0.5 0.8 0.7 1.3 0.2 1.1 0.2 1.9c0 0.9-0.1 1.7-0.4 2.4-0.3 0.6-0.6 1.1-1 1.4s-1 0.4-1.7 0.4h-2.4zm0.8-1h1.4c0.6 0 1-0.1 1.3-0.3s0.5-0.5 0.7-0.9c0.2-0.6 0.3-1.2 0.3-2s-0.1-1.5-0.3-1.9c-0.2-0.5-0.5-0.8-0.9-1-0.2-0.1-0.6-0.2-1.1-0.2h-1.4v6.3z"/><path d="m227.9 45.1h-0.4v-2h-0.7v-0.3h1.8v0.3h-0.7v2zm3.4 0h-0.3v-1.8l-0.7 1.8h-0.3l-0.7-1.8v1.8h-0.3v-2.3h0.5l0.7 1.8 0.7-1.8h0.5v2.3z"/><path class="st0" d="m46.7 33h5c0.4 0 0.7-0.3 0.7-0.7v-19.9l15.3 19.9c0.4 0.6 0.7 0.7 1.3 0.7h4.7c0.4 0 0.7-0.3 0.7-0.7v-30.4c0-0.4-0.3-0.7-0.7-0.7h-5c-0.4 0-0.7 0.3-0.7 0.7v19.9l-15.4-19.8c-0.4-0.6-0.7-0.7-1.3-0.7h-4.7c-0.4 0-0.7 0.3-0.7 0.7v30.4c0.1 0.3 0.4 0.6 0.8 0.6"/><path class="st0" d="m125 32.4l11.8-30.2c0.2-0.6 0-1-0.6-1h-5.6c-0.7 0-1 0.2-1.2 0.8l-8.3 22.7h-0.1l-8-22.7c-0.2-0.6-0.6-0.8-1.2-0.8h-5.6c-0.6 0-0.8 0.4-0.6 1l11.6 30.2c0.2 0.5 0.5 0.7 1.1 0.7h5.6c0.6 0 0.9-0.2 1.1-0.7"/><path class="st0" d="m139.9 32.9h5.3c0.4 0 0.7-0.3 0.7-0.7v-30.4c0-0.4-0.3-0.7-0.7-0.7h-5.3c-0.4 0-0.7 0.3-0.7 0.7v30.4c-0.1 0.4 0.3 0.7 0.7 0.7"/><path class="st0" d="m148.5 7.1h7.6v25.1c0 0.4 0.3 0.7 0.7 0.7h5.3c0.4 0 0.7-0.3 0.7-0.7v-25.1h7.6c0.4 0 0.7-0.3 0.7-0.7v-4.6c0-0.4-0.3-0.7-0.7-0.7h-21.9c-0.4 0-0.7 0.3-0.7 0.7v4.6c0 0.4 0.4 0.7 0.7 0.7"/><path class="st0" d="m176.2 29.1c2.3 2.7 6.1 4.2 10.8 4.2 4.8 0 8.5-1.5 10.9-4.2 1.9-2.2 2.9-5.2 2.9-8.8v-18.5c0-0.4-0.3-0.7-0.7-0.7h-5.3c-0.4 0-0.7 0.3-0.7 0.7v17.7c0 2.4-0.5 4.2-1.5 5.5-1.3 1.6-3.2 2.2-5.6 2.2-2.3 0-4.1-0.6-5.5-2.2-1.1-1.3-1.6-3.1-1.6-5.5v-17.7c0-0.4-0.3-0.7-0.7-0.7h-5.3c-0.4 0-0.7 0.3-0.7 0.7v18.5c0.1 3.7 1.1 6.6 3 8.8"/><path class="st0" d="m217.2 33.4c3.5 0 6.5-0.9 8.7-2.7 2.2-1.7 3.5-4.2 3.5-7.3 0-3.5-1.5-5.7-3.6-7.1-2.7-1.9-6.1-2.5-8.9-3.4-2.4-0.8-4.1-1.7-4.1-3.4 0-0.8 0.4-1.6 1.2-2.1s1.9-0.8 3.5-0.8c3 0 5.6 1.1 7.8 2.2 0.4 0.2 0.7 0.1 0.9-0.2l2.1-4.5c0.2-0.3 0.1-0.7-0.3-0.9-2.1-1.1-5.3-2.4-10.2-2.4-3.8 0-6.8 0.9-8.8 2.4-2.2 1.6-3.3 4-3.3 6.7 0 3.7 1.7 5.7 4 7.2 2.7 1.7 5.9 2.3 8.4 3.2 2.3 0.8 4 1.8 4 3.7 0 0.9-0.3 2-1.4 2.7-0.7 0.6-2 0.9-3.6 0.9-3.7 0-6.4-1.5-8.5-2.9-0.4-0.2-0.7-0.1-0.9 0.3l-2.1 4.5c-0.2 0.4 0 0.7 0.3 0.9 2.3 1.4 6.1 3 11.3 3"/><path class="st0" d="m99.1 26l2.2 6.2c0.2 0.6 0.6 0.8 1.2 0.8h5.6c0.6 0 0.8-0.4 0.6-1l-11.6-30.1c-0.2-0.5-0.5-0.7-1.1-0.7h-5.6c-0.6 0-0.9 0.2-1.1 0.7l-11.7 30.1c-0.2 0.6 0 1 0.6 1h5.6c0.6 0 1-0.2 1.2-0.8l2.3-6.2h11.8zm-5.9-16.4l3.5 9.7h-7.1l3.6-9.7z"/><path class="st1" d="m0.1 0l-0.1 0.1v12.1c0 0.1 0.1 0.1 0.1 0.1l23.1 3c0.1 0 0.1 0 0 0l-23.1 3.1c-0.1 0-0.1 0.1-0.1 0.1v33c0 0.1 0.1 0.1 0.1 0.1h35.5c0.1 0 0.1-0.1 0.1-0.1v-51.4c0-0.1-0.1-0.1-0.1-0.1h-35.5z"/><polygon class="st2" points="25.1 20.4 24.3 20.4 24.2 17.5 25.2 17.5"/><polygon class="st2" points="26.6 20.4 25.8 20.4 25.7 17.5 26.7 17.5"/><polygon class="st2" points="28.1 20.4 27.3 20.4 27.2 17.5 28.2 17.5"/><path class="st2" d="m24.3 14.5c-0.1 0-0.2 0.1-0.2 0.2v1.1c0 0.1 0.1 0.2 0.2 0.2h0.2c0.1 0 0.2-0.1 0.2-0.2v-0.7h0.4c0.1 0 0.2-0.1 0.2-0.2v-0.2c0-0.1-0.1-0.2-0.2-0.2h-0.8z"/><path class="st2" d="m25.8 26.9h-1.3c-0.2 0-0.3 0.1-0.3 0.3v2.3c0 0.2 0.1 0.3 0.3 0.3h0.3c0.2 0 0.3-0.1 0.3-0.3v-1.7c0-0.1 0.1-0.1 0.1-0.1h0.6c0.2 0 0.3-0.1 0.3-0.3v-0.2c0-0.2-0.1-0.3-0.3-0.3"/><path class="st2" d="m27.7 12.9c0.1 0 0.3-0.1 0.2-0.2l-1.5-2.4c-0.1-0.1-0.1-0.1-0.2-0.1h-1.7c-0.2 0-0.3 0-0.3 0.2s0.1 0.3 0.3 0.3l1.2 0.1 0.8 1.4h-1.1c-0.1 0-0.3 0.1-0.3 0.3v0.1c0 0.1 0.1 0.3 0.3 0.3h1.1l0.2 3.3c0 0.1 0.1 0.2 0.2 0.2h0.7c0.1 0 0.2-0.1 0.2-0.2l-0.4-3.3h0.3z"/><path class="st2" d="m32.4 47h-12.6c-0.2 0-0.3 0.2-0.3 0.4v0.7c0 0.2 0.1 0.4 0.3 0.4h12.6c0.2 0 0.3-0.2 0.3-0.4v-0.7c0-0.2-0.1-0.4-0.3-0.4"/><path class="st2" d="m28.7 21.4h-4.8l-0.1 0.2c0 0.1-0.1 0.3 0.1 0.4 0.1 0.1 0.2 0.2 0.3 0.2h0.4c0.7 0 1.9 0.1 2.3 0.7 0.2 0.4 0.6 4.8 1 10.4 0.4 5.9 0.7 10.3 0.5 10.8-0.2 0.8-1.6 0.9-3.5 1-1.7 0.1-3.5 0-3.5 0h-0.1c-0.1 0-0.2 0.1-0.2 0.2v0.8h9.5c0.1 0 0.3-0.1 0.3-0.2l-2.2-24.5z"/></svg>