<?xml version="1.0" encoding="UTF-8" standalone="no"?>
<!DOCTYPE svg PUBLIC "-//W3C//DTD SVG 1.1//EN" "http://www.w3.org/Graphics/SVG/1.1/DTD/svg11.dtd">
<svg width="100%" height="100%" viewBox="0 0 282 76" version="1.1" xmlns="http://www.w3.org/2000/svg" xmlns:xlink="http://www.w3.org/1999/xlink" xml:space="preserve" xmlns:serif="http://www.serif.com/" style="fill-rule:evenodd;clip-rule:evenodd;stroke-linejoin:round;stroke-miterlimit:2;">
    <g id="Artboard1" transform="matrix(1.05006,0,0,1.18559,0,0)">
        <rect x="0" y="0" width="268" height="64" style="fill:none;"/>
        <g transform="matrix(0.952324,0,0,0.843463,0,0)">
            <path d="M44.582,16.361C49.115,16.391 48.086,20.476 46.777,21.967C46.777,21.967 47.931,22.221 49.563,21.19C52.167,19.545 53.557,25.968 49.925,27.407C48.159,28.107 48.457,29.509 48.457,29.509C48.457,29.509 49.905,29.953 52.677,27.597C55.794,24.949 56.577,32.729 53.121,35.29C49.38,38.062 49.611,36.898 49.381,39.44C50.27,40.27 52.165,37.831 53.933,38.491C55.055,38.91 55.205,42.661 54.109,43.552C53.013,44.442 52.327,44.374 49.998,45.539C47.668,46.704 45.681,49.856 45.681,49.856L45.681,56.297L43.571,56.297L43.571,49.856C43.571,49.856 41.584,46.704 39.254,45.539C36.925,44.374 36.239,44.442 35.143,43.552C34.047,42.661 34.197,38.91 35.319,38.491C37.087,37.831 38.982,40.27 39.871,39.44C39.641,36.898 39.872,38.062 36.131,35.29C32.675,32.729 33.458,24.949 36.575,27.597C39.347,29.953 40.795,29.509 40.795,29.509C40.795,29.509 41.093,28.107 39.327,27.407C35.695,25.968 37.085,19.545 39.689,21.19C41.321,22.221 42.475,21.967 42.475,21.967C41.342,20.476 40.094,16.331 44.582,16.361Z" style="fill:rgb(92,135,60);"/>
        </g>
        <g id="OG" transform="matrix(0.952324,0,0,0.843463,0,0)">
            <path d="M44.696,7.125C47.961,5.902 51.5,5.233 55.196,5.233C69.162,5.233 80.889,14.788 84.05,27.639L77.658,27.639C74.664,18.189 65.734,11.325 55.196,11.325C54.282,11.325 53.381,11.377 52.496,11.477C59.219,16.69 63.615,24.705 63.877,33.737L78.713,33.737L78.712,33.72L84.877,33.72C84.885,34.011 84.89,34.301 84.89,34.593C84.89,50.797 71.584,63.953 55.196,63.953C51.5,63.953 47.961,63.284 44.696,62.061C41.43,63.284 37.891,63.953 34.196,63.953C17.807,63.953 4.501,50.797 4.501,34.593C4.501,18.389 17.807,5.233 34.196,5.233C37.891,5.233 41.43,5.902 44.696,7.125ZM36.895,11.477C29.96,16.854 25.501,25.213 25.501,34.593C25.501,43.973 29.96,52.332 36.895,57.709C36.01,57.809 35.109,57.861 34.196,57.861C21.207,57.861 10.663,47.435 10.663,34.593C10.663,21.751 21.207,11.325 34.196,11.325C35.109,11.325 36.01,11.377 36.895,11.477ZM63.497,39.374L78.23,39.374C75.998,49.926 66.526,57.861 55.196,57.861C54.282,57.861 53.381,57.809 52.496,57.709C58.226,53.266 62.267,46.786 63.497,39.374ZM44.696,13.768C52.419,17.584 57.728,25.48 57.728,34.593C57.728,43.706 52.419,51.602 44.696,55.418C36.972,51.602 31.663,43.706 31.663,34.593C31.663,25.48 36.972,17.584 44.696,13.768Z"/>
        </g>
        <g transform="matrix(0.894475,0,0,0.843463,3.59622,-0.352759)">
            <text x="98.408px" y="32.686px" style="font-family:'Arial-BoldMT', 'Arial', sans-serif;font-weight:700;font-size:37.367px;">Oak Grove</text>
        </g>
        <g transform="matrix(0.952324,0,0,0.843463,0,0)">
            <text x="97.781px" y="64.053px" style="font-family:'ArialNarrow', 'Arial', sans-serif;font-stretch:condensed;font-size:33.28px;">T<tspan x="112.929px 129.604px 144.752px 161.427px 178.102px 194.777px 202.336px 219.012px 235.687px 243.246px 259.921px " y="64.053px 64.053px 64.053px 64.053px 64.053px 64.053px 64.053px 64.053px 64.053px 64.053px 64.053px ">echnologies</tspan></text>
        </g>
    </g>
</svg>
