<?xml version="1.0" encoding="UTF-8" standalone="no"?>
<!DOCTYPE svg PUBLIC "-//W3C//DTD SVG 1.1//EN" "http://www.w3.org/Graphics/SVG/1.1/DTD/svg11.dtd">
<svg width="100%" height="100%" viewBox="0 0 215 55" version="1.1" xmlns="http://www.w3.org/2000/svg" xmlns:xlink="http://www.w3.org/1999/xlink" xml:space="preserve" xmlns:serif="http://www.serif.com/" style="fill-rule:evenodd;clip-rule:evenodd;stroke-linejoin:round;stroke-miterlimit:2;">
    <g transform="matrix(1.00101,0,0,1,-0.00528021,0)">
        <rect x="5.233" y="8.927" width="195.716" height="40.881" style="fill:rgb(187,45,48);"/>
    </g>
    <path d="M125.539,14.296L139.678,14.296C140.561,14.296 141.407,14.647 142.031,15.271C142.655,15.895 143.006,16.742 143.006,17.624C143.006,22.17 143.006,30.186 143.006,33.957C143.006,35.101 143.934,36.029 145.078,36.029C147.75,36.029 152.37,36.029 155.042,36.029C156.186,36.029 157.114,35.101 157.114,33.957C157.114,30.186 157.114,22.17 157.114,17.624C157.114,15.786 158.604,14.296 160.442,14.296C160.488,14.296 160.535,14.296 160.581,14.296C162.419,14.296 163.909,15.786 163.909,17.624L163.909,39.964C163.909,41.008 163.494,42.009 162.756,42.747C162.018,43.486 161.016,43.9 159.972,43.9L140.018,43.9C138.974,43.9 137.973,43.486 137.235,42.747C136.496,42.009 136.082,41.008 136.082,39.964L136.082,24.273C136.082,23.67 135.842,23.091 135.415,22.664C134.988,22.237 134.409,21.997 133.805,21.997C131.422,21.997 128.022,21.997 128.022,21.997C127.398,21.997 126.804,22.266 126.392,22.735L120.556,29.385L125.921,35.525C126.332,35.997 126.928,36.267 127.554,36.267C128.278,36.267 129.314,36.267 130.352,36.267C131.369,36.267 132.344,36.671 133.064,37.39C133.783,38.109 134.187,39.084 134.187,40.101C134.187,40.112 134.187,40.123 134.187,40.134C134.187,41.151 133.783,42.126 133.064,42.845C132.344,43.564 131.369,43.968 130.352,43.968C128.577,43.968 126.556,43.968 125.152,43.968C124.038,43.968 122.978,43.488 122.243,42.651L115.578,35.057L108.913,42.651C108.178,43.488 107.118,43.968 106.004,43.968C106.004,43.968 90.759,43.968 80.726,43.968C75.293,43.968 70.889,39.596 70.889,34.164C70.889,30.939 70.889,27.357 70.889,24.133C70.889,21.524 71.925,19.022 73.77,17.177C75.615,15.333 78.117,14.296 80.726,14.296C84.344,14.296 88.233,14.296 91.014,14.296C93.141,14.296 94.864,16.02 94.864,18.146C94.864,18.147 94.864,18.147 94.864,18.147C94.864,19.168 94.459,20.148 93.737,20.87C93.015,21.592 92.035,21.997 91.014,21.997C88.065,21.997 84.045,21.997 81.272,21.997C79.504,21.997 78.071,23.429 78.069,25.197C78.066,27.539 78.062,30.705 78.059,33.049C78.058,33.899 78.395,34.715 78.996,35.317C79.597,35.918 80.412,36.256 81.263,36.256L103.816,36.256C104.362,36.202 104.871,35.942 105.235,35.525L110.599,29.385L104.763,22.735C104.352,22.266 103.758,21.997 103.134,21.997C102.514,21.997 101.669,21.997 100.803,21.997C98.686,21.997 96.969,20.281 96.969,18.163C96.969,18.152 96.969,18.141 96.969,18.131C96.969,17.114 97.373,16.138 98.092,15.419C98.811,14.7 99.787,14.296 100.803,14.296C102.454,14.296 104.302,14.296 105.617,14.296C106.734,14.296 107.797,14.779 108.532,15.62L115.578,23.686L122.624,15.62C123.359,14.779 124.421,14.296 125.539,14.296Z" style="fill:white;"/>
    <path d="M95.028,29.569C95.028,27.64 93.462,26.074 91.533,26.074L83.444,26.074C81.515,26.074 79.949,27.64 79.949,29.569C79.949,31.498 81.515,33.064 83.444,33.064L91.533,33.064C93.462,33.064 95.028,31.498 95.028,29.569Z" style="fill:white;"/>
    <path d="M12.034,24.924C12.016,25.064 12.008,25.207 12.008,25.351L12.008,40.645C12.008,42.564 13.565,44.121 15.484,44.121C17.402,44.121 18.959,42.564 18.959,40.645L18.959,33.4L18.995,33.41L18.995,25.394C18.995,24.436 19.375,23.518 20.052,22.841C20.729,22.164 21.648,21.783 22.605,21.783C25.853,21.783 30.546,21.783 33.442,21.783C34.134,21.783 34.797,22.058 35.286,22.547C35.776,23.036 36.05,23.7 36.05,24.391C36.05,24.393 36.05,24.394 36.05,24.395C36.05,25.835 34.883,27.003 33.442,27.003C30.772,27.003 26.631,27.003 23.859,27.003C23.092,27.003 22.358,27.31 21.819,27.855C21.28,28.399 20.981,29.137 20.99,29.904C20.994,30.313 20.999,30.734 21.003,31.142C21.02,32.68 22.247,33.932 23.785,33.978C27.129,33.978 32.327,33.973 32.327,33.973C37.594,33.973 41.837,29.481 41.837,24.214C41.837,18.947 37.561,14.671 32.294,14.671L21.551,14.671C16.284,14.671 12.008,18.947 12.008,24.214C12.008,24.453 12.016,24.689 12.034,24.924Z" style="fill:rgb(235,235,235);"/>
    <path d="M55.228,36.946C54.37,36.946 53.547,36.606 52.94,35.999C52.333,35.392 51.992,34.569 51.992,33.711C51.992,29.601 51.992,22.537 51.992,18.308C51.992,17.381 51.624,16.493 50.969,15.837C50.314,15.182 49.425,14.814 48.498,14.814C48.498,14.814 48.497,14.814 48.497,14.814C46.567,14.814 45.003,16.378 45.003,18.308C45.003,22.476 45.003,29.597 45.003,35.296C45.003,37.622 45.927,39.852 47.571,41.497C49.216,43.141 51.446,44.065 53.772,44.065C58.152,44.065 63.204,44.065 66.488,44.065C67.415,44.065 68.304,43.697 68.959,43.042C69.615,42.386 69.983,41.497 69.983,40.571C69.983,40.527 69.983,40.484 69.983,40.441C69.983,39.514 69.615,38.625 68.959,37.97C68.304,37.315 67.415,36.946 66.488,36.946C63.228,36.946 58.402,36.946 55.228,36.946Z" style="fill:white;"/>
    <path d="M166.043,19.537C166.043,21.146 166.783,22.665 168.049,23.656C171.662,26.485 179.182,32.373 182.394,34.888C182.616,35.062 182.703,35.357 182.611,35.624C182.52,35.89 182.269,36.069 181.987,36.069C179.102,36.069 173.581,36.069 169.855,36.069C168.844,36.069 167.874,36.47 167.159,37.185C166.445,37.9 166.043,38.87 166.043,39.881L166.043,40.062C166.043,41.073 166.445,42.042 167.159,42.757C167.874,43.472 168.844,43.873 169.855,43.873C175.199,43.873 184.865,43.873 190.224,43.873C192.345,43.873 194.064,42.154 194.064,40.033C194.064,39.53 194.064,39.026 194.064,38.553C194.064,36.981 193.358,35.492 192.139,34.499C188.668,31.668 181.434,25.768 178.355,23.258C178.138,23.081 178.056,22.787 178.15,22.524C178.244,22.261 178.493,22.085 178.772,22.085C181.508,22.085 186.686,22.085 190.253,22.085C191.264,22.085 192.233,21.684 192.948,20.969C193.663,20.254 194.064,19.284 194.064,18.273L194.064,18.258C194.064,17.247 193.663,16.278 192.948,15.563C192.233,14.848 191.264,14.446 190.253,14.446C184.908,14.446 175.243,14.446 169.883,14.446C167.762,14.446 166.043,16.166 166.043,18.286C166.043,18.711 166.043,19.134 166.043,19.537Z" style="fill:white;"/>
    <path d="M208.523,42.754C210.612,42.754 212.309,44.45 212.309,46.539C212.309,48.629 210.612,50.325 208.523,50.325C206.433,50.325 204.737,48.629 204.737,46.539C204.737,44.45 206.433,42.754 208.523,42.754ZM208.523,43.66C210.112,43.66 211.403,44.95 211.403,46.539C211.403,48.129 210.112,49.419 208.523,49.419C206.933,49.419 205.643,48.129 205.643,46.539C205.643,44.95 206.933,43.66 208.523,43.66Z"/>
    <g transform="matrix(1.21174,0,0,1.21174,-43.8184,-0.437485)">
        <text x="206.517px" y="40.521px" style="font-family:'ArialMT', 'Arial', sans-serif;font-size:4.969px;">R</text>
    </g>
</svg>
