<?xml version="1.0" encoding="UTF-8" standalone="no"?>
<!DOCTYPE svg PUBLIC "-//W3C//DTD SVG 1.1//EN" "http://www.w3.org/Graphics/SVG/1.1/DTD/svg11.dtd">
<svg width="100%" height="100%" viewBox="0 0 94 94" version="1.1" xmlns="http://www.w3.org/2000/svg" xmlns:xlink="http://www.w3.org/1999/xlink" xml:space="preserve" xmlns:serif="http://www.serif.com/" style="fill-rule:evenodd;clip-rule:evenodd;stroke-linejoin:round;stroke-miterlimit:2;">
    <g transform="matrix(1,0,0,1,-150.022,-0.666515)">
        <g id="PMI" transform="matrix(0.228544,0,0,0.361538,150.022,0.666515)">
            <rect x="0" y="0" width="411.3" height="260" style="fill:none;"/>
            <g id="Fill-1" transform="matrix(5.36838,0,0,3.39358,36.5459,18.0118)">
                <path d="M22.493,49.002C22.49,44.861 25.846,41.501 29.988,41.499L30,41.499L30,34L0,34L0,41.499C4.142,41.499 7.499,44.856 7.499,48.998L7.499,49.002C7.499,53.144 4.142,56.501 0,56.501L0,64L30,64L30,56.501C25.858,56.506 22.497,53.152 22.493,49.011L22.493,49.002Z" style="fill:rgb(5,191,224);"/>
            </g>
            <g id="Fill-3" transform="matrix(5.36838,0,0,3.39358,36.5459,18.0118)">
                <path d="M47,16.996C46.998,8.713 40.283,2 32,2L32,32C40.283,32 46.998,25.287 47,17.004C47.002,25.287 53.717,32 62,32L62,2C53.717,2 47.002,8.713 47,16.996" style="fill:rgb(255,97,15);"/>
            </g>
            <g id="Fill-5" transform="matrix(5.36838,0,0,3.39358,36.5459,18.0118)">
                <path d="M19.674,17L5.639,17L5.639,7.638L19.674,7.638C22.258,7.638 24.353,9.734 24.353,12.319C24.353,14.904 22.258,17 19.674,17ZM20.61,2.047C20.299,2.017 19.989,2 19.674,2L0,2L0,32L5.618,32L5.618,22.638L19.674,22.638C19.989,22.638 20.299,22.638 20.61,22.591C26.277,22.088 30.462,17.083 29.959,11.414C29.517,6.442 25.579,2.501 20.61,2.06L20.61,2.047Z" style="fill:rgb(35,31,32);"/>
            </g>
            <g id="Fill-7" transform="matrix(5.36838,0,0,3.39358,36.5459,18.0118)">
                <path d="M32,64L32,55L41,64L32,64Z" style="fill:rgb(79,23,168);"/>
            </g>
            <g id="Fill-9" transform="matrix(5.36838,0,0,3.39358,36.5459,18.0118)">
                <path d="M49.621,64L33,47.376L33,39L58,64L49.621,64Z" style="fill:rgb(79,23,168);"/>
            </g>
            <g id="Fill-11" transform="matrix(5.36838,0,0,3.39358,36.5459,18.0118)">
                <path d="M63,34L63,43L54,34L63,34Z" style="fill:rgb(79,23,168);"/>
            </g>
            <g id="Fill-13" transform="matrix(5.36838,0,0,3.39358,36.5459,18.0118)">
                <path d="M62,59L37,34L45.405,34L62,50.593L62,59Z" style="fill:rgb(79,23,168);"/>
            </g>
            <g id="Fill-15" transform="matrix(5.36838,0,0,3.39358,5.91721,18.0118)">
                <path d="M65.716,62L66.146,62L66.864,63.615L67.57,62L68,62L68,64L67.686,64L67.686,62.436L66.998,64L66.701,64L66.017,62.436L66.017,64L65.699,64L65.716,62ZM64.598,62.282L64,62.282L64,62L65.51,62L65.51,62.282L64.916,62.282L64.916,63.991L64.598,63.991L64.598,62.282Z"/>
            </g>
        </g>
    </g>
</svg>
