<?xml version="1.0" encoding="UTF-8" standalone="no"?>
<!DOCTYPE svg PUBLIC "-//W3C//DTD SVG 1.1//EN" "http://www.w3.org/Graphics/SVG/1.1/DTD/svg11.dtd">
<svg width="100%" height="100%" viewBox="0 0 280 95" version="1.1" xmlns="http://www.w3.org/2000/svg" xmlns:xlink="http://www.w3.org/1999/xlink" xml:space="preserve" xmlns:serif="http://www.serif.com/" style="fill-rule:evenodd;clip-rule:evenodd;stroke-linejoin:round;stroke-miterlimit:2;">
    <g transform="matrix(1,0,0,1,-150.022,-0.666515)">
        <g id="PMI" transform="matrix(0.678549,0,0,0.36207,150.022,0.666515)">
            <rect x="0" y="0" width="411.3" height="260" style="fill:none;"/>
            <g id="Logo" transform="matrix(1.80814,0,0,3.3886,13.3484,16.1611)">
                <path id="Fill-1" d="M22.493,49.002C22.49,44.861 25.846,41.501 29.988,41.499L30,41.499L30,34L0,34L0,41.499C4.142,41.499 7.499,44.856 7.499,48.998L7.499,49.002C7.499,53.144 4.142,56.501 0,56.501L0,64L30,64L30,56.501C25.858,56.506 22.497,53.152 22.493,49.011L22.493,49.002Z" style="fill:rgb(5,191,224);"/>
                <path id="Fill-3" d="M47,16.996C46.998,8.713 40.283,2 32,2L32,32C40.283,32 46.998,25.287 47,17.004C47.002,25.287 53.717,32 62,32L62,2C53.717,2 47.002,8.713 47,16.996" style="fill:rgb(255,97,15);"/>
                <path id="Fill-5" d="M19.674,17L5.639,17L5.639,7.638L19.674,7.638C22.258,7.638 24.353,9.734 24.353,12.319C24.353,14.904 22.258,17 19.674,17ZM20.61,2.047C20.299,2.017 19.989,2 19.674,2L0,2L0,32L5.618,32L5.618,22.638L19.674,22.638C19.989,22.638 20.299,22.638 20.61,22.591C26.277,22.088 30.462,17.083 29.959,11.414C29.517,6.442 25.579,2.501 20.61,2.06L20.61,2.047Z" style="fill:rgb(35,31,32);"/>
                <path id="Fill-7" d="M32,64L32,55L41,64L32,64Z" style="fill:rgb(79,23,168);"/>
                <path id="Fill-9" d="M49.621,64L33,47.376L33,39L58,64L49.621,64Z" style="fill:rgb(79,23,168);"/>
                <path id="Fill-11" d="M63,34L63,43L54,34L63,34Z" style="fill:rgb(79,23,168);"/>
                <path id="Fill-13" d="M62,59L37,34L45.405,34L62,50.593L62,59Z" style="fill:rgb(79,23,168);"/>
                <path id="Fill-15" d="M65.716,62L66.146,62L66.864,63.615L67.57,62L68,62L68,64L67.686,64L67.686,62.436L66.998,64L66.701,64L66.017,62.436L66.017,64L65.699,64L65.716,62ZM64.598,62.282L64,62.282L64,62L65.51,62L65.51,62.282L64.916,62.282L64.916,63.991L64.598,63.991L64.598,62.282Z"/>
                <path id="Fill-17" d="M84.497,8.734C85.011,8.742 85.522,8.634 85.994,8.419C86.41,8.227 86.77,7.923 87.035,7.536C87.282,7.172 87.412,6.735 87.407,6.289C87.415,5.835 87.288,5.39 87.043,5.015C86.782,4.634 86.427,4.335 86.015,4.151C85.536,3.933 85.019,3.826 84.497,3.835L81.561,3.835L81.561,8.716L84.497,8.734ZM78.004,1L85.093,1C86.07,1 87.036,1.21 87.931,1.617C88.81,2.005 89.577,2.629 90.152,3.427C90.732,4.262 91.029,5.275 90.998,6.307C91.009,7.269 90.744,8.212 90.237,9.013C89.71,9.834 88.978,10.487 88.122,10.899C87.16,11.37 86.108,11.605 85.047,11.587L81.557,11.587L81.557,17L78,17L78.004,1Z"/>
                <path id="Fill-19" d="M93,5.334L95.618,5.334L96.122,7.045C96.381,6.424 96.832,5.893 97.414,5.523C97.994,5.171 98.669,4.989 99.356,5.001C99.983,4.989 100.601,5.149 101.135,5.462C101.664,5.783 102.098,6.227 102.397,6.753C102.737,7.345 102.942,7.998 103,8.67L100.226,9.398C100.217,8.87 100.009,8.364 99.641,7.971C99.317,7.611 98.846,7.403 98.349,7.399C97.963,7.395 97.588,7.52 97.29,7.752C96.957,8.013 96.704,8.354 96.557,8.74C96.379,9.196 96.292,9.68 96.299,10.167L96.299,16L93.004,16L93,5.334Z"/>
                <path id="Fill-21" d="M111.492,13.037C111.923,12.791 112.273,12.434 112.503,12.007C112.748,11.54 112.871,11.024 112.861,10.502C112.871,9.979 112.748,9.461 112.503,8.993C112.272,8.566 111.922,8.208 111.492,7.959C111.051,7.709 110.547,7.579 110.035,7.584C109.523,7.578 109.019,7.708 108.579,7.959C108.153,8.207 107.808,8.564 107.58,8.989C107.333,9.456 107.208,9.974 107.218,10.498C107.208,11.021 107.332,11.538 107.58,12.003C107.805,12.43 108.152,12.787 108.579,13.033C109.021,13.287 109.529,13.417 110.044,13.408C110.553,13.414 111.054,13.286 111.492,13.037ZM106.915,15.312C106.032,14.876 105.297,14.207 104.796,13.384C104.265,12.51 103.989,11.514 104.001,10.502C103.978,9.493 104.24,8.497 104.759,7.62C105.269,6.79 106.018,6.12 106.915,5.688C108.885,4.771 111.186,4.771 113.156,5.688C114.027,6.13 114.748,6.8 115.237,7.62C115.758,8.497 116.021,9.493 115.999,10.502C116.021,11.511 115.758,12.507 115.237,13.384C114.738,14.208 114.002,14.877 113.119,15.312C111.148,16.229 108.848,16.229 106.877,15.312L106.915,15.312Z"/>
                <g id="Group-25" transform="matrix(1,0,0,1,112,0)">
                    <path id="Fill-23" d="M5.444,3.6C5.073,3.244 4.873,2.749 4.892,2.239C4.868,1.731 5.064,1.238 5.432,0.881C6.237,0.19 7.436,0.19 8.241,0.881C8.605,1.233 8.802,1.719 8.785,2.222C8.806,2.731 8.608,3.225 8.241,3.583C7.436,4.274 6.237,4.274 5.432,3.583L5.444,3.6ZM1.855,21.358C1.24,21.09 0.709,20.664 0.317,20.123L1.77,18.242C1.946,18.589 2.216,18.882 2.549,19.087C2.861,19.281 3.221,19.385 3.59,19.388C4.203,19.402 4.763,19.044 5.003,18.487C5.136,18.183 5.202,17.854 5.196,17.523L5.196,5.583L8.451,5.583L8.451,18.005C8.48,19.425 7.66,20.73 6.357,21.332C5.65,21.665 4.874,21.83 4.091,21.815C3.321,21.826 2.558,21.67 1.855,21.358Z"/>
                </g>
                <path id="Fill-26" d="M126.761,7.561C126.391,7.746 126.082,8.022 125.868,8.359C125.629,8.726 125.467,9.132 125.391,9.555L130.439,9.555C130.391,9.135 130.254,8.728 130.034,8.359C129.618,7.669 128.829,7.246 127.977,7.258C127.551,7.261 127.132,7.365 126.761,7.561M131.057,5.723C131.913,6.166 132.609,6.833 133.059,7.641C133.546,8.525 133.789,9.507 133.768,10.5L133.768,10.975C133.764,11.108 133.752,11.241 133.734,11.373L125.391,11.373C125.454,11.84 125.656,12.281 125.975,12.646C126.305,13.015 126.729,13.303 127.208,13.483C127.728,13.682 128.287,13.781 128.849,13.774C129.507,13.774 130.157,13.638 130.752,13.375C131.271,13.171 131.717,12.835 132.041,12.406L134,13.698C133.512,14.453 132.771,15.039 131.891,15.365C130.836,15.798 129.693,16.015 128.54,15.999C127.377,16.016 126.227,15.772 125.189,15.285C124.232,14.83 123.427,14.14 122.861,13.292C122.283,12.429 121.985,11.431 122.001,10.416C121.978,9.429 122.244,8.455 122.77,7.597C123.282,6.788 124.026,6.127 124.918,5.687C125.872,5.22 126.937,4.984 128.016,5.001C129.08,4.99 130.129,5.239 131.057,5.723"/>
                <path id="Fill-28" d="M137.979,15.311C137.067,14.861 136.309,14.18 135.792,13.345C135.26,12.482 134.986,11.502 135.001,10.505C134.983,9.511 135.241,8.528 135.749,7.653C136.225,6.835 136.937,6.158 137.804,5.7C138.717,5.223 139.75,4.982 140.795,5.001C141.635,4.996 142.466,5.151 143.239,5.456C143.974,5.741 144.632,6.173 145.167,6.723C145.677,7.247 146.029,7.89 146.183,8.584L143.192,9.291C143.074,8.784 142.772,8.329 142.338,8.005C141.92,7.684 141.396,7.508 140.855,7.51C140.384,7.503 139.922,7.634 139.535,7.885C139.129,8.152 138.81,8.521 138.616,8.948C138.383,9.438 138.268,9.969 138.278,10.505C138.27,11.046 138.4,11.58 138.659,12.063C138.889,12.499 139.244,12.867 139.684,13.126C140.534,13.592 141.579,13.622 142.458,13.206C142.853,13.015 143.197,12.742 143.462,12.407C143.731,12.067 143.905,11.671 143.97,11.253L147,11.652C146.891,12.472 146.544,13.249 145.996,13.897C145.433,14.561 144.709,15.091 143.885,15.443C141.997,16.232 139.83,16.181 137.988,15.303L137.979,15.311Z"/>
                <path id="Fill-30" d="M151.275,16.516C150.629,16.21 150.097,15.726 149.748,15.128C149.387,14.468 149.209,13.732 149.231,12.989L149.231,8.155L147,8.155L147,5.717L149.231,5.717L149.231,2.705L152.641,2L152.613,5.717L157.317,5.717L157.317,8.155L152.613,8.155L152.636,12.491C152.61,13.001 152.789,13.501 153.136,13.892C153.465,14.237 153.939,14.425 154.429,14.406C154.926,14.413 155.411,14.264 155.809,13.985C156.23,13.679 156.569,13.285 156.799,12.833L158,14.736C157.589,15.431 156.992,16.013 156.269,16.423C155.491,16.824 154.614,17.022 153.729,16.997C152.882,17.026 152.04,16.86 151.275,16.516"/>
                <path id="Fill-32" d="M78,25L80.699,25L86.5,38.064L92.301,25L95,25L95,40L93.136,40L93.136,27.554L87.485,40L85.51,40L79.864,27.575L79.864,40L78,40L78,25Z"/>
                <path id="Fill-34" d="M103.322,38.152C103.87,37.88 104.332,37.467 104.657,36.959C104.987,36.44 105.159,35.841 105.153,35.232L105.153,34.5L101.916,34.897C100.724,35.045 99.868,35.295 99.364,35.642C98.909,35.905 98.621,36.373 98.598,36.887C98.604,37.405 98.903,37.878 99.376,38.116C99.993,38.45 100.694,38.612 101.4,38.582C102.067,38.593 102.727,38.445 103.322,38.152M98.983,39.604C98.405,39.377 97.901,39 97.529,38.514C97.179,38.054 96.994,37.495 97,36.923C96.994,36.379 97.165,35.847 97.488,35.403C97.885,34.898 98.408,34.5 99.008,34.245C99.867,33.882 100.782,33.656 101.716,33.576L104.288,33.274C104.523,33.262 104.747,33.173 104.923,33.023C105.079,32.888 105.166,32.693 105.161,32.49C105.17,32.087 105.024,31.696 104.751,31.392C104.446,31.062 104.062,30.809 103.633,30.656C103.145,30.477 102.626,30.388 102.105,30.393C101.514,30.385 100.928,30.506 100.392,30.748C99.924,30.954 99.513,31.265 99.192,31.655C98.912,31.976 98.742,32.374 98.704,32.792L97.27,32.208C97.358,31.623 97.621,31.076 98.028,30.636C98.502,30.108 99.099,29.699 99.769,29.442C100.53,29.142 101.345,28.992 102.166,29.001C102.981,28.987 103.789,29.144 104.534,29.462C105.189,29.743 105.749,30.197 106.152,30.771C106.544,31.352 106.747,32.034 106.735,32.729L106.735,37.901C106.721,38.083 106.777,38.262 106.89,38.407C106.989,38.527 107.141,38.595 107.3,38.59C107.46,38.582 107.614,38.525 107.738,38.427C107.902,38.306 108.041,38.156 108.148,37.985L109,38.952C108.768,39.283 108.448,39.548 108.074,39.716C107.704,39.898 107.296,39.995 106.882,39.998C105.96,40.037 105.18,39.342 105.14,38.446C105.137,38.394 105.138,38.341 105.141,38.288L105.141,37.889C104.892,38.317 104.564,38.696 104.174,39.007C103.766,39.334 103.297,39.581 102.793,39.736C102.244,39.906 101.67,39.991 101.093,39.986C100.37,40 99.652,39.869 98.983,39.604"/>
                <path id="Fill-36" d="M110,29.419L111.509,29.419L111.659,30.97C112.039,30.354 112.592,29.852 113.254,29.522C113.925,29.178 114.674,28.998 115.435,29.001C116.276,28.984 117.105,29.195 117.827,29.609C118.511,30.007 119.066,30.58 119.43,31.264C119.819,32.008 120.014,32.831 119.999,33.662L119.999,39.991L118.318,39.991L118.318,33.671C118.327,33.1 118.2,32.534 117.948,32.016C117.714,31.544 117.343,31.148 116.879,30.875C116.384,30.593 115.816,30.45 115.241,30.461C113.272,30.452 111.669,31.976 111.659,33.865L111.659,40L110,40L110,29.419Z"/>
                <path id="Fill-38" d="M128.315,38.149C128.864,37.876 129.328,37.464 129.655,36.956C129.977,36.437 130.141,35.84 130.13,35.234L130.13,34.498L126.894,34.895C125.707,35.041 124.856,35.289 124.343,35.639C123.887,35.902 123.599,36.37 123.576,36.884C123.581,37.403 123.881,37.876 124.355,38.114C124.972,38.447 125.673,38.609 126.378,38.579C127.051,38.592 127.716,38.445 128.315,38.149M123.982,39.601C123.403,39.376 122.899,38.999 122.528,38.511C122.179,38.051 121.993,37.492 122,36.92C121.994,36.376 122.165,35.845 122.487,35.401C122.887,34.892 123.417,34.493 124.023,34.243C124.883,33.88 125.796,33.654 126.73,33.575L129.303,33.273C129.536,33.261 129.758,33.172 129.933,33.022C130.085,32.892 130.173,32.705 130.175,32.509C130.184,32.106 130.038,31.715 129.765,31.411C129.458,31.081 129.073,30.828 128.643,30.675C128.157,30.496 127.64,30.407 127.119,30.413C126.529,30.404 125.944,30.525 125.408,30.767C124.939,30.968 124.524,31.271 124.195,31.653C123.919,31.977 123.749,32.373 123.708,32.791L122.278,32.206C122.364,31.621 122.628,31.074 123.036,30.635C123.51,30.108 124.106,29.699 124.777,29.442C125.537,29.141 126.352,28.991 127.173,29C127.98,28.991 128.78,29.15 129.519,29.466C130.181,29.745 130.748,30.198 131.158,30.775C131.549,31.356 131.752,32.037 131.739,32.732L131.739,37.903C131.727,38.083 131.781,38.262 131.891,38.408C131.991,38.527 132.142,38.594 132.301,38.591C132.461,38.582 132.614,38.525 132.739,38.428C132.902,38.307 133.041,38.157 133.148,37.986L134,38.953C133.767,39.283 133.447,39.546 133.075,39.717C132.705,39.899 132.297,39.995 131.883,39.999C130.956,40.035 130.175,39.335 130.137,38.435C130.135,38.386 130.135,38.338 130.138,38.289L130.138,37.891C129.893,38.319 129.566,38.698 129.175,39.008C128.767,39.334 128.299,39.581 127.795,39.736C127.246,39.907 126.672,39.991 126.096,39.987C125.371,39.999 124.652,39.868 123.982,39.601"/>
                <path id="Fill-40" d="M142.498,38.726C143.102,38.354 143.593,37.817 143.918,37.174C144.262,36.486 144.435,35.72 144.419,34.946C144.43,34.148 144.254,33.359 143.905,32.647C143.586,31.989 143.094,31.437 142.485,31.052C141.879,30.671 141.181,30.472 140.471,30.479C139.009,30.454 137.662,31.299 137.012,32.651C136.666,33.362 136.491,34.15 136.503,34.946C136.49,35.721 136.67,36.487 137.025,37.17C137.353,37.81 137.844,38.347 138.445,38.721C139.694,39.468 141.236,39.468 142.485,38.721L142.498,38.726ZM137.442,45.56C136.67,45.292 135.955,44.872 135.336,44.326C134.766,43.826 134.311,43.203 134,42.502L135.365,41.532C135.541,42.114 135.857,42.64 136.283,43.062C136.744,43.521 137.291,43.877 137.893,44.105C138.551,44.361 139.25,44.489 139.953,44.482C140.756,44.499 141.55,44.301 142.258,43.909C142.91,43.546 143.447,42.999 143.808,42.332C144.181,41.634 144.37,40.847 144.356,40.051L144.356,38.56C143.913,39.254 143.311,39.824 142.603,40.22C141.882,40.618 141.074,40.82 140.256,40.806C139.285,40.82 138.329,40.557 137.492,40.047C136.679,39.543 136.015,38.821 135.571,37.956C135.102,37.028 134.864,35.993 134.881,34.946C134.868,33.889 135.105,32.845 135.571,31.904C136.466,30.092 138.285,28.965 140.257,29.002C141.911,28.959 143.47,29.802 144.377,31.231L144.545,29.384L145.999,29.384L145.999,40.055C146.014,41.133 145.745,42.195 145.22,43.127C144.716,44.024 143.977,44.756 143.087,45.239C142.134,45.757 141.069,46.019 139.991,45.999C139.124,46.001 138.262,45.853 137.442,45.56Z"/>
                <path id="Fill-42" d="M151.627,30.819C151.095,31.087 150.646,31.483 150.323,31.967C149.979,32.481 149.755,33.061 149.667,33.665L156.952,33.665C156.881,33.063 156.678,32.482 156.359,31.959C156.065,31.48 155.64,31.086 155.13,30.819C154.604,30.546 154.014,30.409 153.416,30.42C152.794,30.408 152.179,30.545 151.627,30.819M156.175,29.687C156.964,30.152 157.598,30.821 158.005,31.616C158.454,32.484 158.686,33.439 158.683,34.407L158.683,34.702C158.681,34.806 158.675,34.909 158.662,35.013L149.663,35.013C149.719,35.686 149.951,36.334 150.34,36.899C150.718,37.438 151.237,37.877 151.845,38.17C153.211,38.807 154.818,38.773 156.154,38.079C156.774,37.764 157.279,37.277 157.604,36.683L159,37.229C158.6,38.077 157.92,38.777 157.065,39.223C155.138,40.237 152.806,40.26 150.858,39.282C149.98,38.817 149.257,38.126 148.768,37.289C147.768,35.526 147.743,33.408 148.701,31.624C149.151,30.821 149.825,30.153 150.649,29.695C151.505,29.226 152.479,28.986 153.466,29.001C154.419,28.984 155.357,29.222 156.175,29.687"/>
                <path id="Fill-44" d="M160,29.433L161.437,29.433L161.614,30.75C161.942,30.211 162.416,29.767 162.986,29.466C163.568,29.162 164.221,29.007 164.883,29.015C165.72,28.999 166.545,29.205 167.267,29.61C167.938,29.984 168.468,30.552 168.781,31.234C169.127,30.569 169.659,30.011 170.317,29.623C172.336,28.419 174.989,29.014 176.243,30.952C176.311,31.057 176.373,31.165 176.431,31.275C176.819,32.018 177.014,32.84 176.999,33.671L176.999,39.991L175.321,39.991L175.321,33.659C175.332,33.088 175.205,32.522 174.952,32.006C174.723,31.541 174.364,31.146 173.914,30.866C173.463,30.589 172.936,30.446 172.4,30.453C171.837,30.449 171.284,30.592 170.799,30.866C170.324,31.136 169.942,31.534 169.698,32.01C169.43,32.523 169.296,33.09 169.306,33.663L169.306,40L167.65,40L167.65,33.659C167.66,33.089 167.536,32.524 167.289,32.006C167.067,31.546 166.711,31.157 166.265,30.887C165.804,30.611 165.271,30.468 164.728,30.474C164.161,30.467 163.603,30.61 163.115,30.887C162.652,31.153 162.279,31.542 162.039,32.006C161.778,32.52 161.647,33.087 161.657,33.659L161.657,40L160,40L160,29.433Z"/>
                <path id="Fill-46" d="M182.656,30.809C182.118,31.076 181.661,31.472 181.334,31.959C180.99,32.474 180.765,33.054 180.677,33.659L187.967,33.659C187.896,33.056 187.693,32.474 187.373,31.951C187.079,31.471 186.655,31.076 186.144,30.809C185.618,30.536 185.027,30.399 184.429,30.41C183.81,30.4 183.197,30.537 182.647,30.809L182.656,30.809ZM187.189,29.676C187.979,30.142 188.614,30.812 189.021,31.608C189.466,32.478 189.698,33.433 189.699,34.401L189.699,34.696C189.698,34.801 189.691,34.904 189.678,35.007L180.665,35.007C180.719,35.68 180.949,36.33 181.334,36.896C181.712,37.437 182.231,37.876 182.84,38.168C184.208,38.806 185.815,38.772 187.152,38.077C187.772,37.761 188.278,37.274 188.603,36.68L190,37.227C189.599,38.076 188.917,38.777 188.059,39.222C186.133,40.238 183.8,40.26 181.853,39.282C180.976,38.814 180.252,38.123 179.761,37.286C179.249,36.403 178.986,35.407 179.001,34.397C178.986,33.433 179.226,32.48 179.699,31.628C180.149,30.824 180.823,30.155 181.648,29.696C182.505,29.227 183.479,28.987 184.467,29.001C185.422,28.979 186.366,29.212 187.189,29.676Z"/>
                <path id="Fill-48" d="M193,29.419L194.502,29.419L194.657,30.97C195.037,30.354 195.589,29.852 196.25,29.522C196.92,29.177 197.668,28.998 198.428,29.001C199.272,28.983 200.104,29.194 200.83,29.609C201.513,30.007 202.067,30.58 202.431,31.264C202.819,32.008 203.013,32.831 202.999,33.663L202.999,39.991L201.32,39.991L201.32,33.671C201.329,33.1 201.203,32.534 200.95,32.016C200.715,31.544 200.343,31.148 199.878,30.875C199.386,30.593 198.821,30.449 198.247,30.461C197.623,30.458 197.01,30.614 196.47,30.912C195.934,31.211 195.489,31.639 195.178,32.153C194.848,32.689 194.678,33.301 194.688,33.923L194.688,40L193.03,40L193,29.419Z"/>
                <g id="Group-52" transform="matrix(1,0,0,1,202,25)">
                    <path id="Fill-50" d="M4.683,15.344C4.136,15.06 3.682,14.632 3.374,14.109C3.06,13.555 2.901,12.929 2.916,12.297L2.916,5.399L0.341,5.399L0.341,3.982L2.916,3.982L2.916,0.607L4.679,0.203L4.679,3.982L9.914,3.982L9.914,5.399L4.674,5.399L4.674,12.101C4.649,12.681 4.851,13.248 5.243,13.687C5.626,14.105 6.183,14.333 6.758,14.309C7.362,14.309 7.943,14.087 8.384,13.687C8.879,13.252 9.194,12.657 9.269,12.013L10.707,12.599C10.574,13.522 10.068,14.356 9.301,14.918C8.53,15.502 7.576,15.816 6.598,15.806C5.93,15.812 5.271,15.653 4.683,15.344"/>
                </g>
                <rect id="Fill-53" x="78" y="49" width="2" height="15"/>
                <path id="Fill-55" d="M82,53.419L83.505,53.419L83.66,54.972C84.039,54.357 84.59,53.856 85.251,53.527C85.922,53.179 86.674,52.998 87.437,53.001C88.278,52.985 89.107,53.196 89.83,53.61C90.514,54.008 91.07,54.582 91.434,55.266C91.822,56.01 92.015,56.833 91.999,57.664L91.999,64L90.322,64L90.322,57.664C90.331,57.092 90.202,56.525 89.947,56.008C89.714,55.534 89.343,55.137 88.877,54.864C88.382,54.583 87.815,54.439 87.239,54.45C86.616,54.447 86.003,54.601 85.462,54.897C84.927,55.198 84.482,55.626 84.169,56.14C83.838,56.676 83.668,57.29 83.677,57.913L83.677,63.996L82,63.996L82,53.419Z"/>
                <path id="Fill-56" d="M96.742,63.522C96.021,63.249 95.38,62.825 94.871,62.285C94.398,61.776 94.095,61.153 94,60.491L95.654,60.188C95.696,60.644 95.889,61.077 96.207,61.429C96.554,61.813 97.004,62.108 97.513,62.285C98.077,62.492 98.681,62.595 99.289,62.587C99.824,62.593 100.357,62.515 100.864,62.357C101.283,62.226 101.661,62.005 101.966,61.712C102.224,61.464 102.37,61.136 102.375,60.793C102.385,60.461 102.223,60.145 101.939,59.938C101.615,59.701 101.24,59.529 100.838,59.433C100.403,59.321 99.833,59.202 99.141,59.083C98.344,58.958 97.556,58.789 96.781,58.578C96.201,58.414 95.674,58.12 95.249,57.723C94.81,57.272 94.584,56.681 94.622,56.079C94.617,55.517 94.806,54.967 95.162,54.508C95.539,54.027 96.048,53.644 96.638,53.398C97.299,53.126 98.019,52.99 98.744,53.001C99.462,52.991 100.174,53.115 100.838,53.363C101.437,53.585 101.976,53.926 102.414,54.361C102.825,54.765 103.11,55.262 103.241,55.801L101.635,56.199C101.556,55.654 101.22,55.169 100.716,54.87C100.129,54.506 99.431,54.322 98.723,54.345C98.294,54.341 97.869,54.421 97.478,54.58C97.127,54.715 96.82,54.93 96.586,55.205C96.369,55.453 96.252,55.762 96.255,56.079C96.238,56.405 96.402,56.716 96.69,56.907C96.923,57.079 97.186,57.214 97.469,57.305C97.691,57.356 98.383,57.479 99.541,57.666C100.317,57.799 101.08,57.984 101.826,58.22C102.413,58.41 102.945,58.72 103.38,59.126C103.8,59.547 104.022,60.101 103.998,60.67C104.003,61.284 103.786,61.883 103.38,62.372C102.94,62.898 102.358,63.309 101.691,63.566C100.93,63.864 100.108,64.012 99.28,63.999C98.407,64.004 97.542,63.841 96.742,63.522"/>
                <path id="Fill-57" d="M108.193,64.556C107.66,64.281 107.22,63.865 106.925,63.356C106.625,62.822 106.472,62.222 106.483,61.614L106.483,54.995L104,54.995L104,53.634L106.483,53.634L106.483,50.393L108.185,50L108.185,53.634L113.222,53.634L113.222,54.995L108.18,54.995L108.18,61.443C108.157,62 108.352,62.545 108.728,62.967C109.101,63.367 109.639,63.585 110.195,63.561C110.776,63.563 111.335,63.35 111.759,62.967C112.236,62.546 112.539,61.973 112.612,61.353L114,61.917C113.872,62.804 113.383,63.606 112.643,64.146C111.901,64.71 110.981,65.011 110.036,65C109.393,65.007 108.758,64.854 108.193,64.556"/>
                <path id="Fill-58" d="M115.453,52.635L117.474,52.635L117.474,64L115.474,64L115.453,52.635ZM115.416,50.152C115.134,49.908 114.984,49.577 115.001,49.236C114.988,48.904 115.139,48.583 115.416,48.348C115.704,48.112 116.092,47.987 116.492,48.001C116.893,47.993 117.282,48.119 117.573,48.352C117.856,48.585 118.01,48.907 117.999,49.241C118.015,49.583 117.86,49.915 117.573,50.156C117.279,50.39 116.886,50.515 116.482,50.503C116.084,50.514 115.7,50.387 115.416,50.152Z"/>
                <path id="Fill-59" d="M122.193,64.572C121.66,64.297 121.22,63.881 120.925,63.371C120.624,62.836 120.472,62.235 120.484,61.627L120.484,55.001L118,55.001L118,53.638L120.484,53.638L120.484,50.394L122.185,50L122.185,53.638L127.249,53.638L127.249,55.001L122.18,55.001L122.18,61.456C122.157,62.013 122.352,62.559 122.728,62.982C123.101,63.382 123.639,63.6 124.195,63.576C124.776,63.578 125.335,63.365 125.759,62.982C126.236,62.56 126.539,61.986 126.612,61.366L128,61.913C127.871,62.8 127.385,63.602 126.647,64.145C125.903,64.709 124.982,65.01 124.036,64.999C123.394,65.012 122.759,64.865 122.193,64.572"/>
                <path id="Fill-60" d="M131.178,64.403C130.487,64.01 129.929,63.436 129.566,62.749C129.177,61.998 128.983,61.167 129.001,60.329L129.001,54L130.664,54L130.664,60.329C130.653,60.901 130.783,61.468 131.044,61.984C131.289,62.452 131.664,62.847 132.128,63.125C132.623,63.41 133.192,63.554 133.769,63.539C134.387,63.542 134.994,63.386 135.527,63.088C136.064,62.789 136.511,62.361 136.823,61.847C137.155,61.312 137.326,60.699 137.315,60.077L137.315,54L139,54L139,64.581L137.492,64.581L137.315,63.031C136.946,63.651 136.394,64.153 135.73,64.478C135.065,64.818 134.324,64.997 133.571,64.999C132.731,65.015 131.903,64.809 131.178,64.403"/>
                <path id="Fill-61" d="M144.189,64.572C143.658,64.296 143.22,63.879 142.926,63.371C142.625,62.836 142.472,62.235 142.484,61.627L142.484,55.001L140,55.001L140,53.638L142.484,53.638L142.484,50.394L144.184,50L144.184,53.638L149.24,53.638L149.24,55.001L144.18,55.001L144.18,61.456C144.157,62.013 144.352,62.559 144.728,62.982C145.101,63.382 145.639,63.6 146.195,63.576C146.775,63.576 147.334,63.364 147.759,62.982C148.235,62.56 148.539,61.986 148.612,61.366L150,61.913C149.871,62.802 149.383,63.604 148.643,64.145C147.901,64.709 146.981,65.011 146.036,64.999C145.393,65.012 144.757,64.865 144.189,64.572"/>
                <path id="Fill-62" d="M154.622,54.825C154.092,55.096 153.644,55.493 153.322,55.978C152.976,56.491 152.753,57.07 152.665,57.674L159.95,57.674C159.883,57.071 159.68,56.488 159.357,55.966C159.062,55.488 158.639,55.094 158.131,54.825C157.604,54.552 157.012,54.414 156.412,54.426C155.795,54.416 155.184,54.553 154.635,54.825L154.622,54.825ZM159.156,53.691C159.948,54.154 160.583,54.825 160.988,55.623C161.436,56.492 161.669,57.448 161.669,58.416L161.669,58.711C161.669,58.816 161.661,58.92 161.644,59.023L152.657,59.023C152.715,59.691 152.948,60.334 153.334,60.895C153.711,61.437 154.23,61.876 154.84,62.168C156.206,62.805 157.812,62.771 159.148,62.076C159.767,61.762 160.273,61.277 160.598,60.683L162,61.226C161.597,62.075 160.916,62.775 160.059,63.221C158.133,64.236 155.801,64.261 153.853,63.286C152.976,62.818 152.252,62.127 151.762,61.29C151.249,60.405 150.987,59.408 151.001,58.396C150.984,57.432 151.225,56.479 151.699,55.627C152.147,54.823 152.822,54.156 153.648,53.699C154.504,53.227 155.478,52.985 156.467,53.001C157.413,52.987 158.344,53.227 159.156,53.691Z"/>
                <path id="Fill-63" d="M165.926,64.574C166.194,64.422 166.415,64.199 166.569,63.932C166.881,63.356 166.881,62.661 166.569,62.085C166.418,61.813 166.196,61.587 165.926,61.431C165.646,61.275 165.331,61.194 165.01,61.197C164.685,61.19 164.363,61.271 164.079,61.431C163.806,61.581 163.581,61.806 163.431,62.08C163.272,62.364 163.191,62.685 163.197,63.011C163.192,63.334 163.273,63.651 163.431,63.932C163.583,64.202 163.808,64.425 164.079,64.575C164.365,64.73 164.686,64.809 165.01,64.803C165.331,64.808 165.646,64.729 165.926,64.574M163.97,64.744C163.672,64.575 163.425,64.329 163.257,64.03C163.081,63.718 162.992,63.364 163.001,63.005C162.995,62.645 163.086,62.29 163.262,61.976C163.433,61.679 163.679,61.433 163.976,61.263C164.29,61.086 164.645,60.995 165.006,61C165.364,60.994 165.717,61.082 166.029,61.257C166.328,61.428 166.574,61.677 166.744,61.976C166.916,62.291 167.004,62.646 167,63.005C167.005,63.364 166.916,63.717 166.744,64.03C166.575,64.329 166.329,64.575 166.029,64.744C165.717,64.918 165.364,65.007 165.006,65C164.644,65.007 164.287,64.919 163.97,64.744"/>
                <path id="Fill-64" d="M164.401,62.89L164.401,62.233L164.983,62.233C165.134,62.228 165.283,62.259 165.407,62.322C165.513,62.378 165.575,62.469 165.57,62.564C165.576,62.657 165.517,62.747 165.412,62.801C165.293,62.864 165.147,62.895 165,62.89L164.401,62.89ZM166,63.966L165.337,63.119C165.412,63.108 165.484,63.089 165.552,63.064C165.822,62.972 165.991,62.773 165.983,62.556C165.984,62.456 165.948,62.357 165.878,62.272C165.805,62.185 165.7,62.116 165.576,62.072C165.439,62.022 165.286,61.998 165.134,62L164,62L164,63.979L164.401,63.979L164.401,63.153L164.907,63.153L165.552,64L166,63.966Z"/>
            </g>
        </g>
    </g>
</svg>
