<?xml version="1.0" encoding="UTF-8" standalone="no"?>
<!DOCTYPE svg PUBLIC "-//W3C//DTD SVG 1.1//EN" "http://www.w3.org/Graphics/SVG/1.1/DTD/svg11.dtd">
<svg width="100%" height="100%" viewBox="0 0 109 107" version="1.1" xmlns="http://www.w3.org/2000/svg" xmlns:xlink="http://www.w3.org/1999/xlink" xml:space="preserve" xmlns:serif="http://www.serif.com/" style="fill-rule:evenodd;clip-rule:evenodd;stroke-linejoin:round;stroke-miterlimit:2;">
    <g transform="matrix(1,0,0,1,-150.022,-124.17)">
        <g id="PSM-1" transform="matrix(0.264756,0,0,0.409231,150.022,124.17)">
            <rect x="0" y="0" width="411.3" height="260" style="fill:none;"/>
            <g transform="matrix(0.637742,0,0,0.412593,15.5319,8.96175)">
                <path d="M296.7,0L0,0L0,296.3C0,459.9 132.8,592.6 296.7,592.6C460.6,592.6 593.4,459.9 593.4,296.3C593.4,132.7 460.6,0 296.7,0" style="fill:rgb(64,90,112);fill-rule:nonzero;"/>
                <path d="M88.3,90.1L12.2,90.1C11.4,90.1 10.8,89.5 10.8,88.7L10.8,13.8C10.8,13 11.4,12.4 12.2,12.4L88.3,12.4C89.1,12.4 89.7,13 89.7,13.8L89.7,88.7C89.7,89.5 89.1,90.1 88.3,90.1" style="fill:rgb(138,176,194);fill-rule:nonzero;"/>
                <path d="M79.8,82.1L22.7,82.1C22.3,82.1 21.9,81.7 21.9,81.3L21.9,22.2C21.9,21.8 22.3,21.4 22.7,21.4L79.8,21.4C80.2,21.4 80.6,21.8 80.6,22.2L80.6,81.4C80.6,81.8 80.2,82.2 79.8,82.2" style="fill:white;fill-rule:nonzero;"/>
                <path d="M30.7,32.9L47.6,32.9L47.6,38.6L30.7,38.6L30.7,32.9ZM30.6,46.1L49.6,46.1L49.6,53.8L30.6,53.8L30.6,46.1ZM30.1,57.2L53.5,57.2L53.5,63L30.1,63L30.1,57.2ZM30.1,66.8L51.2,66.8L51.2,72.4L30.1,72.4L30.1,66.8ZM70.4,72.7L64.6,67.1L59.3,72.7L59.3,33.1L70.4,33.1L70.4,72.7Z" style="fill:rgb(138,176,194);fill-rule:nonzero;"/>
                <path d="M575.5,297.4C575.5,450.2 451.5,574 298.5,574C145.5,574 21.4,450.2 21.4,297.4C21.4,144.6 145.5,20.8 298.5,20.8C451.5,20.8 575.5,144.7 575.5,297.4" style="fill:rgb(60,125,153);fill-rule:nonzero;"/>
                <path d="M577.5,297.4L573.5,297.4C573.5,373.3 542.7,441.9 492.9,491.6C443.1,541.3 374.4,572 298.4,572.1C222.4,572.1 153.7,541.4 103.9,491.6C54.1,441.9 23.3,373.2 23.3,297.4C23.3,221.5 54.1,152.9 103.9,103.2C153.8,53.5 222.5,22.7 298.5,22.7C374.5,22.7 443.2,53.4 493,103.2C542.8,152.9 573.6,221.6 573.6,297.4L577.5,297.4C577.5,143.5 452.6,18.8 298.5,18.8C144.4,18.8 19.5,143.5 19.5,297.4C19.5,451.3 144.4,576 298.5,576C452.6,576 577.5,451.3 577.5,297.4Z" style="fill:white;fill-rule:nonzero;"/>
                <path d="M529.7,296.1C529.7,424.5 425.4,528.6 296.8,528.6C168.2,528.6 63.9,424.5 63.9,296.1C63.9,167.7 168.2,63.5 296.8,63.5C425.4,63.5 529.7,167.6 529.7,296M72.7,156.8L77.1,150.4C77.7,149.5 78.4,148.7 79.1,148C79.8,147.3 80.6,146.8 81.4,146.5C82.2,146.2 83.1,146.1 84,146.2C84.9,146.3 85.9,146.7 86.9,147.4C87.9,148.1 88.6,148.8 89.1,149.6C89.6,150.4 89.8,151.2 89.8,152.1C89.8,153 89.6,153.8 89.3,154.7C88.9,155.6 88.4,156.5 87.8,157.4L85.9,160.2L92.7,164.9L90.1,168.7L72.8,156.7L72.7,156.8ZM82.7,158L84.5,155.5C84.7,155.2 84.9,154.8 85.1,154.4C85.3,154 85.3,153.7 85.4,153.3C85.4,152.9 85.4,152.6 85.2,152.2C85,151.9 84.8,151.5 84.3,151.3C83.9,151 83.4,150.9 83,150.9C82.6,150.9 82.2,151 81.8,151.3C81.4,151.5 81.1,151.8 80.8,152.2C80.5,152.6 80.2,152.9 80,153.3L78.6,155.3L82.7,158.1L82.7,158Z" style="fill:white;fill-rule:nonzero;"/>
                <path d="M84.4,140.3L89.5,133.9C90.2,133.1 90.9,132.3 91.6,131.7C92.4,131.1 93.2,130.6 94,130.4C94.8,130.1 95.7,130.1 96.6,130.3C97.5,130.5 98.4,131 99.4,131.7C100.6,132.6 101.3,133.7 101.6,135C101.9,136.3 101.7,137.5 101,138.9L111.3,140.3L107.8,144.6L98.5,142.8L97.1,144.6L103.7,149.9L100.8,153.5L84.4,140.3ZM94.1,142.1L95.8,140C96.1,139.7 96.3,139.3 96.6,138.9C96.9,138.5 97.1,138.1 97.2,137.7C97.3,137.3 97.3,136.9 97.2,136.5C97.2,136.1 96.8,135.7 96.4,135.4C96,135.1 95.6,134.9 95.2,134.9C94.8,134.9 94.5,134.9 94.1,135.1C93.8,135.3 93.4,135.5 93.1,135.8L92.2,136.7L90.3,139.1L94,142.1L94.1,142.1ZM104.5,132.1C103.3,130.9 102.4,129.7 101.8,128.3C101.2,126.9 100.9,125.6 100.9,124.2C100.9,122.8 101.2,121.4 101.8,120.1C102.4,118.7 103.2,117.5 104.4,116.3C105.5,115.1 106.8,114.2 108.1,113.5C109.4,112.8 110.8,112.5 112.2,112.4C113.6,112.4 115,112.6 116.4,113.1C117.8,113.6 119.1,114.5 120.3,115.6C121.5,116.8 122.4,118 123,119.4C123.6,120.8 123.9,122.1 123.9,123.5C123.9,124.9 123.6,126.3 123,127.6C122.4,129 121.6,130.2 120.4,131.4C119.3,132.6 118,133.5 116.7,134.2C115.4,134.9 114,135.2 112.6,135.3C111.2,135.3 109.8,135.1 108.4,134.6C107,134.1 105.7,133.2 104.5,132.1ZM107.8,128.6C108.5,129.3 109.3,129.8 110.1,130.1C110.9,130.4 111.7,130.6 112.6,130.6C113.4,130.6 114.2,130.4 115,130.1C115.8,129.7 116.5,129.2 117.2,128.5C117.9,127.8 118.4,127 118.7,126.2C119,125.4 119.1,124.6 119.1,123.7C119.1,122.9 118.8,122.1 118.5,121.3C118.1,120.5 117.6,119.8 116.8,119.1C116.1,118.4 115.3,117.9 114.5,117.6C113.7,117.3 112.9,117.1 112,117.1C111.2,117.1 110.3,117.3 109.6,117.6C108.8,118 108.1,118.5 107.4,119.2C106.7,119.9 106.2,120.7 105.9,121.5C105.6,122.3 105.5,123.1 105.5,124C105.5,124.8 105.8,125.6 106.2,126.4C106.6,127.2 107.1,127.9 107.8,128.6ZM116.4,105.1L126.9,95.7L129.8,98.9L122.7,105.2L125.6,108.4L132.1,102.6L135,105.8L128.5,111.6L134,117.7L130.5,120.8L116.5,105.1L116.4,105.1ZM130.8,92.5L142.1,83.8L144.7,87.2L137,93.1L139.4,96.2L146.6,90.6L149.2,94L142,99.6L144.6,103L152.7,96.8L155.3,100.2L143.5,109.3L130.6,92.6L130.8,92.5ZM158.5,79C157.9,78.8 157.3,78.8 156.6,79C155.9,79.2 155.4,79.4 154.9,79.7C154.6,79.9 154.4,80.1 154.1,80.4C153.8,80.7 153.6,81 153.5,81.3C153.3,81.6 153.2,81.9 153.2,82.3C153.2,82.6 153.2,83 153.5,83.3C153.8,83.8 154.3,84.1 154.9,84.1C155.5,84.1 156.1,84.1 156.9,83.8C157.6,83.6 158.4,83.4 159.2,83.1C160,82.8 160.9,82.7 161.7,82.7C162.5,82.7 163.4,82.8 164.2,83.2C165,83.6 165.7,84.2 166.4,85.3C167,86.3 167.4,87.2 167.5,88.2C167.6,89.2 167.5,90.1 167.2,91C166.9,91.9 166.4,92.7 165.7,93.5C165,94.3 164.2,95 163.3,95.6C162.2,96.4 161,96.9 159.8,97.2C158.6,97.5 157.3,97.5 156,97.3L156.8,92.5C157.5,92.8 158.3,92.8 159.1,92.7C159.9,92.6 160.6,92.3 161.3,91.9C161.6,91.7 161.9,91.4 162.2,91.2C162.5,91 162.7,90.6 162.8,90.3C163,90 163,89.7 163,89.3C163,88.9 163,88.6 162.7,88.3C162.4,87.8 161.9,87.5 161.3,87.4C160.7,87.4 160,87.4 159.3,87.6C158.5,87.8 157.7,88 156.9,88.3C156,88.6 155.2,88.7 154.3,88.7C153.4,88.7 152.6,88.6 151.8,88.3C151,88 150.3,87.3 149.6,86.3C149,85.4 148.6,84.4 148.5,83.5C148.5,82.5 148.5,81.6 148.8,80.7C149.1,79.8 149.6,79 150.2,78.2C150.9,77.4 151.6,76.8 152.5,76.2C153.5,75.5 154.5,75.1 155.7,74.7C156.8,74.4 158,74.3 159.1,74.5L158.4,79.2L158.5,79ZM174.1,69.8C173.5,69.6 172.9,69.5 172.2,69.6C171.5,69.7 170.9,69.9 170.4,70.2C170.1,70.4 169.8,70.6 169.6,70.8C169.3,71 169.1,71.3 168.9,71.6C168.7,71.9 168.6,72.2 168.6,72.6C168.6,72.9 168.6,73.3 168.8,73.6C169.1,74.2 169.6,74.5 170.1,74.5C170.7,74.5 171.3,74.5 172.1,74.4C172.8,74.3 173.6,74.1 174.5,73.9C175.3,73.7 176.2,73.6 177,73.6C177.8,73.6 178.7,73.8 179.4,74.3C180.2,74.7 180.9,75.4 181.5,76.5C182.1,77.5 182.4,78.5 182.4,79.5C182.4,80.5 182.3,81.4 181.9,82.3C181.5,83.2 181,84 180.3,84.7C179.6,85.4 178.7,86 177.8,86.6C176.6,87.3 175.4,87.7 174.2,87.9C173,88.1 171.7,88 170.4,87.7L171.5,82.9C172.2,83.2 173,83.4 173.8,83.3C174.6,83.3 175.3,83 176,82.7C176.3,82.5 176.6,82.3 176.9,82C177.2,81.7 177.4,81.4 177.6,81.1C177.8,80.8 177.9,80.5 177.9,80.1C177.9,79.8 177.9,79.4 177.7,79.1C177.4,78.5 176.9,78.2 176.3,78.1C175.7,78 175,78.1 174.2,78.1C173.4,78.2 172.6,78.4 171.7,78.6C170.8,78.8 170,78.9 169.1,78.9C168.2,78.9 167.4,78.7 166.7,78.3C165.9,77.9 165.3,77.2 164.7,76.2C164.1,75.2 163.9,74.2 163.8,73.3C163.8,72.3 163.9,71.4 164.3,70.6C164.7,69.7 165.2,68.9 165.9,68.2C166.6,67.5 167.4,66.9 168.3,66.4C169.3,65.8 170.4,65.4 171.6,65.2C172.7,65 173.9,65 175,65.2L173.9,69.8L174.1,69.8ZM178.5,61.7L182.7,59.6L192,78.5L187.8,80.6L178.5,61.7ZM190.6,67.2C189.9,65.6 189.6,64.1 189.6,62.7C189.6,61.2 189.9,59.8 190.4,58.6C191,57.3 191.8,56.2 192.9,55.2C194,54.2 195.3,53.4 196.8,52.7C198.3,52 199.8,51.7 201.3,51.7C202.8,51.7 204.2,51.9 205.5,52.4C206.8,52.9 208,53.7 209,54.7C210,55.7 210.9,57 211.6,58.6C212.3,60.2 212.6,61.7 212.6,63.1C212.6,64.6 212.3,66 211.8,67.2C211.2,68.5 210.4,69.6 209.3,70.6C208.2,71.6 206.9,72.4 205.4,73.1C203.9,73.8 202.4,74.1 200.9,74.1C199.4,74.1 198,73.9 196.7,73.4C195.4,72.9 194.2,72.1 193.2,71.1C192.2,70.1 191.3,68.8 190.6,67.2ZM195,65.3C195.4,66.2 195.9,67 196.5,67.6C197.1,68.2 197.8,68.7 198.5,69.1C199.3,69.4 200.1,69.6 201,69.6C201.9,69.6 202.8,69.4 203.7,69C204.6,68.6 205.4,68.1 206,67.5C206.6,66.9 207.1,66.2 207.4,65.4C207.7,64.6 207.8,63.8 207.8,62.9C207.8,62 207.6,61.1 207.2,60.2C206.8,59.3 206.3,58.5 205.7,57.9C205.1,57.3 204.4,56.8 203.6,56.4C202.8,56.1 202,55.9 201.1,55.9C200.2,55.9 199.3,56.1 198.4,56.5C197.5,56.9 196.7,57.4 196.1,58C195.5,58.6 195,59.3 194.7,60.1C194.4,60.9 194.3,61.7 194.3,62.6C194.3,63.5 194.5,64.4 194.9,65.3L195,65.3ZM212.4,47.1L218.4,45.3L231.2,56.7L227,42.7L231.4,41.4L237.5,61.5L231.7,63.3L218.6,51.6L223,66L218.6,67.3L212.5,47.2L212.4,47.1ZM244.7,38.5L248.5,37.8L261.5,56.7L256.4,57.7L253.8,53.7L245.8,55.3L244.9,60L239.9,61L244.8,38.6L244.7,38.5ZM247.6,44.2L246.3,51.1L251.3,50.1L247.5,44.2L247.6,44.2ZM261.4,35.5L266,35L267.9,51.7L276.4,50.7L276.9,55L263.8,56.5L261.4,35.6L261.4,35.5ZM298.2,38.1C297.8,37.6 297.3,37.3 296.6,37.1C295.9,36.9 295.3,36.8 294.8,36.8C294.5,36.8 294.1,36.8 293.8,36.9C293.4,36.9 293.1,37.1 292.8,37.3C292.5,37.5 292.2,37.7 292,38C291.8,38.3 291.7,38.6 291.7,39C291.7,39.6 292,40.1 292.4,40.4C292.9,40.7 293.5,41 294.2,41.2C294.9,41.4 295.7,41.6 296.5,41.9C297.3,42.2 298.1,42.4 298.9,42.9C299.6,43.3 300.2,43.9 300.7,44.6C301.2,45.3 301.4,46.3 301.5,47.5C301.5,48.7 301.3,49.7 300.9,50.6C300.5,51.5 299.9,52.2 299.2,52.8C298.5,53.4 297.6,53.8 296.6,54.1C295.6,54.4 294.6,54.6 293.5,54.6C292.1,54.6 290.9,54.4 289.7,54.1C288.5,53.7 287.4,53.1 286.4,52.1L289.6,48.4C290.1,49 290.7,49.5 291.4,49.8C292.1,50.1 292.9,50.3 293.7,50.3C294.1,50.3 294.5,50.3 294.8,50.1C295.2,50.1 295.5,49.9 295.8,49.7C296.1,49.5 296.3,49.3 296.5,49C296.7,48.7 296.8,48.4 296.8,48C296.8,47.4 296.5,46.9 296,46.5C295.5,46.1 294.9,45.8 294.2,45.6C293.5,45.4 292.7,45.1 291.8,44.9C290.9,44.7 290.1,44.3 289.4,43.9C288.7,43.5 288,42.9 287.5,42.2C287,41.5 286.7,40.6 286.7,39.4C286.7,38.3 286.9,37.3 287.3,36.4C287.7,35.5 288.3,34.8 289,34.2C289.7,33.6 290.6,33.2 291.5,32.9C292.5,32.6 293.5,32.4 294.5,32.4C295.7,32.4 296.8,32.5 298,32.8C299.1,33.1 300.1,33.7 301,34.4L297.9,37.9L298.2,38.1ZM319.9,39.4C319.5,38.8 318.9,38.4 318.3,38C317.7,37.7 316.9,37.5 316,37.4C315.1,37.3 314.3,37.4 313.6,37.8C312.8,38.1 312.2,38.5 311.6,39.1C311,39.7 310.6,40.4 310.2,41.2C309.8,42 309.6,42.9 309.6,43.9C309.6,44.9 309.6,45.8 309.9,46.6C310.2,47.4 310.5,48.2 311,48.8C311.5,49.4 312.1,49.9 312.8,50.3C313.5,50.7 314.3,50.9 315.1,50.9C316.1,50.9 316.9,50.9 317.7,50.5C318.5,50.1 319.1,49.6 319.6,48.9L323.3,52C322.3,53.2 321.2,54 319.8,54.6C318.4,55.1 317,55.3 315.5,55.2C313.9,55.2 312.4,54.8 311,54.2C309.6,53.6 308.5,52.8 307.5,51.8C306.5,50.8 305.8,49.6 305.3,48.2C304.8,46.8 304.6,45.3 304.7,43.6C304.7,41.9 305.2,40.4 305.8,39.1C306.4,37.8 307.3,36.7 308.4,35.8C309.5,34.9 310.7,34.2 312.1,33.8C313.5,33.4 315,33.2 316.7,33.3C317.3,33.3 317.9,33.4 318.5,33.6C319.1,33.7 319.8,34 320.4,34.2C321,34.5 321.6,34.8 322.1,35.3C322.7,35.7 323.1,36.2 323.6,36.8L319.9,39.5L319.9,39.4ZM328.4,34.8L336.5,35.9C337.6,36 338.6,36.3 339.5,36.6C340.4,36.9 341.2,37.4 341.9,38C342.5,38.6 343,39.3 343.3,40.2C343.6,41.1 343.7,42.1 343.5,43.3C343.3,44.8 342.7,46 341.8,46.9C340.9,47.8 339.7,48.3 338.2,48.4L342.3,57.9L336.8,57.1L333.6,48.2L331.3,47.9L330.1,56.2L325.5,55.6L328.4,34.8ZM331.8,44.1L334.5,44.5C334.9,44.5 335.4,44.6 335.8,44.6L337.1,44.6C337.5,44.6 337.8,44.3 338.1,44C338.4,43.7 338.6,43.3 338.7,42.7C338.7,42.2 338.7,41.7 338.6,41.4C338.5,41.1 338.2,40.8 337.9,40.6C337.6,40.4 337.2,40.2 336.8,40.1C336.4,40 336,39.9 335.5,39.8L332.5,39.4L331.8,44.1ZM363.8,54.7C363.5,55.9 363.1,57 362.5,57.9C361.9,58.8 361.1,59.6 360.2,60.2C359.3,60.8 358.3,61.2 357.1,61.3C355.9,61.5 354.6,61.3 353.2,61.1C351.8,60.8 350.6,60.3 349.6,59.6C348.6,58.9 347.9,58.1 347.3,57.2C346.8,56.3 346.4,55.3 346.3,54.2C346.2,53.1 346.3,51.9 346.5,50.7L349.4,38.1L353.9,39.2L351,51.6C350.9,52.2 350.8,52.8 350.9,53.4C350.9,54 351.2,54.5 351.4,55C351.7,55.5 352,55.9 352.5,56.2C353,56.5 353.5,56.8 354.1,56.9C354.7,57 355.3,57.1 355.8,56.9C356.4,56.8 356.9,56.6 357.3,56.3C357.8,56 358.2,55.6 358.5,55.1C358.8,54.6 359.1,54 359.2,53.4L362.1,41L366.6,42.1L363.7,54.7L363.8,54.7ZM372.9,43.7L379.5,46L379.5,60.6L379.6,60.6L388.7,49.2L395.3,51.5L388.4,71.4L384,69.9L389.3,54.6L378.8,68L375.5,66.8L375.7,49.8L370.4,65L366,63.5L372.9,43.6L372.9,43.7ZM410.3,58L416.5,61.3L414.4,75.7L425.1,65.8L431.3,69.1L421.5,87.7L417.4,85.5L424.9,71.2L412.5,82.9L409.4,81.3L412.2,64.5L404.7,78.8L400.6,76.6L410.4,58L410.3,58ZM442.6,76.3L445.8,78.4L441.8,101L437.4,98.1L438.3,93.4L431.5,88.9L427.6,91.7L423.3,88.9L442.5,76.3L442.6,76.3ZM440.7,82.4L435,86.4L439.3,89.2L440.7,82.3L440.7,82.4ZM461.5,96.4C461.5,95.8 461.3,95.2 461,94.6C460.6,94 460.2,93.6 459.8,93.2L458.9,92.6C458.6,92.4 458.2,92.3 457.9,92.3L456.9,92.3C456.6,92.3 456.3,92.6 456,92.9C455.6,93.4 455.5,93.9 455.7,94.5C455.9,95.1 456.2,95.7 456.6,96.3C457,96.9 457.5,97.6 458,98.3C458.5,99 458.9,99.7 459.2,100.5C459.5,101.3 459.6,102.1 459.5,103C459.5,103.9 459,104.8 458.2,105.8C457.5,106.7 456.7,107.4 455.8,107.8C454.9,108.2 454,108.4 453.1,108.4C452.2,108.4 451.2,108.2 450.3,107.8C449.4,107.4 448.5,106.9 447.6,106.2C446.5,105.4 445.7,104.4 445,103.4C444.3,102.3 443.9,101.1 443.7,99.8L448.5,99C448.5,99.8 448.6,100.5 449,101.3C449.4,102 449.8,102.6 450.4,103.1C450.7,103.3 451,103.5 451.4,103.7C451.8,103.9 452.1,104 452.5,104L453.5,104C453.8,103.9 454.1,103.7 454.3,103.4C454.7,102.9 454.8,102.4 454.7,101.8C454.5,101.2 454.3,100.6 453.8,99.9C453.4,99.2 452.9,98.5 452.4,97.8C451.9,97.1 451.5,96.3 451.2,95.5C450.9,94.7 450.8,93.9 450.8,93C450.8,92.1 451.3,91.3 452,90.3C452.7,89.4 453.5,88.8 454.4,88.4C455.3,88 456.2,87.8 457.1,87.8C458,87.8 459,88 459.9,88.4C460.8,88.8 461.7,89.3 462.5,89.9C463.4,90.6 464.2,91.5 464.9,92.4C465.6,93.4 466,94.4 466.2,95.6L461.5,96.4ZM471.1,103.2L466.6,99.2L469.3,96.1L481.7,107.2L479,110.3L474.5,106.3L463.2,118.9L459.7,115.8L471,103.2L471.1,103.2ZM484.6,110L494.6,120.3L491.5,123.3L484.8,116.4L482,119.1L488.4,125.7L485.3,128.7L478.9,122.1L475.8,125.1L482.9,132.4L479.8,135.4L469.5,124.7L484.6,110ZM498.5,124.5L503.7,130.7C504.4,131.5 505,132.4 505.4,133.2C505.8,134 506.1,134.9 506.2,135.8C506.2,136.7 506.2,137.5 505.8,138.4C505.4,139.3 504.8,140.1 503.9,140.9C502.8,141.9 501.5,142.4 500.3,142.4C499,142.4 497.8,142 496.6,141.1L493.2,150.9L489.6,146.6L493.2,137.8L491.7,136L485.3,141.4L482.3,137.8L498.4,124.3L498.5,124.5ZM494.8,133.7L496.6,135.8C496.9,136.1 497.2,136.4 497.5,136.8C497.8,137.1 498.2,137.4 498.5,137.6C498.9,137.8 499.2,137.9 499.6,137.9C500,137.9 500.4,137.7 500.9,137.3C501.3,137 501.6,136.6 501.7,136.2C501.8,135.8 501.8,135.5 501.7,135.1C501.7,134.7 501.5,134.4 501.2,134C501,133.6 500.7,133.3 500.4,133L498.4,130.7L494.7,133.8L494.8,133.7ZM516.8,147.9L519.5,151.7L502.3,163.9L499.6,160.1L516.8,147.9ZM525.1,154.5L524.2,153.1L524.9,152.7L527.3,156.5L526.6,156.9L525.7,155.5L522.1,157.8L521.5,156.9L525.1,154.6L525.1,154.5ZM527.9,157.3L528.8,158.7L526.3,162.1L530.5,161.3L531.4,162.7L527.1,165.5L526.5,164.6L530.1,162.3L525.6,163.2L525.1,162.5L527.8,158.8L524.2,161.1L523.6,160.2L527.9,157.4L527.9,157.3Z" style="fill:white;fill-rule:nonzero;"/>
                <path d="M112.6,280.4L150.4,280.4C155.7,280.4 160.6,280.9 165.3,281.8C170,282.8 174.1,284.4 177.6,286.8C181.1,289.1 183.9,292.3 185.9,296.3C188,300.3 189,305.3 189,311.3C189,317.3 188,322.2 186.1,326.2C184.2,330.2 181.5,333.4 178.2,335.8C174.8,338.2 170.9,339.9 166.3,340.9C161.7,341.9 156.7,342.4 151.4,342.4L135,342.4L135,382.1L112.6,382.1L112.6,280.4ZM135,323.5L149.9,323.5C151.9,323.5 153.9,323.3 155.7,322.9C157.6,322.5 159.2,321.9 160.7,321C162.2,320.1 163.4,318.8 164.3,317.3C165.2,315.7 165.7,313.7 165.7,311.3C165.7,308.9 165.1,306.6 163.9,305C162.7,303.4 161.2,302.2 159.3,301.3C157.4,300.4 155.3,299.9 153,299.6C150.7,299.4 148.5,299.2 146.4,299.2L134.9,299.2L134.9,323.3L135,323.5ZM253.4,305.3C251.6,303 249.1,301.3 246,300.2C242.9,299.1 239.9,298.5 237.2,298.5C234.5,298.5 233.9,298.7 232.2,299.1C230.5,299.5 228.8,300.1 227.3,300.9C225.8,301.7 224.5,302.8 223.6,304.1C222.6,305.4 222.2,307.1 222.2,309C222.2,312.1 223.3,314.4 225.6,316C227.9,317.6 230.8,319 234.3,320.2C237.8,321.3 241.6,322.5 245.6,323.6C249.6,324.7 253.4,326.4 256.9,328.5C260.4,330.6 263.3,333.4 265.6,337C267.9,340.5 269,345.3 269,351.2C269,357.1 267.9,361.8 265.8,366C263.7,370.2 260.8,373.7 257.3,376.5C253.7,379.3 249.5,381.3 244.8,382.7C240.1,384.1 235.1,384.7 229.8,384.7C224.5,384.7 217.1,383.7 211.4,381.7C205.7,379.7 200.5,376.4 195.6,371.9L211.6,354.4C213.9,357.5 216.8,359.8 220.3,361.5C223.8,363.2 227.4,364 231.1,364C234.8,364 234.8,363.8 236.6,363.4C238.4,363 240.1,362.3 241.6,361.5C243.1,360.6 244.3,359.5 245.2,358.2C246.1,356.9 246.6,355.3 246.6,353.5C246.6,350.4 245.4,348 243.1,346.2C240.8,344.4 237.8,342.9 234.3,341.7C230.8,340.5 226.9,339.2 222.8,338C218.7,336.8 214.8,335.1 211.3,333C207.8,330.9 204.8,328.1 202.5,324.7C200.2,321.3 199,316.7 199,311C199,305.3 200.1,300.8 202.2,296.6C204.4,292.5 207.2,289 210.8,286.3C214.4,283.5 218.5,281.4 223.2,280C227.9,278.6 232.7,277.9 237.7,277.9C242.7,277.9 249,278.7 254.4,280.3C259.8,281.9 264.6,284.7 268.9,288.5L253.5,305.3L253.4,305.3ZM285.6,280.4L319.5,280.4L342.9,346.8L343.2,346.8L366.8,280.4L400.6,280.4L400.6,382.1L378.2,382.1L378.2,304.1L377.9,304.1L351.2,382.1L334.1,382.1L308.4,304.1L308.1,304.1L308.1,382.1L285.7,382.1L285.7,280.4L285.6,280.4ZM463.4,280.4L485.8,280.4L485.8,382.1L463.4,382.1L463.4,280.4Z" style="fill:rgb(60,125,153);fill-rule:nonzero;"/>
                <g>
                    <path d="M156.5,179.7C157.2,176.7 158.4,173.8 160,171.2C161.6,168.6 163.6,166.4 165.7,164.5C164,166 162.5,167.7 161.2,169.5C162.2,168.1 163.2,167 164.4,165.9C165.6,164.8 166.8,163.9 168.3,163C168,163.4 167.3,163.9 166.7,164.4C166.1,164.9 165.7,165.4 165.6,165.7C162.6,168.4 160.1,171.7 158.4,175.3C156.6,178.9 155.6,182.9 155.4,187C155,185.4 155.2,184.1 155.5,182.9C155.8,181.7 156.3,180.8 156.6,179.7M176.4,159.6C175.6,159.8 174.9,160.1 174.2,160.4C175,160.1 175.7,159.8 176.4,159.6M185.9,212.5C186.7,212.5 187.5,212.3 188.3,212.2C187.5,212.4 186.7,212.5 185.9,212.5M157.8,190.1L158.2,191.4C158.7,194.9 159.9,198.3 161.7,201.4C160.7,199.7 159.7,197.9 159,196C158.3,194.1 157.8,192 157.8,190.1" style="fill:rgb(64,90,112);fill-rule:nonzero;"/>
                    <path d="M158.3,186.4C158.3,182.9 159.3,179.4 160.9,176.6C159.3,179.5 158.4,182.9 158.3,186.4M203,197.7L203,197.3C203.6,196.4 204.2,195.4 204.7,194.3C204.7,194.6 204.7,194.9 204.6,195.1C204.3,195.7 204,196 203.8,196.3C203.6,196.6 203.3,197 203.1,197.6M184.9,212.5L184,212.5L185,212.5M202.2,198.9C202.1,198.9 202,198.8 201.8,198.9C202.2,198.4 202.6,197.9 202.9,197.4L202.9,197.6C202.8,198 202.3,198.5 202.2,199M190.3,206.3C189.9,206.4 189.7,206.8 189.5,206.9L186.2,206.9C186,206.9 185.6,207 185.3,207.2C185.1,207.1 184.8,207 184.6,206.9C187.2,206.9 189.9,206.5 192.5,205.5C191.8,205.8 191.1,206.1 190.3,206.3" style="fill:rgb(64,90,112);fill-rule:nonzero;"/>
                    <path d="M178.3,163.6C180.3,163 182.6,162.8 184.8,162.8C187,162.8 189.2,163.2 191.2,163.4C189,162.5 186.1,162 183.7,161.9C181.3,161.7 179.4,161.9 178.9,161.4C178.4,160.9 180.1,160.4 182.6,160.3C183.8,160.3 185.2,160.3 186.4,160.5C187.7,160.7 188.9,160.9 189.9,161.1L188.9,160.7C189.4,160.9 189.9,161.1 190.4,161.1C189.9,160.9 189.1,160.6 188.4,160.4C187.7,160.2 187,159.9 186.7,159.7C187,159.7 187.4,159.6 187.7,159.5C186.3,158.9 184.2,158.5 182.1,158.5C179.9,158.5 177.8,158.6 176.2,158.7C180,158.3 184,158.3 188.1,159.1C192.2,159.9 196.2,161.4 199.9,163.9C203.5,166.3 206.7,169.6 209,173.5C211.3,177.4 212.5,181.8 212.7,186.1C213.4,195.8 209.6,205.2 202.8,211.6C202.1,212.2 200.9,213 199.5,213.8C198.1,214.6 196.4,215.3 195,215.7C190.1,217.7 184.7,218.4 179.3,217.9C173.6,217.2 168.3,214.6 164,210.8C159.7,207 156.4,201.9 154.6,196.1C154.2,194.9 154.2,193.5 154.4,193C154.5,192.8 154.7,192.8 155,193.3C155.3,193.7 155.6,194.6 156.1,195.9C157.9,200.3 160.5,204.4 163.8,207.7C163.5,207.7 163,207.2 162.4,206.6C161.9,206 161.3,205.4 160.9,205.1C161.9,206.6 162.9,207.8 164.1,209C165.2,210.1 166.5,211.2 168,212.1C166,210.8 164.2,209.3 162.6,207.6C164.6,209.7 167,211.7 169.8,213.2C172.5,214.7 175.6,215.9 178.7,216.4C179.8,216.6 180.9,217.1 182.1,217.4C183.3,217.7 184.7,217.8 186.3,217.4C182.1,217.4 177.9,216.5 174.1,214.9C170.3,213.2 166.8,210.8 163.8,207.9C161.2,205.3 159.3,202.4 157.8,199.2C158.3,200.2 158.9,201.2 159.3,202.1C157,197.4 155.7,192.4 155.7,187.3C156,190.9 156.9,194.4 158.3,197.8C159.7,201.2 161.8,204.3 164.4,206.9C167,209.5 170.1,211.7 173.4,213.2C176.8,214.7 180.4,215.4 183.9,215.4C181.9,215.1 179.7,214.8 177.5,214.3C175.3,213.8 173.3,213 172,211.9C177.6,214.8 184.3,215.8 190.7,214.6L189.3,215C191.4,214.9 193.4,214.3 195.4,213.5C197.4,212.7 199.2,211.6 200.9,210.4L201.8,209.8L200.9,210.4C197.7,212.5 194.2,213.9 190.7,214.6C192.3,214.1 194,213.6 195.9,212.8C194.8,213 193.2,213.5 191.6,213.8C189.5,214.3 187.4,214.6 185.3,214.6C188.5,214.5 191.7,213.6 194.3,212.3C190.2,213.6 185.7,214.2 181.5,213.5C183.8,213.7 186.2,213.7 188.5,213.3C192.4,212.8 196.2,211.5 199.6,209.3L199.2,209.6C199.5,209.4 199.7,209.3 200,209.1C201.3,208.2 202.5,207.2 203.7,206.1C204.7,205.1 205.5,203.9 206.1,202.6L206.5,202C206.3,202.4 206.3,202.7 206.8,202C208,200.6 208.8,198.8 209.5,196.9C210.2,195 210.7,193 211.2,191C211.5,189.9 211.5,188.4 211.4,186.8L211.4,185.9C211.4,185.6 211.4,185.2 211.3,184.9C211.3,184 211.1,183.2 210.8,182.4C211,183.2 211.1,184.1 211.3,184.9L211.3,185.9C211.3,185.7 211.2,185.5 211.1,185C211.3,187.9 211.1,190.9 210.3,193.9C209.5,196.8 208.3,199.6 206.6,202.2C206.7,201.8 206.9,201.4 207,201.1C206.8,201.7 206.5,202.2 206.2,202.7C205.1,204.3 203.8,205.8 202.4,207.2C202.8,206.8 203.1,206.3 203.4,205.9C201.4,207.9 199.1,209.5 196.7,210.8C194.2,212.1 191.5,213 188.7,213.5C183.4,214.1 178.1,213.1 173.6,210.7C175.9,212.2 178.8,213.3 181.7,213.7C177.7,213.3 173.8,211.9 170.4,209.8C167,207.6 164.2,204.6 162.3,201.1C163.4,202.1 164.8,203.5 165.8,203.8C165.9,203.6 164.5,201.6 165.5,202.7C167.3,204.5 169,205.9 170.4,206.9C171.9,207.9 173.2,208.4 174.4,208.2C174.6,208.2 173.7,207.1 173.1,206.2C172.5,205.3 172.1,204.4 172.8,204.8C173.9,205.5 176,206.5 178.4,207.2C179.1,207.5 179.8,207.7 180.5,207.8L181,207.8C183.7,208.2 186.2,208.1 187.6,207.9C188.1,207.9 188.6,207.8 189.2,207.7C189.5,207.7 189.7,207.7 190,207.8C190.3,207.6 190.6,207.5 190.9,207.3C192.3,207 193.6,206.5 194.8,205.8C195.5,205.5 196.3,205.3 197,204.9C197,204.9 196.8,204.9 196.8,204.6C198.3,203.6 199.6,202.5 200.7,201.2C201.2,200.7 201.8,200.3 202.3,200C202.5,199 203.3,197.6 204,196.1C204.7,194.5 205.3,192.8 205.5,191.3C205.8,189.8 205.9,188.3 205.8,186.7C205.8,186.4 205.9,186.2 206,185.9C205.8,185.5 205.8,185.1 205.7,184.9C205.7,183.6 205.6,182.6 205.5,181.5C205.4,181.3 205,181.1 204.9,180.7C204.7,179.9 204.3,179.2 204,178.5C203.6,177.7 203.2,176.8 202.7,176C201.1,173.3 199,170.9 196.4,169L196.4,168.6C195.9,168.5 195.3,168 194.9,167.9L195.1,167.9C194.4,167.7 194,167.5 193.7,167.2C193.3,167 193,166.7 192.4,166.4C192.1,166.4 191.8,166.4 191.5,166.3C191.4,166.3 191.2,166.2 191.1,166.1C189.8,165.1 188.2,165 186.5,164.8C184.8,164.5 183.1,164.4 181.3,164.5C179.9,164.6 179.3,164.4 178.3,164.4" style="fill:rgb(64,90,112);fill-rule:nonzero;"/>
                    <path d="M204.9,193.9C205.5,192.5 206,191.1 206.3,189.6C206.1,191.2 205.9,192.7 204.9,193.9M172,203.1C171.7,202.6 171.3,202 170.9,201.5C173.5,204 176.7,205.7 180.2,206.5C178.8,206.3 177.1,205.6 175.7,204.9C174.2,204.2 173,203.4 172,203.1M203,197.5L203,197.3L203,197.5M163.1,200.7L162.9,200.3C163.5,201.2 164.2,202.1 164.9,202.9C164.3,202.3 163.6,201.5 163.1,200.7M159.5,189.4C159.2,187.2 159.2,184.9 159.5,182.7C160.1,179.9 161.2,177.2 162.8,175C160.3,179.3 159.1,184.3 159.5,189.4M167.6,197.7C167.3,197 167.1,196.3 166.8,195.6C167.1,196.3 167.4,196.9 167.8,197.6C167.6,197.6 167.6,197.6 167.5,197.8M169.6,207.2L169.1,206.8C169.6,207.1 170.1,207.4 170.6,207.6C170.4,207.6 169.9,207.3 169.6,207.2M165.4,190.2C165.4,190.7 165.5,191.3 165.7,191.8C165.6,191.5 165.4,191.2 165.3,190.9C165.3,190.7 165.5,190.5 165.5,190.2M165.6,182C165.8,181.3 166,180.6 166.3,180C166,180.8 165.8,181.6 165.6,182.5L165.6,182" style="fill:rgb(64,90,112);fill-rule:nonzero;"/>
                    <path d="M172.1,148.4C174.3,149.3 176.3,150.7 178,152.3C179.7,153.9 181.1,155.7 182.2,157.6C181.3,156.1 180.3,154.7 179.1,153.4C180,154.4 180.7,155.3 181.4,156.4C182,157.4 182.6,158.5 183,159.8C182.7,159.5 182.5,158.9 182.2,158.4C181.9,157.9 181.6,157.5 181.4,157.4C179.8,154.7 177.7,152.3 175.2,150.5C172.7,148.6 169.8,147.2 166.7,146.5C168,146.5 169,146.8 169.8,147.2C170.6,147.6 171.3,148.1 172.1,148.5M184.5,166.6C184.5,166 184.3,165.4 184.2,164.8C184.3,165.4 184.4,166.1 184.5,166.6M142.8,165.9L142.8,167.8L142.8,165.9M163.9,147.8L162.8,147.8C160.1,147.8 157.3,148.1 154.6,149.1C156,148.6 157.6,148.1 159.1,147.8C160.7,147.5 162.3,147.5 163.8,147.8" style="fill:rgb(24,153,181);fill-rule:nonzero;"/>
                    <path d="M166.7,148.8C169.4,149.3 171.9,150.6 173.8,152.3C171.9,150.7 169.4,149.5 166.7,148.8M151.5,181.2L151.9,181.2C152.5,181.8 153.2,182.4 153.9,182.9C153.7,182.9 153.5,182.8 153.3,182.7C152.9,182.4 152.7,182.1 152.5,181.9C152.3,181.7 152,181.5 151.6,181.2M142.9,165.2L142.9,164.5C142.9,164.7 142.9,165 142.8,165.2M150.7,180.4C150.7,180.4 150.8,180.2 150.8,180.1C151.1,180.5 151.4,180.8 151.8,181.2L151.6,181.2C151.3,181 151,180.6 150.6,180.4M146.8,170.2C146.8,169.9 146.5,169.6 146.5,169.5C146.6,168.7 146.8,167.9 146.9,167L146.9,166.3C147,166.1 147.1,166 147.2,165.8C146.8,167.8 146.7,169.9 147.2,172C147.1,171.4 147,170.9 146.9,170.2" style="fill:rgb(24,153,181);fill-rule:nonzero;"/>
                    <path d="M181.1,167.4C181.3,169 181.1,170.8 180.7,172.4C180.3,174.1 179.7,175.7 179.3,177.2C180.3,175.6 181.1,173.5 181.6,171.7C182.1,169.9 182.3,168.4 182.7,168.1C183.1,167.8 183.3,169.2 183,171C182.9,171.9 182.6,172.9 182.3,173.9C182,174.9 181.6,175.8 181.3,176.5C181.5,176.2 181.5,176.2 181.8,175.8C181.6,176.2 181.3,176.5 181.3,176.9C181.6,176.6 181.9,176 182.2,175.5C182.5,175 182.8,174.5 183,174.3L183,175.1C183.7,174.1 184.3,172.6 184.6,171C185,169.4 185.1,167.7 185.4,166.5C185.1,169.4 184.5,172.5 183.3,175.5C182.1,178.5 180.3,181.3 177.9,183.8C175.5,186.2 172.5,188.2 169.3,189.3C166,190.4 162.5,190.8 159.2,190.3C151.7,189.4 145.1,185.1 141.2,179C140.9,178.4 140.4,177.4 140,176.1C139.6,174.9 139.3,173.5 139.2,172.4C138.4,168.4 138.7,164.1 139.9,160.1C141.3,155.9 144,152.2 147.6,149.5C151.2,146.8 155.5,145.1 160.2,144.5C161.1,144.4 162.3,144.5 162.6,144.8C162.7,144.9 162.6,145.1 162.3,145.2C161.9,145.3 161.3,145.4 160.2,145.6C156.6,146.3 153.1,147.7 150.1,149.7C150.1,149.5 150.6,149.1 151.1,148.8C151.6,148.5 152.2,148.2 152.5,147.9C151.2,148.4 150.1,149 149.1,149.7C148.1,150.4 147.1,151.2 146.2,152.2C147.5,150.9 148.9,149.7 150.4,148.8C148.5,150 146.7,151.6 145.1,153.4C143.5,155.3 142.2,157.4 141.3,159.7C141,160.5 140.5,161.3 140.1,162.1C139.7,163 139.4,164 139.5,165.3C140.1,162.1 141.4,159 143.2,156.4C145,153.7 147.4,151.4 150.1,149.6C152.5,148 155,147 157.7,146.3C156.9,146.5 156,146.8 155.3,147C159.2,145.9 163.2,145.7 167.1,146.5C164.3,146.2 161.5,146.3 158.7,146.9C155.9,147.5 153.2,148.6 150.8,150.2C148.4,151.8 146.3,153.8 144.7,156.2C143.1,158.5 142,161.2 141.5,163.9C142.1,162.5 142.6,160.8 143.3,159.2C144,157.6 144.9,156.2 146,155.3C143,159.1 141.2,164.1 141.2,169.2L141.2,168.1C140.9,169.7 141,171.4 141.3,173C141.6,174.6 142.2,176.2 142.8,177.6C142.9,177.9 143,178.1 143.1,178.4L142.8,177.6C141.7,174.9 141.2,172 141.1,169.2C141.2,170.5 141.4,171.8 141.7,173.4C141.7,172.5 141.6,171.2 141.6,170C141.6,168.4 141.6,166.7 141.9,165.1C141.5,167.6 141.7,170.1 142.3,172.3C141.9,169 142.1,165.5 143.3,162.4C142.8,164.1 142.5,166 142.4,167.8C142.2,170.8 142.6,174 143.8,176.9L143.6,176.6C143.6,176.8 143.8,177 143.9,177.3C144.4,178.4 145,179.5 145.7,180.5C146.3,181.4 147.1,182.2 148,182.9L148.4,183.3C148.1,183.1 147.9,183.1 148.4,183.6C149.3,184.7 150.5,185.6 151.9,186.4C153.2,187.2 154.7,187.9 156.2,188.6C157,189 158.1,189.2 159.4,189.4C159.7,189.5 159.9,189.5 160.1,189.4L162.9,189.4L160.2,189.4C160.4,189.3 160.6,189.2 160.9,189.2C158.6,188.9 156.4,188.3 154.3,187.3C152.2,186.3 150.3,184.9 148.6,183.3C148.9,183.4 149.2,183.7 149.3,183.7C148.9,183.4 148.5,183.2 148.2,182.9C147.1,181.8 146.2,180.6 145.4,179.3C145.7,179.7 146,180 146.3,180.2C145.1,178.4 144.2,176.4 143.6,174.3C143,172.2 142.7,170 142.7,167.8C143,163.7 144.6,159.8 147.1,156.7C145.6,158.3 144.4,160.3 143.6,162.5C144.5,159.5 146.1,156.7 148.3,154.5C150.5,152.2 153.2,150.5 156.1,149.6C155.2,150.3 153.9,151.1 153.5,151.8C153.6,151.9 155.3,151.2 154.4,151.8C152.8,152.9 151.5,154 150.5,155C149.5,156 149,156.9 148.9,157.9C148.9,158.1 149.8,157.6 150.6,157.2C151.4,156.9 152.1,156.7 151.7,157.2C151,158 149.9,159.4 149,161.1C148.7,161.6 148.4,162.1 148.2,162.6L148.2,163C147.5,165 147.2,166.9 147.1,168L147.1,169.2C147.1,169.4 147,169.6 146.9,169.8C146.9,170.1 147.1,170.3 147.1,170.6C147.1,171.7 147.3,172.8 147.6,173.8C147.6,174.4 147.8,175 148,175.6C148,175.6 148.1,175.4 148.2,175.6C148.7,176.8 149.4,178 150.2,179.1C150.5,179.6 150.7,180.1 150.9,180.5C151.6,180.8 152.6,181.6 153.7,182.4C154.8,183.2 156,183.9 157.2,184.3C158.3,184.7 159.5,185 160.7,185.2C160.9,185.2 161.1,185.4 161.2,185.5L162,185.5C163,185.6 163.8,185.8 164.6,185.8C164.7,185.8 165,185.5 165.3,185.4C165.9,185.4 166.5,185.2 167.1,185C167.8,184.8 168.5,184.7 169.2,184.4C171.5,183.6 173.6,182.3 175.5,180.6C175.6,180.6 175.7,180.6 175.8,180.7C176,180.3 176.4,180 176.6,179.7L176.6,179.9C176.9,179.4 177.1,179.1 177.3,178.9C177.5,178.7 177.8,178.4 178.1,178C178.2,177.8 178.2,177.6 178.3,177.3C178.3,177.3 178.4,177.1 178.5,177C179.4,176.2 179.8,175 180.1,173.7C180.6,172.5 180.9,171.2 181.1,169.8C181.2,168.7 181.5,168.3 181.6,167.5" style="fill:rgb(24,153,181);fill-rule:nonzero;"/>
                    <path d="M154.1,183.1C155,183.8 156.1,184.4 157.2,184.8C156,184.4 154.9,184 154.1,183.1M152,156.8C152.5,156.7 152.9,156.5 153.4,156.2C151.2,157.8 149.3,160 148.2,162.5C148.6,161.4 149.4,160.3 150.1,159.3C150.9,158.3 151.7,157.5 152,156.7M151.7,181.2L151.9,181.2L151.7,181.2M155.1,150.3L155.4,150.3C154.6,150.5 153.8,150.9 153.1,151.4C153.7,151 154.4,150.7 155.1,150.3M164.2,149.2C165.9,149.3 167.7,149.7 169.3,150.3C171.4,151.2 173.2,152.4 174.7,153.9C171.8,151.4 168.2,149.7 164.2,149.2M156.7,154.2C157.3,154.1 157.8,154 158.4,153.9C157.8,154 157.3,154.2 156.8,154.4L156.8,154.2M149.2,154.3L149.6,153.9C149.3,154.2 149,154.6 148.8,155C148.8,154.9 149.1,154.5 149.3,154.3M162.8,153.6L161.6,153.6C161.8,153.6 162.1,153.5 162.3,153.4C162.4,153.5 162.6,153.6 162.8,153.6M169,155C169.5,155.2 170,155.5 170.4,155.8L168.6,154.9L169,154.9" style="fill:rgb(24,153,181);fill-rule:nonzero;"/>
                </g>
                <g>
                    <path d="M248,179.3C247.4,178.5 246.6,178 245.5,177.6C244.5,177.2 243.5,177.1 242.6,177.1C241.7,177.1 241.5,177.1 240.9,177.3C240.3,177.4 239.8,177.6 239.3,177.9C238.8,178.2 238.4,178.5 238.1,179C237.8,179.4 237.6,180 237.6,180.6C237.6,181.6 238,182.4 238.7,182.9C239.5,183.4 240.4,183.9 241.6,184.3C242.8,184.7 244,185.1 245.4,185.4C246.7,185.8 248,186.3 249.2,187C250.4,187.7 251.3,188.6 252.1,189.8C252.9,191 253.2,192.6 253.2,194.5C253.2,196.4 252.8,198 252.1,199.4C251.4,200.8 250.4,202 249.3,202.9C248.1,203.8 246.7,204.5 245.1,205C243.5,205.4 241.9,205.7 240.1,205.7C238.3,205.7 235.9,205.4 234,204.7C232.1,204 230.4,202.9 228.7,201.4L234,195.6C234.8,196.6 235.7,197.4 236.9,198C238.1,198.6 239.3,198.8 240.5,198.8C241.7,198.8 241.7,198.8 242.3,198.6C242.9,198.5 243.5,198.2 244,198C244.5,197.7 244.9,197.3 245.2,196.9C245.5,196.5 245.7,195.9 245.7,195.3C245.7,194.3 245.3,193.5 244.5,192.9C243.7,192.3 242.7,191.8 241.6,191.4C240.4,191 239.1,190.6 237.8,190.2C236.4,189.8 235.2,189.2 234,188.5C232.8,187.8 231.8,186.9 231.1,185.7C230.4,184.5 229.9,183 229.9,181.2C229.9,179.4 230.3,177.8 231,176.4C231.7,175 232.7,173.9 233.9,173C235.1,172.1 236.5,171.4 238,170.9C239.6,170.4 241.2,170.2 242.8,170.2C244.4,170.2 246.6,170.5 248.3,171C250.1,171.5 251.7,172.5 253.1,173.7L248,179.3ZM273.6,189.1C273.2,188.6 272.8,188.2 272.1,187.8C271.5,187.5 270.8,187.3 270,187.3C268.2,187.3 266.8,187.8 265.8,188.9C264.8,190 264.3,191.4 264.3,193.2C264.3,195 264.8,196.4 265.8,197.5C266.8,198.6 268.2,199.1 270,199.1C271.8,199.1 271.5,198.9 272.1,198.6C272.7,198.2 273.2,197.8 273.6,197.4L278.3,202.4C277.2,203.5 275.9,204.4 274.4,204.8C272.9,205.3 271.4,205.5 270.1,205.5C268.8,205.5 266.6,205.2 265.1,204.6C263.5,204 262.2,203.2 261,202.1C259.8,201 258.9,199.7 258.3,198.3C257.6,196.8 257.3,195.1 257.3,193.3C257.3,191.5 257.6,189.8 258.3,188.3C259,186.8 259.9,185.5 261,184.5C262.2,183.4 263.5,182.6 265.1,182C266.7,181.4 268.4,181.1 270.1,181.1C271.8,181.1 272.9,181.3 274.4,181.8C275.9,182.3 277.2,183.1 278.3,184.2L273.6,189.2L273.6,189.1ZM280.9,181.6L288.1,181.6L288.1,185.3C288.9,183.9 289.8,182.8 290.8,182.1C291.9,181.4 293.2,181 294.8,181L296,181C296.4,181 296.8,181 297.1,181.2L297.1,187.8C296.6,187.6 296.1,187.5 295.6,187.4C295.1,187.4 294.6,187.3 294,187.3C292.6,187.3 291.5,187.5 290.7,187.9C289.9,188.3 289.3,188.8 288.9,189.5C288.5,190.2 288.2,191 288.1,192C288,193 287.9,194 287.9,195.2L287.9,204.9L280.7,204.9L280.7,181.7L280.9,181.6ZM322.7,204.9L315.8,204.9L315.8,201.7C315.5,202.1 315.2,202.6 314.8,203C314.4,203.4 313.9,203.8 313.3,204.2C312.7,204.6 312.1,204.8 311.3,205.1C310.6,205.3 309.8,205.4 308.9,205.4C307.1,205.4 305.6,205.1 304.5,204.6C303.4,204 302.5,203.3 301.9,202.3C301.3,201.3 300.9,200.1 300.7,198.8C300.5,197.5 300.4,196 300.4,194.4L300.4,181.6L307.6,181.6L307.6,195.1C307.6,195.8 307.8,196.5 308,197.1C308.2,197.7 308.6,198.2 309.1,198.6C309.6,199 310.3,199.2 311.2,199.2C312.1,199.2 312.9,199 313.4,198.7C314,198.4 314.4,197.9 314.7,197.4C315,196.8 315.2,196.2 315.3,195.5C315.3,194.8 315.4,194.1 315.4,193.3L315.4,181.7L322.6,181.7L322.6,204.9L322.7,204.9ZM327.8,181.6L334.7,181.6L334.7,184.8C334.9,184.4 335.2,183.9 335.7,183.5C336.1,183.1 336.6,182.7 337.2,182.3C337.8,181.9 338.4,181.7 339.2,181.4C339.9,181.2 340.7,181.1 341.6,181.1C343.2,181.1 344.7,181.4 345.9,182.1C347.2,182.8 348.1,183.8 348.7,185.3C349.5,183.8 350.5,182.7 351.7,182.1C352.9,181.5 354.3,181.1 356.1,181.1C357.9,181.1 359,181.4 360,181.9C361.1,182.4 361.9,183.1 362.5,184.1C363.1,185 363.6,186.1 363.8,187.3C364.1,188.5 364.2,189.8 364.2,191.2L364.2,204.9L357,204.9L357,191.4C357,190.3 356.8,189.4 356.3,188.6C355.8,187.8 355,187.4 353.8,187.4C352.6,187.4 352.3,187.5 351.7,187.8C351.1,188.1 350.7,188.4 350.4,188.9C350.1,189.4 349.8,189.9 349.7,190.6C349.6,191.3 349.5,191.9 349.5,192.6L349.5,204.9L342.3,204.9L342.3,191.1C342.3,190.5 342.2,189.9 342,189.4C341.8,188.9 341.5,188.4 341.1,188C340.7,187.6 340,187.4 339.2,187.4C338.4,187.4 337.5,187.6 337,187.9C336.4,188.2 336,188.7 335.7,189.2C335.4,189.8 335.2,190.4 335.1,191.1C335.1,191.8 335,192.5 335,193.3L335,204.9L327.8,204.9L327.8,181.6Z" style="fill:rgb(64,90,112);fill-rule:nonzero;"/>
                </g>
                <g>
                    <path d="M373.5,205.2C372.6,205.2 371.9,204.9 371.3,204.3C370.7,203.7 370.4,202.9 370.4,202.1C370.4,201.3 370.7,200.5 371.3,199.9C371.9,199.3 372.7,199 373.5,199C374.3,199 375.1,199.3 375.7,199.9C376.3,200.5 376.6,201.3 376.6,202.1C376.6,202.9 376.3,203.7 375.7,204.3C375.1,204.9 374.3,205.2 373.5,205.2ZM382.3,193.5C382.3,191.8 382.6,190.3 383.2,188.9C383.8,187.5 384.7,186.2 385.8,185.1C386.9,184 388.2,183.2 389.6,182.5C391.1,181.9 392.6,181.6 394.3,181.6C396,181.6 397.6,181.9 399,182.5C400.5,183.1 401.7,184 402.8,185.1C403.9,186.2 404.7,187.4 405.4,188.9C406,190.3 406.3,191.9 406.3,193.5C406.3,195.1 406,196.7 405.4,198.2C404.8,199.7 403.9,200.9 402.8,202C401.7,203.1 400.4,203.9 399,204.5C397.5,205.1 396,205.4 394.3,205.4C392.6,205.4 391,205.1 389.6,204.5C388.1,203.9 386.9,203 385.8,202C384.7,200.9 383.9,199.7 383.2,198.2C382.6,196.7 382.3,195.2 382.3,193.5ZM386.9,193.5C386.9,194.6 387.1,195.7 387.4,196.7C387.7,197.7 388.2,198.5 388.9,199.2C389.6,199.9 390.3,200.4 391.2,200.8C392.1,201.2 393.2,201.4 394.3,201.4C395.4,201.4 396.5,201.2 397.4,200.8C398.3,200.4 399.1,199.9 399.7,199.2C400.3,198.5 400.8,197.7 401.2,196.7C401.6,195.7 401.7,194.7 401.7,193.5C401.7,192.3 401.5,191.3 401.2,190.3C400.8,189.3 400.4,188.5 399.7,187.8C399,187.1 398.3,186.6 397.4,186.2C396.5,185.8 395.4,185.6 394.3,185.6C393.2,185.6 392.1,185.8 391.2,186.2C390.3,186.6 389.5,187.1 388.9,187.8C388.3,188.5 387.8,189.3 387.4,190.3C387,191.3 386.9,192.3 386.9,193.5ZM411.8,182.2L416.1,182.2L416.1,185.7C416.4,185.1 416.8,184.5 417.2,184.1C417.7,183.6 418.2,183.2 418.8,182.8C419.4,182.4 420,182.2 420.7,182C421.4,181.8 422.1,181.7 422.8,181.7C423.5,181.7 424.1,181.7 424.7,182L424.5,186.6C424.1,186.6 423.8,186.4 423.4,186.4L422.3,186.4C420.2,186.4 418.6,187 417.5,188.2C416.4,189.4 415.8,191.2 415.8,193.7L415.8,205.1L411.5,205.1L411.5,182.4L411.8,182.2Z" style="fill:rgb(64,90,112);fill-rule:nonzero;"/>
                </g>
                <path d="M451.3,204.7C451.3,206.4 451,208 450.4,209.4C449.8,210.8 449,212 447.9,213.1C446.8,214.1 445.5,214.9 444,215.5C442.5,216.1 440.8,216.4 438.9,216.4C437,216.4 434.7,216.1 432.9,215.5C431.1,214.9 429.4,213.8 427.8,212.3L430.7,208.7C431.8,209.9 433,210.8 434.3,211.4C435.6,212 437.1,212.3 438.7,212.3C440.3,212.3 441.6,212.1 442.7,211.6C443.8,211.1 444.6,210.5 445.2,209.8C445.8,209.1 446.3,208.2 446.5,207.3C446.8,206.4 446.9,205.4 446.9,204.5L446.9,201.2L446.8,201.2C446,202.6 444.8,203.6 443.4,204.2C442,204.9 440.5,205.2 438.9,205.2C437.3,205.2 435.7,204.9 434.3,204.3C432.9,203.7 431.7,202.9 430.6,201.9C429.6,200.9 428.8,199.6 428.2,198.2C427.6,196.8 427.3,195.2 427.3,193.6C427.3,192 427.6,190.4 428.1,188.9C428.6,187.4 429.4,186.2 430.4,185.1C431.4,184 432.6,183.2 434,182.6C435.4,182 437,181.7 438.8,181.7C440.6,181.7 441.8,182 443.3,182.7C444.8,183.4 445.9,184.3 446.7,185.5L446.7,182.2L451,182.2L451,204.7L451.3,204.7ZM439.5,185.7C438.4,185.7 437.3,185.9 436.4,186.3C435.5,186.7 434.7,187.2 434.1,187.9C433.5,188.6 433,189.4 432.6,190.4C432.2,191.4 432.1,192.4 432.1,193.6C432.1,195.9 432.8,197.7 434.1,199.1C435.4,200.5 437.3,201.2 439.6,201.2C441.9,201.2 443.7,200.5 445.1,199.1C446.5,197.7 447.1,195.9 447.1,193.6C447.1,191.3 446.9,191.4 446.6,190.4C446.2,189.4 445.8,188.6 445.1,187.9C444.4,187.2 443.7,186.7 442.8,186.3C441.9,185.9 440.8,185.7 439.7,185.7L439.5,185.7ZM458.8,177.4L460.5,177.4L461.6,180.5L462.7,177.4L464.4,177.4L464.4,182.2L463.1,182.2L463.1,179.1L462,182.2L461.2,182.2L460.1,179.1L460.1,182.2L458.8,182.2L458.8,177.4ZM455.1,178.5L453.7,178.5L453.7,177.4L457.7,177.4L457.7,178.5L456.3,178.5L456.3,182.2L455,182.2L455,178.5L455.1,178.5Z" style="fill:rgb(64,90,112);fill-rule:nonzero;"/>
            </g>
        </g>
    </g>
</svg>
