<?xml version="1.0" encoding="UTF-8" standalone="no"?>
<!DOCTYPE svg PUBLIC "-//W3C//DTD SVG 1.1//EN" "http://www.w3.org/Graphics/SVG/1.1/DTD/svg11.dtd">
<svg width="100%" height="100%" viewBox="0 0 108 105" version="1.1" xmlns="http://www.w3.org/2000/svg" xmlns:xlink="http://www.w3.org/1999/xlink" xml:space="preserve" xmlns:serif="http://www.serif.com/" style="fill-rule:evenodd;clip-rule:evenodd;stroke-linejoin:round;stroke-miterlimit:2;">
    <g transform="matrix(1,0,0,1,-269.291,-124.17)">
        <g id="PSPO-1" transform="matrix(0.260662,0,0,0.401522,269.291,124.17)">
            <rect x="0" y="0" width="411.3" height="260" style="fill:none;"/>
            <g transform="matrix(0.635479,0,0,0.412544,15.3877,10.2765)">
                <path d="M299.4,0L0,0L0,299C0,464.1 134,598 299.4,598C464.8,598 598.8,464.1 598.8,299C598.8,133.9 464.8,0 299.4,0" style="fill:rgb(64,90,112);fill-rule:nonzero;"/>
                <path d="M89.1,90.9L12.3,90.9C11.5,90.9 10.9,90.3 10.9,89.5L10.9,14C10.9,13.2 11.5,12.6 12.3,12.6L89.1,12.6C89.9,12.6 90.5,13.2 90.5,14L90.5,89.5C90.5,90.3 89.9,90.9 89.1,90.9" style="fill:rgb(179,199,140);fill-rule:nonzero;"/>
                <path d="M80.5,82.9L22.9,82.9C22.5,82.9 22.1,82.5 22.1,82.1L22.1,22.4C22.1,22 22.5,21.6 22.9,21.6L80.5,21.6C80.9,21.6 81.3,22 81.3,22.4L81.3,82.1C81.3,82.5 80.9,82.9 80.5,82.9" style="fill:white;fill-rule:nonzero;"/>
                <path d="M31,33.2L48.1,33.2L48.1,39L31,39L31,33.2ZM30.8,46.5L49.9,46.5L49.9,54.3L30.8,54.3L30.8,46.5ZM30.4,57.7L54,57.7L54,63.6L30.4,63.6L30.4,57.7ZM30.4,67.4L51.7,67.4L51.7,73.1L30.4,73.1L30.4,67.4ZM71,73.3L65.2,67.7L59.8,73.3L59.8,33.4L71,33.4L71,73.3Z" style="fill:rgb(179,199,140);fill-rule:nonzero;"/>
                <path d="M580.8,300.1C580.8,454.3 455.6,579.3 301.2,579.3C146.8,579.3 21.6,454.3 21.6,300.1C21.6,145.9 146.8,21 301.2,21C455.6,21 580.8,146 580.8,300.2" style="fill:rgb(128,163,62);fill-rule:nonzero;"/>
                <path d="M582.8,300.1L578.8,300.1C578.8,376.6 547.7,445.9 497.5,496.1C447.3,546.3 377.9,577.3 301.2,577.3C224.5,577.3 155.2,546.3 104.9,496.1C54.7,445.9 23.6,376.7 23.6,300.1C23.6,223.6 54.7,154.3 104.9,104.1C155.2,54 224.5,22.9 301.2,22.9C377.9,22.9 447.2,53.9 497.5,104.1C547.7,154.3 578.8,223.5 578.8,300.1L582.8,300.1C582.8,144.8 456.8,19 301.3,19C145.8,19 19.8,144.9 19.8,300.1C19.8,455.4 145.8,581.2 301.3,581.2C456.8,581.2 582.8,455.3 582.8,300.1Z" style="fill:white;fill-rule:nonzero;"/>
                <path d="M534.5,298.8C534.5,428.4 429.3,533.4 299.5,533.4C169.7,533.4 64.5,428.3 64.5,298.8C64.5,169.3 169.7,64.1 299.5,64.1C429.3,64.1 534.5,169.2 534.5,298.7M38.4,233.2L40.9,225.7C41.2,224.7 41.7,223.7 42.2,222.8C42.7,221.9 43.3,221.2 44,220.7C44.7,220.2 45.5,219.8 46.4,219.7C47.3,219.6 48.4,219.7 49.6,220.1C50.8,220.5 51.7,221 52.4,221.6C53.1,222.2 53.5,223 53.8,223.8C54.1,224.6 54.1,225.5 54,226.5C53.9,227.5 53.7,228.5 53.3,229.6L52.2,232.8L60.1,235.4L58.6,239.8L38.4,233.1L38.4,233.2ZM48.4,231.6L49.4,228.6L49.7,227.4L49.7,226.3C49.7,225.9 49.4,225.6 49.2,225.3C48.9,225 48.6,224.8 48.1,224.6C47.6,224.4 47.1,224.4 46.7,224.6C46.3,224.8 46,225 45.7,225.3C45.4,225.6 45.2,226 45,226.4C44.8,226.8 44.6,227.3 44.5,227.7L43.7,230L48.5,231.6L48.4,231.6ZM45,213.9L48.1,206.3C48.5,205.3 49,204.4 49.6,203.6C50.2,202.8 50.8,202.1 51.5,201.6C52.2,201.1 53.1,200.8 54,200.7C54.9,200.7 56,200.8 57.1,201.3C58.5,201.9 59.5,202.7 60.2,203.8C60.9,204.9 61.1,206.2 60.7,207.7L71.1,206.1L69,211.3L59.5,212.2L58.6,214.3L66.4,217.5L64.6,221.8L45,213.7L45,213.9ZM54.9,212.9L56,210.3C56.2,209.9 56.3,209.5 56.5,209C56.7,208.6 56.7,208.1 56.7,207.7C56.7,207.3 56.7,206.9 56.4,206.6C56.2,206.2 55.8,206 55.3,205.7C54.8,205.5 54.4,205.4 54,205.5C53.6,205.5 53.3,205.7 53,206C52.7,206.2 52.5,206.6 52.2,207L51.6,208.2L50.4,211L54.9,212.8L54.9,212.9ZM62.1,200.1C60.6,199.3 59.3,198.4 58.4,197.2C57.4,196.1 56.8,194.8 56.4,193.5C56,192.2 55.9,190.7 56.1,189.3C56.3,187.8 56.7,186.3 57.5,184.9C58.3,183.5 59.2,182.2 60.3,181.2C61.4,180.2 62.6,179.5 63.9,179C65.2,178.5 66.6,178.4 68.1,178.5C69.6,178.6 71.1,179.1 72.6,179.8C74.1,180.6 75.4,181.5 76.3,182.7C77.3,183.8 78,185.1 78.3,186.4C78.7,187.8 78.8,189.2 78.6,190.6C78.4,192.1 78,193.6 77.2,195C76.4,196.5 75.5,197.7 74.4,198.7C73.3,199.7 72.1,200.4 70.8,200.9C69.5,201.4 68.1,201.5 66.6,201.4C65.1,201.3 63.6,200.8 62.1,200.1ZM64.3,195.8C65.2,196.3 66.1,196.5 67,196.6C67.9,196.7 68.7,196.6 69.5,196.4C70.3,196.2 71,195.8 71.7,195.2C72.4,194.6 72.9,193.9 73.4,193C73.9,192.1 74.1,191.2 74.2,190.4C74.2,189.5 74.2,188.7 73.9,187.9C73.6,187.1 73.2,186.4 72.6,185.7C72,185 71.3,184.5 70.4,184C69.5,183.6 68.6,183.3 67.8,183.2C66.9,183.1 66.1,183.2 65.3,183.4C64.5,183.6 63.8,184 63.1,184.6C62.4,185.2 61.9,185.9 61.4,186.8C60.9,187.7 60.7,188.6 60.6,189.4C60.6,190.3 60.6,191.1 60.9,191.9C61.2,192.7 61.6,193.4 62.2,194.1C62.8,194.8 63.5,195.3 64.4,195.8L64.3,195.8ZM65.8,170.5L73.3,158.4L77,160.7L71.9,168.8L75.6,171.1L80.3,163.6L84,165.9L79.3,173.4L86.3,177.8L83.8,181.8L65.8,170.6L65.8,170.5Z" style="fill:white;fill-rule:nonzero;"/>
                <path d="M76.1,154.1L84.6,142.4L88.1,144.9L82.4,152.8L85.6,155.1L91,147.6L94.5,150.1L89.1,157.6L92.6,160.1L98.6,151.8L102.1,154.3L93.3,166.4L76.1,153.9L76.1,154.1ZM98.6,133.3C98,133.3 97.4,133.5 96.8,133.8C96.2,134.2 95.7,134.6 95.4,135L94.8,135.9C94.6,136.2 94.5,136.6 94.4,136.9L94.4,137.9C94.4,138.2 94.7,138.5 95,138.8C95.5,139.2 96,139.3 96.6,139.2C97.2,139 97.8,138.8 98.4,138.3C99,137.9 99.7,137.4 100.4,136.9C101.1,136.4 101.9,136 102.7,135.7C103.5,135.4 104.3,135.3 105.2,135.4C106.1,135.4 107,135.9 108,136.7C108.9,137.4 109.6,138.3 110,139.2C110.4,140.1 110.6,141 110.6,142C110.6,142.9 110.4,143.9 109.9,144.8C109.5,145.7 108.9,146.6 108.2,147.5C107.3,148.6 106.4,149.4 105.3,150.1C104.2,150.7 103,151.2 101.6,151.4L100.9,146.5C101.7,146.5 102.5,146.4 103.2,146C103.9,145.7 104.5,145.2 105,144.6C105.2,144.3 105.5,144 105.6,143.6C105.8,143.2 105.9,142.9 106,142.5L106,141.5C106,141.2 105.7,140.9 105.4,140.7C104.9,140.3 104.4,140.2 103.8,140.3C103.2,140.4 102.6,140.7 101.9,141.1C101.2,141.5 100.5,142 99.8,142.5C99.1,143 98.3,143.4 97.5,143.7C96.7,144 95.9,144.1 95,144C94.1,144 93.2,143.5 92.3,142.8C91.4,142.1 90.8,141.3 90.4,140.4C90,139.5 89.8,138.6 89.9,137.6C89.9,136.7 90.1,135.7 90.5,134.8C90.9,133.9 91.4,133 92.1,132.2C92.9,131.3 93.7,130.5 94.7,129.8C95.7,129.1 96.8,128.7 97.9,128.5L98.6,133.2L98.6,133.3ZM110.9,119.7C110.3,119.7 109.7,119.7 109.1,120.1C108.5,120.4 108,120.8 107.6,121.2C107.4,121.4 107.2,121.7 107,122C106.8,122.3 106.7,122.6 106.6,123C106.6,123.3 106.5,123.7 106.6,124C106.6,124.3 106.8,124.6 107.1,124.9C107.6,125.3 108.1,125.5 108.7,125.4C109.3,125.3 109.9,125 110.6,124.7L112.7,123.5C113.5,123.1 114.2,122.7 115.1,122.5C116,122.3 116.8,122.2 117.6,122.4C118.4,122.6 119.4,123.1 120.3,123.9C121.2,124.7 121.8,125.6 122.1,126.5C122.4,127.4 122.6,128.4 122.5,129.3C122.5,130.2 122.1,131.2 121.6,132.1C121.1,133 120.5,133.9 119.7,134.7C118.8,135.7 117.7,136.5 116.6,137.1C115.5,137.7 114.2,138 112.8,138.1L112.4,133.2C113.2,133.2 114,133.2 114.7,132.9C115.5,132.6 116.1,132.2 116.6,131.6C116.9,131.3 117.1,131 117.3,130.7C117.5,130.4 117.6,130 117.7,129.7L117.7,128.7C117.7,128.4 117.5,128.1 117.2,127.8C116.7,127.4 116.2,127.2 115.6,127.3C115,127.4 114.3,127.6 113.6,128C112.9,128.4 112.2,128.8 111.4,129.2C110.6,129.6 109.8,130 109,130.2C108.2,130.4 107.3,130.5 106.5,130.3C105.6,130.2 104.8,129.7 103.9,128.9C103.1,128.1 102.5,127.3 102.2,126.3C101.9,125.4 101.8,124.5 101.9,123.5C101.9,122.6 102.3,121.6 102.7,120.7C103.2,119.8 103.8,119 104.5,118.2C105.3,117.3 106.2,116.6 107.3,116C108.3,115.4 109.4,115.1 110.6,115L110.9,119.7ZM112.6,110.7L116,107.5L130.7,122.8L127.3,126L112.6,110.7ZM126,112.4C124.9,111.1 124.1,109.7 123.7,108.3C123.2,106.9 123.1,105.5 123.2,104.1C123.3,102.7 123.8,101.3 124.5,100C125.2,98.7 126.2,97.5 127.5,96.4C128.8,95.3 130.1,94.5 131.5,94C132.9,93.5 134.3,93.3 135.7,93.3C137.1,93.3 138.5,93.8 139.8,94.4C141.1,95.1 142.3,96.1 143.4,97.4C144.5,98.7 145.3,100.1 145.7,101.5C146.1,102.9 146.3,104.3 146.2,105.7C146.1,107.1 145.6,108.5 144.9,109.8C144.2,111.1 143.2,112.3 141.9,113.4C140.6,114.5 139.3,115.3 137.9,115.8C136.5,116.3 135.1,116.5 133.7,116.5C132.3,116.5 130.9,116 129.6,115.4C128.3,114.7 127.1,113.7 126,112.4ZM129.7,109.3C130.3,110.1 131.1,110.7 131.8,111.1C132.6,111.5 133.4,111.8 134.2,111.9C135,111.9 135.9,111.9 136.7,111.6C137.5,111.3 138.3,110.9 139.1,110.2C139.9,109.6 140.4,108.8 140.8,108.1C141.2,107.3 141.4,106.5 141.5,105.7C141.5,104.9 141.5,104 141.1,103.2C140.8,102.4 140.3,101.6 139.7,100.8C139.1,100.1 138.4,99.5 137.6,99C136.8,98.6 136,98.3 135.2,98.2C134.4,98.2 133.5,98.2 132.7,98.5C131.9,98.8 131.1,99.2 130.3,99.9C129.5,100.5 129,101.3 128.6,102C128.2,102.8 128,103.6 127.9,104.4C127.9,105.2 127.9,106.1 128.3,106.9C128.6,107.7 129.1,108.5 129.7,109.3ZM140.9,86.5L146.1,82.9L161.9,89.9L153.5,77.8L157.3,75.1L169.4,92.5L164.4,96L148.2,88.9L156.8,101.3L153,104L140.9,86.6L140.9,86.5ZM169,68.2L172.4,66.3L190.8,80.3L186.2,82.9L182.4,79.9L175.2,83.9L175.8,88.7L171.3,91.2L169,68.2ZM173.6,72.7L174.6,79.7L179.1,77.2L173.6,72.7ZM184,60.2L188.2,58.2L195.3,73.5L203.2,69.8L205,73.7L192.9,79.3L184,60L184,60.2ZM220.4,51.1C219.9,50.8 219.3,50.6 218.6,50.6C217.9,50.6 217.3,50.6 216.7,50.9C216.4,51 216.1,51.2 215.7,51.4C215.4,51.6 215.1,51.8 214.9,52.1C214.7,52.4 214.5,52.7 214.4,53L214.4,54.1C214.6,54.7 215,55.1 215.6,55.3C216.2,55.5 216.8,55.5 217.6,55.5L220.1,55.5C221,55.5 221.8,55.5 222.7,55.7C223.5,55.9 224.3,56.2 225,56.8C225.7,57.3 226.2,58.2 226.7,59.4C227.1,60.5 227.2,61.6 227.1,62.5C227,63.5 226.6,64.4 226.1,65.2C225.6,66 224.9,66.7 224.1,67.3C223.3,67.9 222.3,68.4 221.3,68.7C220,69.2 218.7,69.4 217.5,69.4C216.2,69.4 215,69.1 213.7,68.6L215.7,64.1C216.4,64.5 217.1,64.8 217.9,64.9C218.7,65 219.5,64.9 220.2,64.7C220.6,64.6 220.9,64.4 221.2,64.2C221.5,64 221.8,63.7 222.1,63.5C222.3,63.2 222.5,62.9 222.6,62.6C222.7,62.3 222.6,61.9 222.6,61.6C222.4,61 222,60.6 221.4,60.4C220.8,60.2 220.1,60.1 219.3,60.1L216.8,60.1C215.9,60.1 215,60.1 214.2,59.9C213.4,59.7 212.6,59.4 211.9,58.9C211.2,58.4 210.7,57.6 210.3,56.4C209.9,55.3 209.8,54.3 210,53.3C210.1,52.3 210.5,51.5 211,50.7C211.5,49.9 212.2,49.2 213,48.6C213.8,48 214.7,47.5 215.7,47.2C216.8,46.8 218,46.6 219.2,46.5C220.4,46.5 221.5,46.7 222.6,47.1L220.7,51.5L220.4,51.1ZM241.6,45.5C241,45.1 240.4,44.8 239.6,44.7C238.9,44.6 238.1,44.7 237.2,44.9C236.3,45.1 235.6,45.5 235,46C234.4,46.5 233.9,47.1 233.5,47.9C233.1,48.6 232.9,49.4 232.8,50.3C232.8,51.2 232.8,52.1 233,53.1C233.3,54.1 233.6,54.9 234.1,55.6C234.6,56.3 235.2,56.9 235.9,57.4C236.6,57.9 237.3,58.2 238.1,58.3C238.9,58.4 239.7,58.4 240.5,58.2C241.4,58 242.2,57.5 242.8,57C243.4,56.5 243.9,55.7 244.1,54.9L248.6,56.7C248,58.1 247.2,59.3 246,60.3C244.8,61.2 243.5,61.9 242.1,62.2C240.5,62.6 238.9,62.8 237.5,62.6C236,62.5 234.7,62 233.4,61.4C232.2,60.7 231.1,59.8 230.2,58.6C229.3,57.4 228.6,56 228.2,54.3C227.8,52.6 227.7,51.1 227.9,49.6C228.1,48.1 228.6,46.8 229.3,45.6C230,44.4 231,43.4 232.2,42.5C233.4,41.6 234.8,41 236.4,40.6C237,40.4 237.6,40.3 238.3,40.3L240.3,40.3C241,40.3 241.6,40.5 242.3,40.8C243,41 243.6,41.4 244.2,41.8L241.5,45.6L241.6,45.5ZM248.5,38.3L256.6,37C257.7,36.8 258.7,36.8 259.7,36.8C260.7,36.8 261.6,37.1 262.4,37.4C263.2,37.8 263.9,38.3 264.4,39.1C264.9,39.9 265.3,40.8 265.5,42.1C265.7,43.6 265.5,44.9 265,46.1C264.4,47.3 263.4,48.1 262,48.6L268.8,56.6L263.3,57.5L257.5,49.9L255.2,50.3L256.6,58.7L252,59.5L248.5,38.5L248.5,38.3ZM254.6,46.2L257.3,45.7C257.7,45.7 258.2,45.5 258.6,45.4C259.1,45.3 259.5,45.1 259.8,44.9C260.1,44.7 260.4,44.4 260.6,44C260.8,43.6 260.8,43.2 260.7,42.6C260.7,42.1 260.4,41.7 260.2,41.4C259.9,41.1 259.6,40.9 259.3,40.8C258.9,40.7 258.5,40.6 258.1,40.7C257.7,40.7 257.2,40.7 256.8,40.8L253.8,41.3L254.6,46.1L254.6,46.2ZM288.4,46.5C288.5,47.8 288.4,48.9 288.1,50C287.8,51.1 287.3,52.1 286.6,52.9C285.9,53.7 285,54.4 284,55C282.9,55.5 281.7,55.9 280.2,56C278.7,56.1 277.4,56 276.3,55.7C275.1,55.4 274.2,54.8 273.3,54.1C272.5,53.4 271.8,52.5 271.4,51.5C270.9,50.5 270.6,49.3 270.5,48.1L269.4,35.1L274.1,34.7L275.2,47.5C275.2,48.2 275.4,48.8 275.7,49.3C276,49.8 276.3,50.3 276.7,50.7C277.1,51.1 277.6,51.4 278.1,51.5C278.6,51.7 279.2,51.7 279.8,51.7C280.4,51.7 281,51.5 281.5,51.2C282,50.9 282.4,50.6 282.8,50.1C283.1,49.7 283.4,49.2 283.6,48.6C283.8,48 283.8,47.4 283.8,46.7L282.7,33.9L287.4,33.5L288.5,46.5L288.4,46.5ZM293.8,33.1L300.9,33.1L305.5,47.2L310.7,33.4L317.7,33.4L317.3,54.8L312.6,54.8L312.9,38.4L307,54.6L303.4,54.6L298.4,38.1L298.1,54.4L293.4,54.4L293.8,33.1ZM333.7,35.3L341.5,36.5C342.6,36.7 343.6,36.9 344.5,37.3C345.4,37.6 346.2,38.1 346.9,38.7C347.6,39.3 348,40 348.3,40.9C348.6,41.8 348.7,42.9 348.5,44.1C348.3,45.3 348,46.3 347.4,47.1C346.9,47.9 346.2,48.4 345.5,48.8C344.7,49.2 343.9,49.4 342.9,49.5C341.9,49.5 340.9,49.5 339.8,49.3L336.4,48.8L335.2,57L330.6,56.3L333.8,35.3L333.7,35.3ZM337,44.9L340.1,45.4L341.3,45.4C341.7,45.4 342.1,45.3 342.4,45.2C342.7,45.1 343,44.8 343.3,44.5C343.6,44.2 343.7,43.8 343.8,43.3C343.8,42.8 343.8,42.3 343.6,42C343.4,41.6 343.1,41.3 342.8,41.1C342.4,40.9 342,40.7 341.6,40.6C341.1,40.5 340.7,40.4 340.2,40.3L337.8,39.9L337,44.9ZM354,38.7L362,40.6C363.1,40.8 364,41.2 364.9,41.6C365.8,42 366.5,42.6 367.1,43.2C367.7,43.8 368.1,44.6 368.3,45.5C368.5,46.4 368.5,47.5 368.3,48.7C368,50.2 367.3,51.3 366.3,52.2C365.3,53 364,53.4 362.5,53.4L365.7,63.4L360.2,62.1L357.8,52.8L355.6,52.3L353.7,60.6L349.1,59.5L353.9,38.8L354,38.7ZM356.6,48.3L359.3,48.9C359.7,48.9 360.1,49.1 360.6,49.2L361.9,49.2C362.3,49.2 362.7,49 363,48.7C363.3,48.4 363.5,48 363.7,47.5C363.8,47 363.8,46.5 363.7,46.2C363.6,45.8 363.3,45.5 363,45.3C362.7,45.1 362.4,44.9 361.9,44.7C361.5,44.5 361.1,44.4 360.7,44.3L357.7,43.6L356.6,48.3ZM370.4,53.4C370.9,51.8 371.7,50.4 372.7,49.3C373.7,48.2 374.8,47.3 376.1,46.7C377.4,46.1 378.8,45.8 380.2,45.7C381.7,45.7 383.2,45.9 384.8,46.4C386.4,46.9 387.7,47.7 388.9,48.6C390.1,49.5 391,50.6 391.6,51.9C392.3,53.1 392.6,54.5 392.8,56C393,57.5 392.7,59 392.2,60.7C391.7,62.4 390.9,63.7 389.9,64.8C388.9,65.9 387.8,66.8 386.5,67.4C385.2,68 383.8,68.3 382.4,68.4C380.9,68.4 379.4,68.2 377.8,67.7C376.2,67.2 374.9,66.4 373.7,65.5C372.5,64.6 371.6,63.5 371,62.2C370.3,61 370,59.6 369.8,58.1C369.7,56.6 369.9,55.1 370.4,53.4ZM375,54.9C374.7,55.8 374.5,56.8 374.6,57.7C374.6,58.6 374.8,59.4 375.2,60.2C375.6,61 376.1,61.6 376.7,62.2C377.4,62.8 378.2,63.2 379.1,63.5C380,63.8 381,63.9 381.8,63.9C382.7,63.9 383.5,63.6 384.2,63.2C384.9,62.8 385.6,62.3 386.1,61.6C386.7,60.9 387.1,60.1 387.4,59.1C387.7,58.2 387.8,57.3 387.8,56.4C387.8,55.5 387.6,54.7 387.2,53.9C386.8,53.1 386.3,52.5 385.7,51.9C385,51.3 384.2,50.9 383.3,50.6C382.4,50.3 381.4,50.2 380.6,50.2C379.7,50.2 378.9,50.5 378.2,50.9C377.5,51.3 376.8,51.8 376.2,52.5C375.6,53.2 375.2,54 374.9,54.9L375,54.9ZM400.5,52.6L406.9,55.5C408.5,56.2 409.8,57 411.1,58C412.3,59 413.3,60.1 414,61.3C414.7,62.5 415.1,63.9 415.1,65.4C415.1,66.9 414.8,68.6 414,70.3C413.3,71.9 412.4,73.1 411.2,74C410.1,74.9 408.8,75.6 407.5,75.9C406.1,76.3 404.7,76.4 403.2,76.2C401.7,76 400.2,75.6 398.8,75L391.8,71.9L400.5,52.5L400.5,52.6ZM397.8,70L400,71C401,71.4 401.9,71.8 402.9,71.9C403.8,72.1 404.7,72.1 405.6,71.9C406.4,71.7 407.2,71.3 407.9,70.7C408.6,70.1 409.2,69.3 409.7,68.2C410.1,67.3 410.3,66.3 410.3,65.5C410.3,64.6 410,63.8 409.6,63.1C409.2,62.4 408.6,61.7 407.9,61.1C407.2,60.5 406.4,60 405.5,59.6L403,58.5L397.8,70ZM432.1,83.1C431.5,84.2 430.8,85.1 429.9,85.9C429.1,86.6 428.1,87.2 427.1,87.5C426.1,87.8 425,87.9 423.8,87.7C422.6,87.5 421.4,87.1 420.1,86.4C418.8,85.7 417.8,84.9 417,83.9C416.2,83 415.7,82 415.4,80.9C415.1,79.9 415.1,78.8 415.3,77.7C415.5,76.6 415.9,75.5 416.5,74.4L422.9,63L427,65.3L420.7,76.5C420.4,77.1 420.2,77.7 420.1,78.3L420.1,80C420.2,80.5 420.5,81 420.8,81.5C421.1,82 421.6,82.3 422.1,82.6C422.6,82.9 423.2,83.1 423.8,83.1C424.4,83.1 424.9,83.1 425.4,82.9C425.9,82.7 426.4,82.4 426.9,82.1C427.4,81.7 427.7,81.2 428.1,80.7L434.4,69.5L438.5,71.8L432.1,83.2L432.1,83.1ZM452,87.4C452,86.7 451.7,86 451.3,85.4C450.9,84.8 450.4,84.2 449.6,83.7C448.9,83.2 448.1,82.9 447.3,82.8C446.5,82.7 445.7,82.7 444.9,82.8C444.1,83 443.3,83.4 442.6,83.9C441.9,84.4 441.2,85.1 440.7,85.9C440.1,86.7 439.8,87.6 439.5,88.4C439.3,89.3 439.2,90.1 439.3,90.9C439.4,91.7 439.7,92.5 440.1,93.1C440.5,93.8 441.1,94.4 441.8,94.8C442.6,95.3 443.4,95.7 444.2,95.7C445,95.7 445.9,95.7 446.7,95.3L448.3,99.9C446.8,100.4 445.4,100.6 443.9,100.3C442.4,100 441.1,99.5 439.9,98.7C438.5,97.8 437.4,96.7 436.5,95.5C435.6,94.3 435.1,93 434.7,91.6C434.4,90.2 434.4,88.8 434.7,87.3C435,85.8 435.6,84.4 436.6,83C437.6,81.6 438.7,80.5 439.9,79.7C441.1,78.9 442.5,78.4 443.9,78.1C445.3,77.9 446.7,77.9 448.2,78.3C449.7,78.7 451.1,79.3 452.4,80.2C452.9,80.5 453.4,80.9 453.9,81.4C454.4,81.9 454.8,82.4 455.2,82.9C455.6,83.5 455.9,84.1 456.2,84.7C456.5,85.4 456.6,86.1 456.7,86.8L452.1,87.2L452,87.4ZM462.4,93.4L457.6,89.6L460.2,86.4L473.4,96.8L470.8,100L466,96.2L455.4,109.6L451.7,106.7L462.3,93.3L462.4,93.4ZM475.5,112.5C476.7,111.3 478,110.4 479.4,109.9C480.8,109.3 482.2,109.1 483.6,109.1C485,109.1 486.4,109.5 487.7,110.1C489.1,110.7 490.3,111.6 491.5,112.8C492.7,114 493.6,115.2 494.2,116.6C494.8,118 495.1,119.3 495.2,120.8C495.3,122.3 495,123.6 494.4,125C493.8,126.4 492.9,127.7 491.7,128.9C490.5,130.1 489.2,131 487.8,131.5C486.4,132.1 485,132.3 483.6,132.3C482.2,132.3 480.8,131.9 479.5,131.3C478.1,130.7 476.9,129.8 475.7,128.6C474.5,127.4 473.6,126.2 473,124.8C472.4,123.4 472.1,122.1 472,120.6C472,119.2 472.2,117.8 472.8,116.4C473.4,115 474.3,113.7 475.5,112.5ZM478.9,115.9C478.2,116.6 477.7,117.4 477.3,118.2C476.9,119 476.7,119.8 476.7,120.7C476.7,121.6 476.8,122.4 477.2,123.2C477.5,124 478,124.8 478.8,125.5C479.5,126.2 480.3,126.7 481.1,127.1C481.9,127.5 482.7,127.6 483.6,127.6C484.4,127.6 485.3,127.4 486.1,127C486.9,126.6 487.7,126.1 488.4,125.4C489.1,124.7 489.6,124 490,123.1C490.4,122.2 490.6,121.5 490.6,120.6C490.6,119.8 490.5,118.9 490.1,118.1C489.8,117.3 489.3,116.5 488.5,115.8C487.8,115.1 487,114.6 486.2,114.2C485.4,113.9 484.6,113.7 483.7,113.7C482.9,113.7 482,113.9 481.2,114.3C480.4,114.7 479.6,115.2 478.9,115.9ZM501.5,123.5L504.7,127.5L496.2,138.7L509.6,133.7L512.3,137.1L504.1,149.3L517.2,143.4L520.2,147.1L499.7,155.5L497.1,152.2L505.7,139.4L491.3,144.9L488.8,141.8L501.4,123.6L501.5,123.5ZM522.7,150.5L526.2,155.8L518.8,171.4L531.1,163.4L533.7,167.3L515.9,178.9L512.5,173.8L520.1,157.8L507.5,166L504.9,162.1L522.7,150.5ZM536.7,172.8L543.6,185.5L539.8,187.6L535.1,179L531.6,180.9L536,189L532.2,191.1L527.8,183L524,185.1L528.9,194.1L525.1,196.2L518,183L536.7,172.9L536.7,172.8ZM546.2,190.7L549.6,198.2C550,199.2 550.4,200.2 550.6,201.1C550.8,202.1 550.8,203 550.6,203.9C550.5,204.8 550.1,205.6 549.5,206.3C548.9,207 548.1,207.7 546.9,208.2C545.5,208.8 544.2,209 542.9,208.7C541.6,208.4 540.5,207.7 539.7,206.4L533.8,215L531.5,209.9L537.4,202.3L536.4,200.2L528.7,203.7L526.8,199.4L546.1,190.6L546.2,190.7ZM540.1,198.6L541.2,201.1L541.8,202.3C542,202.7 542.3,203.1 542.6,203.3C542.9,203.6 543.2,203.8 543.6,203.9C544,203.9 544.5,203.9 545,203.7C545.5,203.5 545.8,203.2 546,202.9C546.2,202.6 546.3,202.2 546.3,201.8C546.3,201.4 546.3,201 546.1,200.6C546,200.2 545.8,199.8 545.6,199.4L544.3,196.6L539.9,198.6L540.1,198.6ZM557.9,218.4L559.5,222.8L539.5,230L537.9,225.6L557.9,218.4ZM564,226.9L563.5,225.2L564.3,225L565.6,229.4L564.8,229.6L564.3,227.9L560.1,229.2L559.8,228.2L564,226.9ZM565.9,230.4L566.4,232L563,234.6L567.3,235L567.8,236.6L562.8,238.1L562.5,237.1L566.6,235.8L562,235.4L561.7,234.6L565.4,231.7L561.3,232.9L561,231.9L566,230.4L565.9,230.4Z" style="fill:white;fill-rule:nonzero;"/>
                <path d="M91.5,280.1L127.1,280.1C132,280.1 136.7,280.6 141.1,281.5C145.5,282.4 149.4,284 152.6,286.2C155.9,288.4 158.5,291.4 160.4,295.1C162.3,298.8 163.3,303.5 163.3,309.2C163.3,314.9 162.4,319.5 160.6,323.2C158.8,327 156.3,330 153.2,332.2C150,334.5 146.3,336 142,337C137.7,337.9 133,338.4 128,338.4L112.6,338.4L112.6,375.7L91.5,375.7L91.5,280.1ZM112.7,320.6L126.7,320.6C128.6,320.6 130.4,320.4 132.2,320.1C134,319.7 135.5,319.1 136.9,318.3C138.3,317.4 139.4,316.3 140.3,314.8C141.2,313.3 141.6,311.4 141.6,309.2C141.6,307 141,304.8 139.9,303.3C138.8,301.8 137.3,300.7 135.6,299.9C133.8,299.1 131.9,298.6 129.7,298.3C127.5,298.1 125.5,298 123.5,298L112.7,298L112.7,320.7L112.7,320.6ZM223.9,303.4C222.2,301.2 219.9,299.6 216.9,298.6C214,297.6 211.2,297 208.6,297C206,297 205.5,297.2 203.9,297.5C202.3,297.9 200.7,298.4 199.3,299.2C197.9,300 196.7,301 195.8,302.2C194.9,303.5 194.5,305 194.5,306.8C194.5,309.7 195.6,311.9 197.7,313.4C199.9,314.9 202.6,316.2 205.9,317.3C209.2,318.4 212.7,319.5 216.5,320.5C220.3,321.6 223.8,323.1 227.1,325.1C230.4,327.1 233.1,329.7 235.3,333.1C237.5,336.4 238.5,340.9 238.5,346.5C238.5,352.1 237.5,356.4 235.5,360.4C233.5,364.4 230.8,367.6 227.5,370.3C224.1,372.9 220.2,374.8 215.8,376.1C211.4,377.4 206.6,378 201.7,378C196.8,378 189.7,377.1 184.4,375.2C179.1,373.3 174.1,370.3 169.6,366L184.6,349.5C186.8,352.4 189.5,354.6 192.8,356.2C196.1,357.8 199.5,358.6 203,358.6C206.5,358.6 206.4,358.4 208.2,358C210,357.6 211.5,357 212.9,356.2C214.3,355.4 215.4,354.4 216.3,353.1C217.2,351.8 217.6,350.4 217.6,348.6C217.6,345.7 216.5,343.4 214.3,341.8C212.1,340.1 209.3,338.7 206,337.5C202.7,336.3 199.1,335.2 195.2,334C191.3,332.8 187.7,331.3 184.4,329.3C181.1,327.3 178.3,324.7 176.1,321.5C173.9,318.3 172.8,314 172.8,308.7C172.8,303.4 173.8,299.1 175.8,295.2C177.8,291.3 180.5,288.1 183.9,285.5C187.3,282.9 191.2,280.9 195.6,279.6C200,278.3 204.6,277.6 209.2,277.6C213.8,277.6 219.8,278.4 224.9,279.9C229.9,281.4 234.5,284 238.5,287.6L224.1,303.4L223.9,303.4ZM254,280.1L289.6,280.1C294.5,280.1 299.2,280.6 303.6,281.5C308,282.4 311.9,284 315.1,286.2C318.4,288.4 321,291.4 322.9,295.1C324.8,298.8 325.8,303.5 325.8,309.2C325.8,314.9 324.9,319.5 323.1,323.2C321.3,327 318.8,330 315.7,332.2C312.5,334.5 308.8,336 304.5,337C300.2,337.9 295.5,338.4 290.5,338.4L275.1,338.4L275.1,375.7L254,375.7L254,280.1ZM275.2,320.6L289.2,320.6C291.1,320.6 292.9,320.4 294.7,320.1C296.5,319.7 298,319.1 299.4,318.3C300.8,317.4 301.9,316.3 302.8,314.8C303.7,313.3 304.1,311.4 304.1,309.2C304.1,307 303.5,304.8 302.4,303.3C301.3,301.8 299.8,300.7 298.1,299.9C296.3,299.1 294.4,298.6 292.2,298.3C290,298.1 288,298 286,298L275.2,298L275.2,320.7L275.2,320.6ZM334,327.9C334,320.3 335.3,313.3 337.8,307.1C340.3,300.9 343.9,295.6 348.5,291.2C353.1,286.8 358.5,283.5 364.8,281.1C371.1,278.8 378,277.6 385.5,277.6C393,277.6 399.9,278.8 406.2,281.1C412.5,283.4 417.9,286.8 422.5,291.2C427.1,295.6 430.7,300.9 433.2,307.1C435.8,313.3 437,320.2 437,327.9C437,335.6 435.7,342.5 433.2,348.7C430.6,354.9 427.1,360.2 422.5,364.6C417.9,369 412.5,372.3 406.2,374.7C399.9,377 393,378.2 385.5,378.2C378,378.2 371.1,377 364.8,374.7C358.5,372.4 353.1,369 348.5,364.6C343.9,360.2 340.3,354.9 337.8,348.7C335.3,342.5 334,335.6 334,327.9ZM355.9,327.9C355.9,332.4 356.6,336.5 358,340.3C359.4,344 361.4,347.3 364,350C366.6,352.7 369.7,354.9 373.4,356.4C377,357.9 381.1,358.7 385.6,358.7C390.1,358.7 394.2,357.9 397.8,356.4C401.4,354.9 404.6,352.7 407.2,350C409.8,347.3 411.8,344 413.2,340.3C414.6,336.6 415.3,332.4 415.3,327.9C415.3,323.4 414.6,319.4 413.2,315.6C411.8,311.8 409.8,308.6 407.2,305.8C404.6,303.1 401.5,300.9 397.8,299.4C394.2,297.9 390.1,297.1 385.6,297.1C381.1,297.1 377,297.9 373.4,299.4C369.8,300.9 366.6,303.1 364,305.8C361.4,308.5 359.4,311.8 358,315.6C356.6,319.4 355.9,323.5 355.9,327.9ZM491.2,280.1L512.3,280.1L512.3,375.7L491.2,375.7L491.2,280.1Z" style="fill:rgb(128,163,62);fill-rule:nonzero;"/>
                <g>
                    <path d="M150.4,177.5C151.1,174.5 152.3,171.6 153.9,169C155.5,166.4 157.5,164.1 159.7,162.3C158,163.8 156.4,165.5 155.1,167.3C156.1,165.9 157.1,164.7 158.3,163.7C159.5,162.6 160.7,161.7 162.2,160.8C161.8,161.2 161.2,161.7 160.6,162.2C160,162.7 159.5,163.2 159.5,163.5C156.5,166.2 154,169.5 152.2,173.2C150.4,176.9 149.4,180.9 149.2,185C148.8,183.4 149,182 149.3,180.9C149.6,179.7 150.1,178.7 150.4,177.7M170.5,157.1C169.7,157.3 169,157.6 168.2,157.9C169,157.6 169.7,157.3 170.5,157.1M180,210.5C180.8,210.5 181.7,210.3 182.5,210.2C181.7,210.4 180.9,210.5 180,210.5M151.7,188L152.1,189.4C152.6,192.9 153.8,196.3 155.7,199.5C154.7,197.8 153.7,196 153,194C152.3,192.1 151.8,190 151.8,188" style="fill:rgb(64,90,112);fill-rule:nonzero;"/>
                    <path d="M152.2,184.2C152.2,180.7 153.2,177.1 154.9,174.3C153.3,177.2 152.4,180.6 152.2,184.2M197.4,195.6L197.4,195.2C198,194.3 198.6,193.2 199.1,192.2C199.1,192.5 199.1,192.8 199,193.1C198.7,193.7 198.4,194 198.2,194.3C198,194.6 197.7,195 197.5,195.7M179.1,210.6L178.1,210.6L179.1,210.6M196.5,196.8C196.4,196.8 196.3,196.7 196.1,196.8L197.3,195.3L197.3,195.5C197.2,195.9 196.7,196.4 196.6,196.9M184.5,204.3C184.1,204.4 183.8,204.8 183.7,204.9L180.4,204.9C180.2,204.9 179.8,205 179.5,205.2C179.3,205.1 179,205 178.8,204.9C181.4,204.9 184.1,204.5 186.8,203.5C186.1,203.8 185.4,204.1 184.6,204.3" style="fill:rgb(64,90,112);fill-rule:nonzero;"/>
                    <path d="M172.4,161.3C174.4,160.7 176.7,160.5 178.9,160.5C181.1,160.5 183.3,160.9 185.4,161.1C183.1,160.2 180.2,159.7 177.8,159.6C175.4,159.4 173.4,159.6 172.9,159.1C172.4,158.6 174.1,158.1 176.6,158C177.8,158 179.2,158 180.5,158.2C181.8,158.4 183,158.6 184,158.8L183,158.4C183.5,158.6 184,158.8 184.5,158.8C184,158.6 183.2,158.3 182.5,158C181.8,157.8 181.1,157.5 180.8,157.3C181.1,157.3 181.5,157.2 181.8,157.1C180.4,156.5 178.3,156.1 176.1,156.1C173.9,156.1 171.7,156.2 170.1,156.3C173.9,155.9 178,155.9 182.1,156.7C186.2,157.5 190.3,159.1 194,161.5C197.7,163.9 200.9,167.3 203.2,171.2C205.5,175.1 206.8,179.5 207,183.9C207.7,193.7 203.8,203.2 197,209.6C196.3,210.2 195.1,211.1 193.7,211.8C192.2,212.6 190.6,213.3 189.1,213.7C184.2,215.7 178.7,216.4 173.2,215.9C167.5,215.2 162.1,212.6 157.7,208.7C153.4,204.8 150.1,199.7 148.2,193.8C147.8,192.6 147.8,191.1 148,190.7C148.1,190.5 148.3,190.5 148.6,191C148.9,191.4 149.2,192.3 149.7,193.6C151.5,198 154.1,202.1 157.5,205.5C157.2,205.5 156.6,204.9 156.1,204.4C155.6,203.8 155,203.2 154.6,202.8C155.6,204.3 156.6,205.6 157.8,206.7C159,207.8 160.2,208.9 161.7,209.8C159.7,208.5 157.9,207 156.3,205.3C158.3,207.4 160.8,209.4 163.5,210.9C166.3,212.5 169.3,213.6 172.5,214.1C173.6,214.3 174.7,214.8 175.9,215.1C177.1,215.4 178.5,215.5 180.2,215.1C176,215.1 171.7,214.2 167.9,212.6C164,210.9 160.5,208.5 157.5,205.5C154.8,202.9 152.9,200 151.4,196.7C151.9,197.7 152.5,198.7 152.9,199.6C150.5,194.9 149.3,189.8 149.3,184.7C149.6,188.3 150.5,191.9 152,195.3C153.5,198.7 155.5,201.9 158.1,204.5C160.7,207.2 163.8,209.3 167.2,210.8C170.6,212.3 174.2,213 177.8,213C175.8,212.7 173.5,212.4 171.4,211.9C169.2,211.4 167.2,210.6 165.8,209.4C171.5,212.3 178.2,213.4 184.7,212.1L183.3,212.5C185.4,212.4 187.5,211.8 189.4,211C191.4,210.2 193.2,209.1 195,207.9L195.9,207.3L195,207.9C191.8,210 188.3,211.4 184.7,212.1C186.3,211.6 188,211.1 190,210.3C188.9,210.5 187.3,211 185.7,211.3C183.6,211.8 181.5,212.1 179.4,212.1C182.7,212 185.8,211.1 188.4,209.8C184.3,211.1 179.7,211.7 175.5,211C177.9,211.2 180.2,211.2 182.6,210.8C186.5,210.3 190.4,209 193.8,206.7L193.4,207C193.7,206.8 193.9,206.6 194.2,206.5C195.5,205.6 196.8,204.6 197.9,203.4C198.9,202.4 199.7,201.2 200.3,199.9L200.7,199.3C200.5,199.7 200.5,200 201.1,199.3C202.3,197.8 203.1,196.1 203.8,194.2C204.5,192.3 205,190.3 205.5,188.2C205.8,187.1 205.8,185.6 205.7,183.9L205.7,183C205.7,182.6 205.7,182.3 205.6,181.9C205.6,181 205.4,180.2 205.1,179.4C205.3,180.2 205.4,181.1 205.6,181.9L205.6,182.9C205.6,182.7 205.5,182.5 205.4,182C205.6,185 205.4,188 204.6,190.9C203.8,193.8 202.5,196.7 200.9,199.2C201,198.8 201.2,198.4 201.3,198.1C201.1,198.7 200.8,199.2 200.5,199.7C199.4,201.3 198.1,202.9 196.6,204.2C197,203.8 197.3,203.3 197.6,202.9C195.6,204.9 193.3,206.6 190.8,207.9C188.3,209.2 185.6,210.1 182.8,210.6C177.5,211.2 172.1,210.2 167.5,207.8C169.9,209.3 172.7,210.4 175.7,210.8C171.7,210.4 167.7,209 164.3,206.8C160.9,204.6 158,201.5 156.1,198C157.2,199 158.6,200.4 159.6,200.7C159.7,200.5 158.3,198.5 159.3,199.5C161.2,201.3 162.8,202.7 164.3,203.7C165.8,204.7 167.2,205.2 168.4,205C168.7,205 167.7,203.9 167.1,203C166.5,202.1 166.1,201.2 166.8,201.6C168,202.3 170.1,203.4 172.5,204C173.2,204.3 173.9,204.5 174.7,204.6L175.2,204.6C177.9,205.1 180.4,204.9 181.9,204.8C182.4,204.8 183,204.7 183.5,204.6C183.8,204.6 184,204.6 184.3,204.7C184.6,204.5 184.9,204.3 185.2,204.2C186.6,203.8 187.9,203.3 189.2,202.7C189.9,202.4 190.7,202.1 191.4,201.8C191.4,201.8 191.2,201.7 191.2,201.5C192.7,200.5 194,199.4 195.1,198C195.7,197.5 196.2,197.1 196.7,196.8C196.9,195.8 197.7,194.4 198.4,192.8C199.1,191.2 199.7,189.4 199.9,187.9C200.2,186.4 200.3,184.8 200.2,183.2C200.2,182.9 200.3,182.7 200.4,182.4C200.2,182 200.2,181.6 200.1,181.4C200.1,180.1 200,179 199.9,177.9C199.8,177.7 199.4,177.5 199.3,177.1C199.1,176.3 198.7,175.6 198.4,174.9C198,174.1 197.6,173.2 197.1,172.4C195.5,169.6 193.3,167.2 190.7,165.3L190.7,164.9C190.2,164.8 189.6,164.3 189.2,164.2L189.4,164.2C188.7,164 188.3,163.7 187.9,163.5C187.5,163.3 187.2,163 186.6,162.7C186.3,162.7 186,162.7 185.7,162.6C185.6,162.6 185.4,162.5 185.3,162.4C184,161.4 182.4,161.3 180.7,161.1C179,160.8 177.3,160.7 175.5,160.8C174.1,160.9 173.5,160.7 172.5,160.7" style="fill:rgb(64,90,112);fill-rule:nonzero;"/>
                    <path d="M199.2,191.8C199.8,190.4 200.3,189 200.6,187.5C200.4,189.1 200.2,190.6 199.2,191.8M166,201C165.7,200.5 165.3,199.9 164.9,199.4C167.5,201.9 170.7,203.6 174.3,204.5C172.9,204.3 171.2,203.6 169.7,202.9C168.2,202.2 167,201.4 166,201.1M197.3,195.4L197.3,195.2L197.3,195.4M157,198.6L156.8,198.2C157.4,199.1 158.1,200 158.9,200.8C158.3,200.2 157.6,199.4 157.1,198.5M153.4,187.3C153.1,185.1 153.1,182.8 153.4,180.5C154,177.6 155.1,174.9 156.7,172.7C154.2,177 153,182.1 153.3,187.2M161.6,195.7C161.3,195 161.1,194.3 160.8,193.6C161.1,194.3 161.4,194.9 161.8,195.6C161.6,195.6 161.6,195.6 161.5,195.8M163.6,205.2L163.1,204.8C163.6,205.1 164.1,205.4 164.7,205.6C164.5,205.6 164,205.3 163.7,205.2M159.3,188.1C159.3,188.6 159.4,189.2 159.6,189.7C159.5,189.4 159.3,189.1 159.2,188.8C159.2,188.6 159.4,188.4 159.4,188.1M159.6,179.8C159.8,179.1 160,178.4 160.3,177.8C160,178.6 159.8,179.5 159.6,180.3L159.6,179.8" style="fill:rgb(64,90,112);fill-rule:nonzero;"/>
                    <path d="M166.1,145.9C168.3,146.8 170.3,148.2 172.1,149.8C173.8,151.4 175.3,153.3 176.4,155.2C175.5,153.7 174.4,152.2 173.2,151C174.1,152 174.8,152.9 175.5,154C176.1,155 176.7,156.2 177.1,157.4C176.8,157.1 176.6,156.5 176.3,156C176,155.5 175.7,155 175.5,154.9C173.9,152.2 171.7,149.8 169.2,147.9C166.7,146 163.7,144.6 160.7,143.9C162,143.9 163,144.2 163.8,144.6C164.6,145 165.3,145.6 166.1,145.9M178.6,164.2C178.6,163.6 178.4,163 178.3,162.4C178.4,163 178.6,163.7 178.6,164.2M136.6,163.6C136.6,164.2 136.6,164.9 136.5,165.5C136.5,164.9 136.5,164.2 136.6,163.6M157.9,145.3L156.8,145.3C154.1,145.3 151.3,145.6 148.6,146.6C150.1,146.1 151.6,145.6 153.2,145.3C154.8,145 156.4,145 157.9,145.3" style="fill:rgb(24,153,181);fill-rule:nonzero;"/>
                    <path d="M160.7,146.3C163.4,146.8 165.9,148.1 167.9,149.8C165.9,148.2 163.4,146.9 160.7,146.3M145.3,179L145.7,179C146.3,179.6 147,180.2 147.7,180.7C147.5,180.7 147.3,180.6 147.1,180.5C146.7,180.2 146.5,179.9 146.3,179.7C146.1,179.5 145.8,179.3 145.4,179M136.6,162.8L136.6,162.1C136.6,162.3 136.6,162.6 136.5,162.8M144.5,178.2C144.5,178.2 144.6,178 144.6,177.9C144.9,178.3 145.3,178.6 145.6,179L145.4,179C145.1,178.8 144.8,178.4 144.4,178.2M140.6,167.9C140.6,167.6 140.3,167.3 140.3,167.2C140.4,166.4 140.6,165.6 140.7,164.7L140.7,163.9C140.8,163.7 140.9,163.6 141,163.4C140.6,165.4 140.5,167.5 141,169.7L140.7,167.9" style="fill:rgb(24,153,181);fill-rule:nonzero;"/>
                    <path d="M175.2,165.1C175.4,166.7 175.2,168.5 174.8,170.2C174.4,171.9 173.8,173.5 173.4,175.1C174.4,173.5 175.2,171.4 175.7,169.5C176.2,167.7 176.4,166.2 176.8,165.9C177.2,165.6 177.4,167 177.1,168.9C177,169.8 176.7,170.9 176.4,171.8C176.1,172.8 175.7,173.7 175.4,174.4C175.6,174 175.6,174 175.9,173.7C175.7,174.1 175.4,174.4 175.4,174.8C175.7,174.5 176,173.9 176.3,173.4C176.6,172.9 176.9,172.4 177.1,172.2L177.1,173C177.8,172 178.4,170.5 178.7,168.8C179.1,167.2 179.2,165.5 179.5,164.2C179.2,167.2 178.6,170.3 177.4,173.3C176.2,176.3 174.4,179.2 172,181.6C169.6,184 166.6,186 163.3,187.1C160,188.3 156.4,188.6 153.1,188.1C145.5,187.2 138.9,182.8 135,176.7C134.7,176.1 134.2,175 133.8,173.8C133.4,172.6 133.1,171.2 133,170C132.2,165.9 132.5,161.7 133.7,157.6C135.1,153.3 137.9,149.6 141.5,146.9C145.1,144.2 149.5,142.4 154.2,141.9C155.1,141.8 156.3,141.9 156.6,142.2C156.8,142.3 156.6,142.5 156.3,142.6C155.9,142.7 155.2,142.8 154.1,143C150.5,143.7 146.9,145.1 143.9,147.2C144,147 144.4,146.6 145,146.3C145.5,146 146.1,145.7 146.4,145.4C145.1,145.9 144,146.6 143,147.3C142,148 141,148.8 140,149.8C141.3,148.5 142.7,147.3 144.2,146.3C142.3,147.5 140.4,149.1 138.8,151C137.2,152.9 135.9,155 135,157.4C134.7,158.2 134.2,159 133.8,159.9C133.4,160.8 133.1,161.8 133.2,163.2C133.8,160 135.1,156.9 137,154.2C138.8,151.5 141.2,149.2 143.9,147.4C146.3,145.8 148.8,144.7 151.5,144.1C150.7,144.3 149.8,144.6 149.1,144.8C153,143.7 157.1,143.5 161,144.3C158.2,144 155.3,144.1 152.5,144.8C149.7,145.4 147,146.5 144.6,148.1C142.2,149.7 140.1,151.7 138.4,154.1C136.8,156.5 135.7,159.1 135.2,161.8C135.8,160.3 136.3,158.6 137,157.1C137.7,155.5 138.7,154.1 139.7,153.2C136.6,157.1 134.8,162 134.9,167.2L134.9,166.1C134.6,167.7 134.7,169.4 135,171C135.3,172.6 135.9,174.2 136.5,175.7C136.6,176 136.7,176.2 136.8,176.5L136.5,175.7C135.4,173 134.8,170.1 134.8,167.2C134.9,168.5 135.1,169.9 135.4,171.5C135.4,170.6 135.3,169.3 135.3,168.1C135.3,166.4 135.3,164.8 135.6,163.2C135.2,165.7 135.4,168.3 136,170.4C135.6,167.1 135.8,163.5 137,160.4C136.5,162.2 136.2,164 136.1,165.8C135.9,168.9 136.3,172 137.5,174.9L137.3,174.6C137.3,174.8 137.5,175 137.6,175.3C138.1,176.4 138.7,177.5 139.4,178.6C140,179.5 140.8,180.3 141.7,181L142.1,181.4C141.8,181.2 141.6,181.2 142.1,181.7C143,182.8 144.3,183.7 145.6,184.5C146.9,185.3 148.4,186 149.9,186.7C150.7,187.1 151.9,187.4 153.1,187.5C153.4,187.6 153.6,187.6 153.8,187.5L156.6,187.5L153.8,187.5C154,187.4 154.2,187.3 154.5,187.3C152.2,187 149.9,186.4 147.8,185.4C145.7,184.4 143.7,183 142,181.3C142.3,181.4 142.6,181.7 142.8,181.7C142.4,181.4 142,181.2 141.7,180.9C140.6,179.8 139.7,178.6 138.8,177.3C139.1,177.7 139.4,178 139.7,178.2C138.5,176.4 137.5,174.4 136.9,172.3C136.3,170.2 136,168 136,165.8C136.3,161.7 137.9,157.7 140.4,154.6C138.9,156.2 137.7,158.2 136.9,160.4C137.8,157.4 139.4,154.6 141.6,152.3C143.8,150 146.5,148.3 149.5,147.4C148.5,148.1 147.3,149 146.9,149.7C147,149.8 148.7,149.1 147.8,149.7C146.2,150.9 144.8,151.9 143.9,152.9C142.9,153.9 142.3,154.9 142.3,155.8C142.3,156 143.2,155.5 144,155.1C144.8,154.7 145.5,154.6 145.1,155.1C144.4,155.9 143.3,157.3 142.4,159.1C142.1,159.6 141.8,160.1 141.6,160.6L141.6,161C140.9,163 140.6,165 140.5,166.1L140.5,167.3C140.5,167.5 140.4,167.7 140.3,167.9C140.3,168.2 140.5,168.4 140.5,168.7C140.5,169.8 140.7,170.9 141,171.9C141,172.5 141.2,173.1 141.4,173.7C141.4,173.7 141.5,173.5 141.6,173.7C142.1,175 142.8,176.1 143.7,177.2C144,177.7 144.2,178.2 144.4,178.6C145.2,178.9 146.1,179.7 147.2,180.5C148.3,181.3 149.6,182 150.7,182.4C151.8,182.8 153,183.1 154.2,183.3C154.4,183.3 154.6,183.5 154.7,183.6C155,183.6 155.3,183.6 155.5,183.5C156.5,183.6 157.3,183.8 158.2,183.8C158.3,183.8 158.6,183.5 158.9,183.4C159.5,183.4 160.2,183.2 160.7,183L162.8,182.4C165.1,181.6 167.3,180.3 169.1,178.6C169.2,178.6 169.3,178.6 169.4,178.7C169.6,178.3 170,178 170.2,177.7L170.2,177.9C170.5,177.4 170.7,177.1 170.9,176.9C171.1,176.7 171.4,176.4 171.7,176C171.8,175.8 171.8,175.6 171.9,175.3C171.9,175.3 172,175.1 172.1,175C173.1,174.2 173.4,173 173.8,171.7C174.3,170.4 174.6,169.1 174.8,167.8C174.9,166.7 175.2,166.3 175.4,165.5" style="fill:rgb(24,153,181);fill-rule:nonzero;"/>
                    <path d="M148,180.9C149,181.6 150,182.2 151.1,182.6C149.9,182.2 148.8,181.8 148,180.9M145.8,154.3C146.3,154.2 146.7,154 147.2,153.7C144.9,155.3 143.1,157.5 142,160.1C142.4,159 143.2,157.9 144,156.9C144.8,155.9 145.6,155 145.9,154.3M145.5,178.9L145.7,178.9L145.5,178.9M149,147.8L149.3,147.8C148.5,148 147.7,148.4 147,148.9C147.6,148.5 148.3,148.1 149,147.8M158.2,146.7C160,146.8 161.7,147.2 163.4,147.8C165.5,148.7 167.4,149.9 168.8,151.5C165.9,149 162.2,147.3 158.2,146.8M150.6,151.7C151.2,151.6 151.8,151.5 152.3,151.4C151.7,151.5 151.2,151.7 150.6,151.9L150.6,151.7M143,151.8L143.4,151.4C143.1,151.7 142.8,152.1 142.6,152.5C142.6,152.4 142.9,152 143.1,151.8M156.7,151.1L155.4,151.1C155.6,151.1 155.9,151 156.1,150.9C156.2,151 156.4,151.1 156.6,151.2M163,152.6C163.5,152.9 164,153.1 164.4,153.4L162.6,152.5L163,152.5" style="fill:rgb(24,153,181);fill-rule:nonzero;"/>
                </g>
                <g>
                    <path d="M242.7,177C242.1,176.2 241.3,175.7 240.2,175.3C239.2,174.9 238.2,174.7 237.2,174.7C236.2,174.7 236.1,174.7 235.5,174.9C234.9,175 234.4,175.2 233.9,175.5C233.4,175.8 233,176.1 232.6,176.6C232.3,177.1 232.1,177.6 232.1,178.2C232.1,179.2 232.5,180 233.3,180.6C234.1,181.1 235,181.6 236.2,182C237.4,182.4 238.6,182.8 240,183.2C241.4,183.6 242.6,184.1 243.8,184.8C245,185.5 245.9,186.5 246.7,187.6C247.5,188.8 247.9,190.4 247.9,192.4C247.9,194.4 247.5,196 246.8,197.4C246.1,198.8 245.1,200 243.9,200.9C242.7,201.8 241.3,202.5 239.7,203C238.1,203.5 236.4,203.7 234.7,203.7C233,203.7 230.4,203.4 228.5,202.7C226.6,202 224.8,200.9 223.2,199.4L228.6,193.5C229.4,194.5 230.3,195.3 231.5,195.9C232.7,196.5 233.9,196.7 235.1,196.7C236.3,196.7 236.3,196.7 237,196.5C237.6,196.4 238.2,196.1 238.7,195.8C239.2,195.5 239.6,195.1 239.9,194.7C240.2,194.3 240.4,193.7 240.4,193.1C240.4,192.1 240,191.3 239.2,190.7C238.4,190.1 237.4,189.6 236.2,189.2C235,188.8 233.7,188.4 232.3,187.9C230.9,187.5 229.6,186.9 228.4,186.2C227.2,185.5 226.2,184.6 225.4,183.4C224.6,182.2 224.2,180.7 224.2,178.8C224.2,176.9 224.6,175.4 225.3,174C226,172.6 227,171.5 228.2,170.5C229.4,169.6 230.8,168.9 232.4,168.4C234,167.9 235.6,167.7 237.3,167.7C239,167.7 241.1,168 242.9,168.5C244.7,169 246.3,170 247.8,171.3L242.6,176.9L242.7,177ZM268.5,187C268.1,186.5 267.6,186.1 267,185.7C266.4,185.4 265.7,185.2 264.9,185.2C263.1,185.2 261.6,185.7 260.6,186.8C259.6,187.9 259.1,189.3 259.1,191.1C259.1,192.9 259.6,194.3 260.6,195.4C261.6,196.5 263,197 264.9,197C266.8,197 266.4,196.8 267,196.5C267.6,196.1 268.1,195.7 268.5,195.2L273.3,200.2C272.224,201.366 270.835,202.199 269.3,202.6C267.8,203.1 266.3,203.3 264.9,203.3C263.5,203.3 261.4,203 259.8,202.4C258.2,201.8 256.8,201 255.7,199.9C254.5,198.8 253.6,197.5 252.9,196C252.2,194.5 251.9,192.8 251.9,190.9C251.9,189 252.2,187.3 252.9,185.8C253.6,184.3 254.5,183 255.7,181.9C256.9,180.8 258.3,180 259.8,179.4C261.4,178.8 263.1,178.5 264.9,178.5C266.7,178.5 267.7,178.7 269.3,179.2C270.8,179.7 272.2,180.5 273.3,181.6L268.5,186.6L268.5,187ZM275.9,179.4L283.1,179.4L283.1,183.2C283.9,181.8 284.8,180.7 285.9,179.9C287,179.1 288.3,178.8 289.9,178.8L291.2,178.8C291.6,178.8 292,178.8 292.4,179L292.4,185.6C291.9,185.4 291.4,185.3 290.9,185.2C290.4,185.2 289.9,185.1 289.3,185.1C287.9,185.1 286.8,185.3 286,185.7C285.2,186.1 284.6,186.6 284.1,187.3C283.7,188 283.4,188.8 283.3,189.8C283.2,190.8 283.1,191.8 283.1,193L283.1,202.8L275.9,202.8L275.9,179.3L275.9,179.4ZM318.1,202.9L311.2,202.9L311.2,199.7C310.9,200.2 310.6,200.6 310.2,201.1C309.8,201.6 309.3,202 308.7,202.3C308.1,202.7 307.5,202.9 306.7,203.2C306,203.4 305.2,203.5 304.3,203.5C302.5,203.5 301,203.2 299.8,202.7C298.7,202.1 297.8,201.4 297.1,200.4C296.5,199.4 296.1,198.2 295.8,196.9C295.6,195.5 295.5,194.1 295.5,192.5L295.5,179.6L302.7,179.6L302.7,193.2C302.7,193.9 302.9,194.6 303.1,195.2C303.3,195.8 303.7,196.3 304.2,196.7C304.7,197.1 305.4,197.3 306.3,197.3C307.2,197.3 308,197.1 308.6,196.8C309.2,196.5 309.6,196 309.9,195.4C310.2,194.8 310.4,194.2 310.5,193.5C310.5,192.8 310.6,192.1 310.6,191.3L310.6,179.6L317.8,179.6L317.8,203.1L318.1,202.9ZM323.2,179.4L330.1,179.4L330.1,182.6C330.3,182.2 330.6,181.7 331.1,181.2C331.5,180.7 332,180.3 332.6,180C333.2,179.6 333.8,179.4 334.6,179.1C335.3,178.9 336.1,178.8 337,178.8C338.6,178.8 340.1,179.1 341.4,179.8C342.7,180.5 343.6,181.5 344.3,183C345.1,181.5 346.1,180.4 347.3,179.8C348.5,179.2 350,178.8 351.7,178.8C353.4,178.8 354.6,179.1 355.7,179.6C356.8,180.1 357.6,180.9 358.3,181.8C358.9,182.7 359.4,183.8 359.7,185C360,186.2 360.1,187.6 360.1,189L360.1,202.8L352.9,202.8L352.9,189.1C352.9,188 352.7,187.1 352.2,186.3C351.7,185.5 350.9,185.1 349.7,185.1C348.5,185.1 348.2,185.2 347.6,185.5C347,185.8 346.6,186.2 346.2,186.6C345.8,187 345.6,187.6 345.5,188.3C345.4,188.9 345.3,189.6 345.3,190.3L345.3,202.7L338.1,202.7L338.1,188.8C338.1,188.2 338,187.6 337.8,187.1C337.6,186.6 337.3,186.1 336.9,185.7C336.5,185.3 335.8,185.1 335,185.1C334.2,185.1 333.3,185.3 332.7,185.6C332.1,185.9 331.7,186.4 331.4,187C331.1,187.6 330.9,188.2 330.8,188.9C330.8,189.6 330.7,190.3 330.7,191.1L330.7,202.8L323.5,202.8L323.5,179.3L323.2,179.4Z" style="fill:rgb(64,90,112);fill-rule:nonzero;"/>
                </g>
                <g>
                    <path d="M369.4,203.2C368.5,203.2 367.8,202.9 367.2,202.3C366.6,201.7 366.3,200.9 366.3,200.1C366.3,199.3 366.6,198.5 367.2,197.9C367.8,197.3 368.6,197 369.4,197C370.2,197 371,197.3 371.6,197.9C372.2,198.5 372.5,199.3 372.5,200.1C372.5,200.9 372.2,201.7 371.6,202.3C371,202.9 370.2,203.2 369.4,203.2ZM378.2,191.4C378.2,189.7 378.5,188.2 379.1,186.7C379.7,185.3 380.6,184 381.7,182.9C382.8,181.8 384.1,180.9 385.6,180.3C387.1,179.7 388.7,179.4 390.4,179.4C392.1,179.4 393.7,179.7 395.2,180.3C396.7,180.9 398,181.8 399.1,182.9C400.2,184 401.1,185.3 401.7,186.7C402.3,188.1 402.6,189.7 402.6,191.4C402.6,193.1 402.3,194.6 401.7,196.1C401.1,197.6 400.2,198.8 399.1,199.9C398,201 396.7,201.8 395.2,202.5C393.7,203.1 392.1,203.4 390.4,203.4C388.7,203.4 387.1,203.1 385.6,202.5C384.1,201.9 382.8,201 381.7,199.9C380.6,198.8 379.7,197.6 379.1,196.1C378.5,194.6 378.2,193.1 378.2,191.4ZM382.8,191.4C382.8,192.6 383,193.6 383.3,194.6C383.7,195.6 384.2,196.4 384.8,197.1C385.4,197.8 386.2,198.3 387.2,198.7C388.1,199.1 389.2,199.3 390.3,199.3C391.4,199.3 392.5,199.1 393.4,198.7C394.3,198.3 395.1,197.8 395.8,197.1C396.4,196.4 396.9,195.6 397.3,194.6C397.7,193.6 397.8,192.5 397.8,191.4C397.8,190.3 397.6,189.2 397.3,188.2C396.9,187.2 396.4,186.4 395.8,185.7C395.2,185 394.4,184.5 393.4,184.1C392.5,183.7 391.4,183.5 390.3,183.5C389.2,183.5 388.1,183.7 387.2,184.1C386.3,184.5 385.5,185 384.8,185.7C384.2,186.4 383.7,187.2 383.3,188.2C382.9,189.2 382.8,190.3 382.8,191.4ZM408,180L412.3,180L412.3,183.5C412.6,182.9 413,182.3 413.5,181.8C414,181.3 414.5,180.9 415.1,180.5C415.7,180.1 416.3,179.9 417.1,179.7C417.8,179.5 418.5,179.4 419.2,179.4C419.9,179.4 420.6,179.4 421.1,179.7L420.9,184.4C420.5,184.4 420.2,184.2 419.8,184.2L418.7,184.2C416.6,184.2 415,184.8 413.8,186C412.7,187.2 412.1,189 412.1,191.5L412.1,203L407.8,203L407.8,180.1L408,180Z" style="fill:rgb(64,90,112);fill-rule:nonzero;"/>
                </g>
                <path d="M447.9,202.7C447.9,204.4 447.6,206 447,207.5C446.4,208.9 445.6,210.2 444.5,211.2C443.4,212.2 442.1,213.1 440.5,213.6C439,214.2 437.3,214.5 435.4,214.5C433.5,214.5 431.2,214.2 429.4,213.6C427.6,213 425.9,211.9 424.2,210.4L427.1,206.7C428.2,207.9 429.4,208.8 430.8,209.5C432.1,210.1 433.6,210.4 435.3,210.4C437,210.4 438.2,210.2 439.3,209.7C440.4,209.2 441.2,208.6 441.8,207.9C442.4,207.2 442.9,206.3 443.1,205.4C443.4,204.5 443.5,203.5 443.5,202.5L443.5,199.1L443.4,199.1C442.6,200.5 441.4,201.5 440,202.2C438.6,202.9 437.1,203.2 435.5,203.2C433.9,203.2 432.3,202.9 430.8,202.3C429.4,201.7 428.1,200.9 427.1,199.8C426.1,198.8 425.3,197.5 424.7,196.1C424.1,194.7 423.8,193.1 423.8,191.4C423.8,189.7 424.1,188.2 424.6,186.7C425.1,185.2 425.9,184 426.9,182.9C427.9,181.8 429.1,181 430.6,180.3C432,179.7 433.6,179.4 435.4,179.4C437.2,179.4 438.4,179.7 439.9,180.4C441.4,181.1 442.5,182 443.3,183.2L443.3,179.9L447.6,179.9L447.6,202.6L447.9,202.7ZM436,183.5C434.8,183.5 433.8,183.7 432.9,184.1C432,184.5 431.2,185 430.5,185.7C429.9,186.4 429.4,187.2 429,188.2C428.6,189.2 428.5,190.3 428.5,191.4C428.5,193.7 429.2,195.6 430.5,197C431.9,198.4 433.7,199.1 436,199.1C438.3,199.1 440.2,198.4 441.5,197C442.9,195.6 443.5,193.7 443.5,191.4C443.5,189.1 443.3,189.2 443,188.2C442.6,187.2 442.1,186.4 441.5,185.7C440.9,185 440.1,184.5 439.1,184.1C438.2,183.7 437.1,183.5 436,183.5ZM455.5,175.2L457.2,175.2L458.4,178.4L459.6,175.2L461.3,175.2L461.3,180L460,180L460,176.8L458.8,180L458,180L456.8,176.8L456.8,180L455.5,180L455.5,175.2ZM451.8,176.3L450.4,176.3L450.4,175.2L454.5,175.2L454.5,176.3L453.1,176.3L453.1,180L451.8,180L451.8,176.3Z" style="fill:rgb(64,90,112);fill-rule:nonzero;"/>
            </g>
        </g>
    </g>
</svg>
