<?xml version="1.0" encoding="UTF-8" standalone="no"?>
<!DOCTYPE svg PUBLIC "-//W3C//DTD SVG 1.1//EN" "http://www.w3.org/Graphics/SVG/1.1/DTD/svg11.dtd">
<svg width="100%" height="100%" viewBox="0 0 104 105" version="1.1" xmlns="http://www.w3.org/2000/svg" xmlns:xlink="http://www.w3.org/1999/xlink" xml:space="preserve" xmlns:serif="http://www.serif.com/" style="fill-rule:evenodd;clip-rule:evenodd;stroke-linejoin:round;stroke-miterlimit:2;">
    <g transform="matrix(1,0,0,1,-387.664,-125.172)">
        <g id="PSU-1" transform="matrix(0.252115,0,0,0.401522,387.664,125.172)">
            <rect x="0" y="0" width="411.3" height="260" style="fill:none;"/>
            <g transform="matrix(0.657024,0,0,0.412544,9.98996,7.7806)">
                <path d="M299.4,0L0,0L0,299C0,464.1 134,598 299.4,598C464.8,598 598.8,464.1 598.8,299C598.8,133.9 464.8,0 299.4,0" style="fill:rgb(64,90,112);fill-rule:nonzero;"/>
                <path d="M89.1,90.9L12.3,90.9C11.5,90.9 10.9,90.3 10.9,89.5L10.9,14C10.9,13.2 11.5,12.6 12.3,12.6L89.1,12.6C89.9,12.6 90.5,13.2 90.5,14L90.5,89.5C90.5,90.3 89.9,90.9 89.1,90.9" style="fill:rgb(242,124,170);fill-rule:nonzero;"/>
                <path d="M80.5,82.9L22.9,82.9C22.5,82.9 22.1,82.5 22.1,82.1L22.1,22.4C22.1,22 22.5,21.6 22.9,21.6L80.5,21.6C80.9,21.6 81.3,22 81.3,22.4L81.3,82.1C81.3,82.5 80.9,82.9 80.5,82.9" style="fill:white;fill-rule:nonzero;"/>
                <path d="M30.8,46.5L49.9,46.5L49.9,54.3L30.8,54.3L30.8,46.5ZM30.4,57.7L54,57.7L54,63.6L30.4,63.6L30.4,57.7ZM30.4,67.4L51.7,67.4L51.7,73.1L30.4,73.1L30.4,67.4ZM71,73.3L65.2,67.7L59.8,73.3L59.8,33.4L71,33.4L71,73.3Z" style="fill:rgb(242,124,170);fill-rule:nonzero;"/>
                <path d="M580.8,300.1C580.8,454.3 455.6,579.3 301.2,579.3C146.8,579.3 21.6,454.3 21.6,300.1C21.6,145.9 146.8,21 301.2,21C455.6,21 580.8,146 580.8,300.2" style="fill:rgb(229,29,108);fill-rule:nonzero;"/>
                <path d="M582.8,300.1L578.8,300.1C578.8,376.6 547.7,445.9 497.5,496.1C447.3,546.3 377.9,577.3 301.2,577.3C224.5,577.3 155.2,546.3 104.9,496.1C54.7,445.9 23.6,376.7 23.6,300.1C23.6,223.6 54.7,154.3 104.9,104.1C155.2,54 224.5,22.9 301.2,22.9C377.9,22.9 447.2,53.9 497.5,104.1C547.7,154.3 578.8,223.5 578.8,300.1L582.8,300.1C582.8,144.8 456.8,19 301.3,19C145.8,19 19.8,144.9 19.8,300.1C19.8,455.4 145.8,581.2 301.3,581.2C456.8,581.2 582.8,455.3 582.8,300.1Z" style="fill:white;fill-rule:nonzero;"/>
                <path d="M534.5,298.8C534.5,428.4 429.3,533.4 299.5,533.4C169.7,533.4 64.5,428.3 64.5,298.8C64.5,169.3 169.7,64.1 299.5,64.1C429.3,64.1 534.5,169.2 534.5,298.7M33.2,285.4L33.9,277.5C34,276.4 34.2,275.4 34.5,274.4C34.8,273.4 35.2,272.6 35.8,271.9C36.4,271.2 37.1,270.7 37.9,270.4C38.8,270 39.8,269.9 41.1,270C42.3,270.1 43.4,270.4 44.2,270.9C45,271.4 45.6,272 46,272.7C46.4,273.4 46.7,274.3 46.8,275.3C46.9,276.3 46.9,277.3 46.8,278.4L46.5,281.8L54.7,282.6L54.3,287.3L33.2,285.3L33.2,285.4ZM42.6,281.6L42.9,278.5L42.9,277.3C42.9,276.9 42.8,276.5 42.6,276.2C42.4,275.9 42.2,275.6 41.9,275.4C41.6,275.2 41.2,275 40.7,275C40.2,275 39.7,275 39.4,275.3C39,275.5 38.8,275.8 38.5,276.2C38.3,276.6 38.1,277 38,277.5C38,278 37.8,278.4 37.8,278.9L37.6,281.3L42.6,281.8L42.6,281.6ZM35.3,265L36.7,256.9C36.9,255.8 37.2,254.8 37.5,253.9C37.9,253 38.4,252.2 39,251.6C39.6,251 40.4,250.5 41.2,250.2C42.1,249.9 43.1,249.9 44.4,250.1C45.9,250.4 47.1,250.9 48,251.9C48.9,252.9 49.4,254.1 49.4,255.6L59.1,251.8L58.2,257.3L49.1,260.3L48.7,262.6L57.1,264L56.3,268.6L35.4,265.1L35.3,265ZM44.7,261.9L45.2,259.2C45.2,258.8 45.3,258.3 45.4,257.9C45.5,257.5 45.4,257 45.4,256.6C45.4,256.2 45.1,255.9 44.9,255.6C44.6,255.3 44.2,255.1 43.6,255C43.1,255 42.6,255 42.3,255.1C41.9,255.3 41.7,255.5 41.4,255.8C41.2,256.1 41,256.5 40.9,256.9C40.8,257.3 40.7,257.7 40.6,258.2L40.1,261.2L44.9,262L44.7,261.9ZM48.9,247.7C47.3,247.3 45.8,246.6 44.6,245.7C43.4,244.8 42.5,243.7 41.8,242.5C41.1,241.3 40.7,239.9 40.5,238.4C40.3,236.9 40.5,235.4 40.9,233.8C41.3,232.2 42,230.8 42.8,229.6C43.7,228.4 44.7,227.4 45.9,226.6C47.1,225.9 48.4,225.4 49.9,225.2C51.4,225 52.9,225.2 54.6,225.5C56.2,225.9 57.7,226.6 58.9,227.5C60.1,228.4 61,229.5 61.7,230.7C62.4,231.9 62.8,233.3 62.9,234.8C63.1,236.3 62.9,237.8 62.5,239.4C62.1,241 61.4,242.4 60.6,243.6C59.7,244.8 58.7,245.8 57.5,246.6C56.3,247.3 55,247.8 53.5,248C52,248.2 50.5,248 48.8,247.7L48.9,247.7ZM50.1,243C51.1,243.3 52,243.3 52.9,243.2C53.8,243.2 54.6,242.9 55.3,242.4C56,242 56.7,241.4 57.2,240.7C57.7,240 58.1,239.2 58.4,238.2C58.7,237.2 58.7,236.3 58.6,235.4C58.5,234.5 58.2,233.7 57.7,233C57.2,232.3 56.7,231.7 55.9,231.2C55.2,230.7 54.3,230.3 53.4,230.1C52.5,229.9 51.5,229.8 50.6,229.9C49.7,229.9 48.9,230.2 48.2,230.6C47.5,231 46.8,231.6 46.3,232.3C45.8,233 45.4,233.8 45.1,234.8C44.9,235.8 44.8,236.7 44.9,237.6C45,238.5 45.3,239.3 45.8,240C46.2,240.7 46.8,241.3 47.6,241.8C48.3,242.3 49.2,242.7 50.1,242.9L50.1,243ZM46,218L50.7,204.6L54.8,206L51.6,215L55.7,216.4L58.6,208.1L62.7,209.5L59.8,217.8L67.6,220.6L66,225L46,217.9L46,218ZM52.6,199.8L58.4,186.6L62.4,188.3L58.5,197.2L62.1,198.8L65.8,190.4L69.8,192.1L66.1,200.5L70.1,202.2L74.2,192.8L78.2,194.5L72.2,208.2L52.7,199.7L52.6,199.8ZM70.4,174.4C69.8,174.5 69.2,174.8 68.7,175.3C68.2,175.8 67.8,176.3 67.5,176.8C67.3,177.1 67.2,177.4 67.1,177.8C67.1,178.2 67,178.5 67,178.9C67,179.3 67,179.6 67.2,179.9C67.4,180.2 67.6,180.5 68,180.6C68.6,180.9 69.1,180.9 69.6,180.6C70.1,180.3 70.7,179.9 71.2,179.4C71.8,178.9 72.3,178.3 72.9,177.7C73.5,177.1 74.2,176.5 74.9,176.1C75.6,175.7 76.4,175.4 77.3,175.3C78.2,175.3 79.2,175.5 80.3,176C81.3,176.5 82.2,177.2 82.7,178C83.3,178.8 83.6,179.7 83.8,180.6C84,181.5 83.9,182.5 83.8,183.5C83.6,184.5 83.2,185.5 82.7,186.5C82.1,187.7 81.3,188.8 80.4,189.6C79.5,190.4 78.4,191.1 77.1,191.6L75.4,186.9C76.2,186.8 76.9,186.5 77.6,186C78.3,185.5 78.8,184.9 79.1,184.2C79.3,183.9 79.4,183.5 79.5,183.1C79.6,182.7 79.6,182.3 79.6,182C79.6,181.6 79.5,181.3 79.3,181C79.1,180.7 78.9,180.5 78.6,180.3C78,180 77.5,180 76.9,180.3C76.3,180.6 75.8,181 75.2,181.5C74.6,182 74,182.6 73.4,183.3C72.8,183.9 72.1,184.5 71.4,184.9C70.7,185.4 69.9,185.6 69,185.7C68.1,185.7 67.2,185.6 66.1,185C65.1,184.5 64.3,183.8 63.8,183C63.2,182.2 62.9,181.3 62.7,180.4C62.5,179.5 62.6,178.5 62.7,177.5C62.9,176.5 63.2,175.5 63.7,174.6C64.3,173.5 64.9,172.6 65.8,171.8C66.6,171 67.6,170.3 68.7,169.9L70.3,174.4L70.4,174.4ZM79.5,158.7C78.9,158.7 78.3,159 77.8,159.5C77.3,159.9 76.9,160.4 76.6,160.9C76.4,161.2 76.3,161.5 76.2,161.9C76.1,162.2 76,162.6 76,163C76,163.4 76,163.7 76.2,164C76.3,164.3 76.6,164.6 76.9,164.8C77.4,165.1 78,165.2 78.5,164.9C79,164.7 79.6,164.3 80.2,163.8C80.8,163.3 81.4,162.8 82,162.2C82.6,161.6 83.3,161.1 84.1,160.7C84.9,160.3 85.7,160.1 86.6,160.1C87.5,160.1 88.5,160.4 89.5,161C90.5,161.6 91.3,162.3 91.8,163.2C92.3,164 92.6,164.9 92.7,165.9C92.8,166.9 92.7,167.8 92.5,168.8C92.2,169.8 91.8,170.8 91.2,171.7C90.5,172.9 89.6,173.9 88.7,174.7C87.7,175.5 86.6,176.1 85.2,176.5L83.8,171.8C84.6,171.8 85.3,171.5 86,171C86.7,170.6 87.2,170 87.6,169.3C87.8,169 88,168.6 88.1,168.2C88.2,167.8 88.3,167.5 88.3,167.1C88.3,166.7 88.3,166.4 88.1,166.1C88,165.8 87.7,165.5 87.4,165.3C86.9,165 86.3,164.9 85.7,165.1C85.1,165.3 84.5,165.7 83.9,166.2C83.3,166.7 82.7,167.2 82,167.8C81.3,168.4 80.6,168.9 79.9,169.3C79.2,169.7 78.3,169.9 77.5,170C76.6,170 75.7,169.8 74.7,169.2C73.7,168.6 73,167.9 72.5,167.1C72,166.3 71.7,165.4 71.6,164.4C71.5,163.5 71.6,162.5 71.8,161.5C72.1,160.5 72.5,159.6 73,158.7C73.6,157.7 74.4,156.8 75.2,156C76.1,155.2 77.1,154.6 78.2,154.3L79.5,158.9L79.5,158.7Z" style="fill:white;fill-rule:nonzero;"/>
                <path d="M79.4,149.5L82.1,145.6L99.6,157.7L96.9,161.6L79.4,149.5ZM92.9,148.5C91.6,147.5 90.5,146.3 89.8,145C89.1,143.7 88.6,142.4 88.5,141C88.4,139.6 88.5,138.2 89,136.8C89.5,135.4 90.2,134 91.2,132.7C92.2,131.4 93.4,130.3 94.6,129.6C95.9,128.8 97.2,128.3 98.6,128.1C100,127.9 101.4,128 102.8,128.4C104.2,128.8 105.6,129.5 107,130.6C108.3,131.6 109.4,132.8 110.1,134.1C110.8,135.4 111.3,136.7 111.4,138.2C111.5,139.6 111.4,141 110.9,142.4C110.4,143.8 109.7,145.2 108.7,146.5C107.7,147.8 106.5,148.9 105.3,149.6C104,150.4 102.7,150.9 101.3,151.1C99.9,151.3 98.5,151.2 97.1,150.8C95.7,150.4 94.3,149.7 92.9,148.6L92.9,148.5ZM95.9,144.7C96.7,145.3 97.5,145.8 98.3,146C99.1,146.3 100,146.4 100.8,146.3C101.6,146.3 102.4,146 103.2,145.5C104,145.1 104.7,144.5 105.3,143.7C105.9,142.9 106.3,142.1 106.6,141.2C106.8,140.4 106.9,139.5 106.8,138.7C106.7,137.9 106.4,137.1 105.9,136.3C105.4,135.5 104.8,134.9 104,134.2C103.2,133.6 102.4,133.2 101.6,132.9C100.7,132.6 99.9,132.5 99.1,132.6C98.3,132.6 97.5,132.9 96.7,133.4C95.9,133.8 95.2,134.4 94.6,135.2C94,136 93.6,136.8 93.3,137.7C93.1,138.5 93,139.4 93.1,140.2C93.2,141 93.5,141.8 94,142.6C94.5,143.4 95.1,144 95.9,144.6L95.9,144.7ZM102.3,119.8L106.7,115.2L123.6,119L113,108.7L116.3,105.3L131.5,120.1L127.2,124.5L109.9,120.6L120.7,131.2L117.4,134.6L102.2,119.8L102.3,119.8ZM126.3,96.4L129.2,93.9L150,104.1L146,107.5L141.7,105.3L135.4,110.6L137,115.2L133.1,118.5L126.3,96.4ZM131.7,99.9L134,106.6L138,103.2L131.7,99.9ZM139.4,85.8L143.2,83L153.2,96.6L160.2,91.5L162.8,95L152,102.9L139.4,85.8ZM173.4,69.6C172.8,69.4 172.2,69.3 171.5,69.4C170.8,69.5 170.2,69.7 169.7,70C169.4,70.2 169.1,70.4 168.9,70.6C168.6,70.8 168.4,71.1 168.2,71.4C168,71.7 167.9,72 167.9,72.4C167.9,72.7 167.9,73.1 168.1,73.4C168.4,74 168.9,74.3 169.5,74.3C170.1,74.3 170.8,74.3 171.5,74.1C172.3,73.9 173.1,73.8 173.9,73.5C174.7,73.3 175.6,73.2 176.5,73.2C177.4,73.2 178.2,73.4 179,73.8C179.8,74.2 180.5,74.9 181.1,76C181.7,77 182,78 182.1,79C182.1,80 182.1,80.9 181.6,81.8C181.2,82.7 180.7,83.5 180,84.2C179.3,84.9 178.4,85.6 177.5,86.1C176.3,86.8 175.1,87.2 173.9,87.5C172.7,87.7 171.4,87.7 170,87.4L171.1,82.6C171.8,82.9 172.6,83 173.4,83C174.2,83 174.9,82.7 175.6,82.3C175.9,82.1 176.2,81.9 176.5,81.6C176.8,81.3 177,81 177.2,80.7C177.4,80.4 177.5,80.1 177.5,79.7C177.5,79.4 177.5,79 177.3,78.7C177,78.1 176.5,77.8 175.9,77.8C175.3,77.8 174.6,77.8 173.8,77.9C173,78 172.2,78.2 171.3,78.4C170.4,78.6 169.6,78.7 168.7,78.7C167.8,78.7 167,78.5 166.2,78.1C165.4,77.7 164.7,77 164.1,76C163.5,75 163.2,74 163.2,73.1C163.2,72.2 163.3,71.2 163.7,70.3C164.1,69.4 164.6,68.6 165.3,67.9C166,67.2 166.8,66.5 167.7,66C168.7,65.4 169.8,65 171,64.7C172.1,64.4 173.3,64.4 174.5,64.7L173.5,69.3L173.4,69.6ZM192.9,60C192.2,59.7 191.5,59.6 190.8,59.6C190.1,59.6 189.3,59.8 188.5,60.2C187.7,60.6 187,61.1 186.5,61.7C186,62.3 185.6,63 185.4,63.8C185.2,64.6 185.1,65.4 185.2,66.3C185.2,67.2 185.5,68.1 186,69C186.4,69.9 187,70.7 187.6,71.3C188.2,71.9 188.9,72.4 189.7,72.7C190.5,73 191.2,73.2 192,73.2C192.8,73.2 193.6,73 194.3,72.6C195.2,72.2 195.8,71.6 196.3,71C196.8,70.3 197.1,69.5 197.2,68.7L202,69.6C201.7,71.1 201.1,72.5 200.1,73.6C199.1,74.7 198,75.6 196.7,76.3C195.2,77 193.7,77.5 192.2,77.6C190.7,77.7 189.3,77.6 188,77.2C186.7,76.8 185.4,76.1 184.3,75.1C183.2,74.1 182.3,72.8 181.5,71.3C180.8,69.8 180.3,68.3 180.3,66.8C180.3,65.3 180.4,63.9 180.9,62.6C181.4,61.3 182.2,60.1 183.2,59C184.2,57.9 185.5,57 187,56.3C187.5,56 188.1,55.8 188.8,55.6C189.4,55.4 190.1,55.3 190.8,55.2C191.5,55.1 192.2,55.2 192.9,55.2C193.6,55.3 194.3,55.5 194.9,55.8L192.9,60ZM198.3,51.5L206,48.6C207,48.2 208,48 209,47.8C210,47.7 210.9,47.7 211.8,47.8C212.7,48 213.4,48.4 214.1,49C214.8,49.6 215.4,50.5 215.8,51.7C216.3,53.1 216.4,54.4 216.1,55.7C215.7,57 214.9,58 213.6,58.8L221.8,65.3L216.6,67.3L209.4,60.9L207.2,61.7L210.2,69.6L205.8,71.3L198.3,51.4L198.3,51.5ZM205.8,58.1L208.4,57.1C208.8,57 209.2,56.8 209.6,56.6C210,56.4 210.4,56.2 210.7,55.9C211,55.6 211.2,55.3 211.3,54.9C211.4,54.5 211.3,54 211.2,53.5C211,53 210.8,52.6 210.4,52.4C210.1,52.2 209.7,52 209.4,52L208.2,52C207.8,52.1 207.4,52.2 207,52.4L204.1,53.5L205.8,58L205.8,58.1ZM239.1,51.7C239.4,52.9 239.6,54.1 239.5,55.2C239.5,56.3 239.1,57.4 238.6,58.3C238.1,59.3 237.4,60.1 236.4,60.8C235.4,61.5 234.3,62.1 232.9,62.5C231.5,62.9 230.2,63 229,62.9C227.8,62.8 226.7,62.4 225.8,61.9C224.9,61.4 224.1,60.6 223.4,59.7C222.7,58.8 222.2,57.7 221.9,56.5L218.4,43.9L222.9,42.6L226.4,55C226.6,55.6 226.8,56.2 227.2,56.7C227.6,57.2 228,57.6 228.4,57.9C228.9,58.2 229.4,58.4 230,58.5C230.6,58.5 231.2,58.5 231.8,58.4C232.4,58.2 232.9,58 233.4,57.6C233.8,57.2 234.2,56.8 234.4,56.3C234.7,55.8 234.8,55.3 234.9,54.7C234.9,54.1 234.9,53.5 234.7,52.9L231.2,40.5L235.7,39.2L239.2,51.8L239.1,51.7ZM241.8,37.5L248.8,36.3L256,49.1L258.5,34.6L265.4,33.4L269.1,54.3L264.5,55.1L261.7,39.1L259,56.1L255.5,56.7L247.4,41.6L250.2,57.7L245.6,58.5L241.9,37.6L241.8,37.5ZM279.7,31.6L284.8,31.6L288.5,45.1L292.7,31.4L297,31.4L301.7,45.2L305,31.2L309.7,31.2L303.9,52.5L299.7,52.5L294.7,38L290.3,52.8L286.3,52.8L279.6,31.8L279.7,31.6ZM313.4,31.7L318.1,32L316.9,53.2L312.2,52.9L313.4,31.7ZM327.1,36.9L321.1,36.2L321.6,32.1L338.3,33.9L337.8,38L331.8,37.3L329.9,54.3L325.2,53.8L327.1,36.8L327.1,36.9ZM342.5,34.6L347.1,35.5L345.5,43.3L354.4,45.1L356,37.3L360.6,38.2L356.4,59L351.8,58.1L353.6,49.1L344.7,47.3L342.9,56.3L338.3,55.4L342.5,34.6ZM388.7,60.5C388.3,61.7 387.7,62.7 387,63.6C386.3,64.5 385.5,65.2 384.5,65.7C383.5,66.2 382.5,66.5 381.3,66.5C380.1,66.5 378.8,66.4 377.4,65.9C376,65.4 374.8,64.8 373.9,64C373,63.2 372.3,62.3 371.8,61.4C371.3,60.5 371.1,59.4 371.1,58.2C371.1,57.1 371.3,55.9 371.7,54.7L375.9,42.3L380.3,43.8L376.2,56C376,56.6 375.9,57.2 375.9,57.8C375.9,58.4 376,59 376.3,59.5C376.6,60 376.9,60.5 377.3,60.8C377.7,61.2 378.2,61.5 378.8,61.7C379.4,61.9 380,62 380.5,61.9C381.1,61.9 381.6,61.7 382.1,61.4C382.6,61.1 383,60.8 383.4,60.3C383.8,59.8 384.1,59.3 384.3,58.7L388.4,46.5L392.8,48L388.6,60.4L388.7,60.5ZM406.2,59.3C406,58.7 405.7,58.2 405.2,57.7C404.7,57.2 404.2,56.9 403.6,56.6C403.3,56.5 403,56.4 402.6,56.3L401.5,56.3C401.1,56.3 400.8,56.4 400.5,56.6C400.2,56.8 400,57 399.8,57.4C399.5,58 399.6,58.5 399.8,59C400.1,59.5 400.5,60 401.1,60.5C401.7,61 402.3,61.5 403,62.1C403.7,62.7 404.3,63.3 404.7,64C405.2,64.7 405.5,65.5 405.7,66.3C405.8,67.2 405.7,68.2 405.2,69.3C404.7,70.4 404.1,71.2 403.4,71.9C402.6,72.5 401.8,73 400.9,73.2C400,73.4 399,73.5 398,73.3C397,73.2 396,72.9 395,72.4C393.7,71.8 392.6,71.1 391.7,70.3C390.8,69.4 390.1,68.4 389.5,67.1L394,65.1C394.2,65.9 394.5,66.6 395.1,67.2C395.7,67.8 396.3,68.3 397,68.6C397.3,68.8 397.7,68.9 398.1,68.9L399.2,68.9C399.6,68.9 399.9,68.7 400.2,68.6C400.5,68.4 400.7,68.2 400.9,67.8C401.2,67.2 401.1,66.7 400.9,66.1C400.6,65.6 400.2,65 399.6,64.5C399,64 398.4,63.4 397.7,62.8C397,62.2 396.4,61.6 395.9,60.9C395.4,60.2 395.1,59.4 394.9,58.6C394.7,57.7 394.9,56.8 395.4,55.7C395.9,54.7 396.5,53.8 397.2,53.2C398,52.6 398.8,52.2 399.7,51.9C400.6,51.6 401.6,51.6 402.6,51.7C403.6,51.8 404.6,52.1 405.6,52.5C406.7,53 407.7,53.6 408.6,54.4C409.5,55.2 410.2,56.1 410.7,57.2L406.4,59.1L406.2,59.3ZM415.9,58.1L428.7,64.8L426.7,68.6L418.1,64L416.2,67.5L424.3,71.8L422.3,75.6L414.2,71.3L412.2,75.1L421.3,79.9L419.3,83.7L406.1,76.7L416,57.9L415.9,58.1ZM433.8,67.7L440.8,72.1C441.7,72.7 442.5,73.3 443.2,74C443.9,74.7 444.4,75.4 444.8,76.2C445.2,77 445.3,77.9 445.2,78.8C445.2,79.7 444.8,80.7 444.1,81.8C443.3,83.1 442.3,83.9 441.1,84.4C439.9,84.9 438.6,84.8 437.1,84.3L436.9,94.8L432.1,91.8L432.8,82.2L430.8,81L426.3,88.2L422.3,85.7L433.6,67.7L433.8,67.7ZM433.1,77.6L435.4,79.1C435.8,79.3 436.1,79.5 436.6,79.8C437,80 437.4,80.2 437.8,80.2L439,80.2C439.4,80.1 439.7,79.7 440,79.3C440.3,78.8 440.4,78.4 440.4,78C440.4,77.6 440.3,77.3 440.1,76.9C439.9,76.6 439.6,76.3 439.3,76C439,75.7 438.6,75.5 438.3,75.2L435.7,73.6L433.1,77.7L433.1,77.6ZM459.6,85L470.8,94.1L468.1,97.5L460.5,91.4L458,94.5L465.2,100.3L462.5,103.7L455.3,97.9L452.6,101.3L460.6,107.8L457.9,111.2L446.3,101.8L459.7,85.3L459.6,85ZM472.1,108.9L473.9,96.7L478.2,100.7L476.4,109.2L484.7,106.7L488.8,110.6L476.9,113.2L474.9,126.6L470.6,122.6L472.7,112.8L463.2,115.6L459.1,111.8L472.1,108.8L472.1,108.9ZM492.1,114.1L497.4,120C498.1,120.8 498.8,121.7 499.3,122.5C499.8,123.4 500.1,124.2 500.3,125.1C500.4,126 500.3,126.8 500,127.7C499.7,128.6 499,129.4 498.1,130.3C497.2,131.1 496.3,131.7 495.4,131.9C494.5,132.2 493.6,132.2 492.8,132C492,131.8 491.1,131.4 490.3,130.9C489.5,130.3 488.7,129.6 488,128.8L485.7,126.3L479.6,131.9L476.5,128.4L492.3,114.2L492.1,114.1ZM488.6,123.6L490.7,125.9C491,126.2 491.3,126.5 491.6,126.7C491.9,126.9 492.3,127.1 492.6,127.2C492.9,127.3 493.3,127.3 493.7,127.2C494.1,127.2 494.4,126.9 494.8,126.6C495.2,126.2 495.4,125.9 495.5,125.4L495.5,124.2C495.4,123.8 495.2,123.4 494.9,123C494.6,122.6 494.3,122.3 494,121.9L492.4,120.1L488.7,123.5L488.6,123.6ZM505.7,129.6L514.6,141L511.2,143.7L505.2,136L502.1,138.4L507.8,145.7L504.4,148.4L498.7,141.1L495.3,143.8L501.6,151.9L498.2,154.6L489,142.8L505.7,129.7L505.7,129.6ZM518.1,145.9L522.6,152.8C523.2,153.7 523.7,154.6 524,155.5C524.4,156.4 524.5,157.3 524.5,158.2C524.5,159.1 524.3,159.9 523.8,160.7C523.3,161.5 522.6,162.3 521.6,162.9C520.3,163.7 519.1,164.1 517.8,164C516.5,164 515.3,163.3 514.3,162.2L509.8,171.6L506.7,166.9L511.4,158.5L510.1,156.6L503,161.3L500.4,157.4L518.2,145.8L518.1,145.9ZM513.3,154.6L514.8,156.9C515,157.3 515.3,157.6 515.6,158C515.9,158.4 516.2,158.7 516.5,158.9C516.8,159.1 517.2,159.3 517.6,159.3C518,159.3 518.4,159.2 518.9,158.9C519.4,158.6 519.7,158.3 519.8,157.9C519.9,157.5 520,157.2 520,156.8C520,156.4 519.8,156 519.6,155.6C519.4,155.2 519.2,154.8 519,154.5L517.3,151.9L513.3,154.5L513.3,154.6ZM529.2,163.4L531.5,167.5L513.1,178.1L510.8,174L529.2,163.4ZM534.2,172.2L540.8,185.1L537,187.1L532.6,178.4L529.1,180.2L533.3,188.4L529.5,190.4L525.3,182.2L521.5,184.2L526.2,193.4L522.4,195.4L515.6,182.1L534.5,172.4L534.2,172.2ZM543.4,190.5L545.8,196.4L535.6,210.3L549.3,204.8L551.1,209.1L531.4,217.1L529.1,211.4L539.6,197.1L525.6,202.8L523.8,198.5L543.5,190.5L543.4,190.5ZM551.7,230.1C552.1,229.5 552.4,228.8 552.5,228.1C552.5,227.4 552.5,226.6 552.3,225.7C552,224.9 551.7,224.1 551.1,223.5C550.5,222.9 549.9,222.4 549.2,222C548.5,221.6 547.6,221.4 546.7,221.4C545.8,221.4 544.9,221.4 544,221.7C543,222 542.2,222.4 541.5,222.9C540.8,223.4 540.2,224 539.8,224.7C539.4,225.4 539.1,226.1 539,226.9C538.9,227.7 539,228.5 539.2,229.3C539.5,230.2 539.9,231 540.5,231.6C541.1,232.2 541.8,232.6 542.6,232.9L540.9,237.5C539.4,237 538.2,236.2 537.2,235C536.2,233.8 535.5,232.6 535.1,231.2C534.6,229.6 534.4,228.1 534.5,226.6C534.5,225.1 535,223.7 535.6,222.5C536.2,221.2 537.1,220.1 538.3,219.2C539.5,218.3 540.9,217.5 542.5,217.1C544.1,216.6 545.7,216.4 547.2,216.6C548.7,216.8 550,217.2 551.3,217.9C552.5,218.6 553.6,219.5 554.5,220.7C555.4,221.9 556.1,223.3 556.6,224.9C556.8,225.5 556.9,226.1 557,226.7L557,228.7C557,229.4 556.8,230 556.6,230.7C556.4,231.4 556.1,232 555.6,232.6L551.8,230L551.7,230.1ZM559.2,236.7L562.3,250.8L558.1,251.7L556,242.2L552.1,243.1L554.1,252.1L549.9,253L547.9,244L543.7,244.9L545.9,254.9L541.7,255.8L538.5,241.2L559.2,236.6L559.2,236.7ZM564.5,265.5L565.1,270.1L544,272.9L543.4,268.3L564.5,265.5ZM568.8,275.2L568.8,273.5L569.5,273.5L569.9,278L569.1,278L569.1,276.3L564.6,276.7L564.6,275.6L568.9,275.2L568.8,275.2ZM569.9,279.1L569.9,280.8L566.2,282.7L570.3,284L570.3,285.7L565.3,286.1L565.3,285L569.5,284.7L565,283.3L565,282.4L569.1,280.4L564.8,280.7L564.8,279.6L569.9,279.2L569.9,279.1Z" style="fill:white;fill-rule:nonzero;"/>
                <path d="M122.3,284.4L161.8,284.4C167.3,284.4 172.5,284.9 177.4,285.9C182.3,286.9 186.6,288.6 190.2,291.1C193.9,293.6 196.7,296.9 198.9,301C201,305.2 202.1,310.4 202.1,316.7C202.1,323 201.1,328.1 199.1,332.3C197.1,336.5 194.3,339.9 190.9,342.4C187.4,344.9 183.2,346.7 178.5,347.7C173.7,348.8 168.5,349.3 162.9,349.3L145.8,349.3L145.8,390.7L122.4,390.7L122.4,284.5L122.3,284.4ZM145.7,329.4L161.3,329.4C163.4,329.4 165.4,329.2 167.4,328.8C169.3,328.4 171.1,327.7 172.6,326.8C174.1,325.9 175.4,324.6 176.4,322.9C177.3,321.3 177.8,319.2 177.8,316.7C177.8,314.2 177.2,311.8 175.9,310.2C174.6,308.6 173.1,307.3 171.1,306.4C169.1,305.5 167,304.9 164.6,304.7C162.2,304.5 159.9,304.3 157.7,304.3L145.7,304.3L145.7,329.5L145.7,329.4ZM269.3,310.4C267.4,308 264.8,306.2 261.6,305.1C258.4,304 255.3,303.4 252.4,303.4C249.5,303.4 249,303.6 247.2,304C245.4,304.4 243.7,305 242.1,305.9C240.5,306.8 239.2,307.9 238.2,309.3C237.2,310.7 236.7,312.4 236.7,314.4C236.7,317.6 237.9,320.1 240.3,321.8C242.7,323.5 245.7,324.9 249.4,326.2C253,327.4 257,328.6 261.2,329.8C265.4,331 269.3,332.7 273,334.9C276.7,337.1 279.7,340.1 282.1,343.8C284.5,347.5 285.7,352.5 285.7,358.7C285.7,364.9 284.6,369.8 282.4,374.2C280.2,378.6 277.2,382.3 273.5,385.1C269.7,388 265.4,390.2 260.4,391.6C255.5,393 250.2,393.7 244.7,393.7C239.2,393.7 231.4,392.6 225.5,390.5C219.6,388.4 214.1,385 209,380.3L225.7,362C228.1,365.2 231.1,367.7 234.8,369.4C238.5,371.2 242.2,372 246.1,372C250,372 249.9,371.8 251.9,371.3C253.9,370.9 255.6,370.2 257.1,369.3C258.6,368.4 259.9,367.3 260.9,365.9C261.8,364.5 262.3,362.9 262.3,360.9C262.3,357.7 261.1,355.2 258.6,353.3C256.1,351.5 253.1,349.9 249.4,348.6C245.7,347.3 241.7,346 237.4,344.7C233.1,343.4 229.1,341.7 225.4,339.5C221.7,337.3 218.6,334.4 216.2,330.8C213.7,327.2 212.5,322.5 212.5,316.6C212.5,310.7 213.6,305.9 215.9,301.6C218.1,297.3 221.1,293.7 224.9,290.8C228.7,287.9 233,285.7 237.9,284.3C242.8,282.9 247.8,282.1 253,282.1C258.2,282.1 264.8,283 270.4,284.6C276,286.3 281.1,289.2 285.6,293.2L269.5,310.7L269.3,310.4ZM392.5,349.7C392.5,356 391.5,361.8 389.7,367.1C387.8,372.4 385,377 381.2,380.9C377.4,384.8 372.8,387.9 367.2,390C361.6,392.2 355.1,393.3 347.9,393.3C340.7,393.3 334,392.2 328.4,390C322.8,387.8 318.1,384.8 314.4,380.9C310.7,377 307.8,372.4 305.9,367.1C304,361.8 303.1,356 303.1,349.7L303.1,284.5L326.5,284.5L326.5,348.9C326.5,352.2 327,355.3 328.1,358C329.2,360.8 330.6,363.2 332.5,365.3C334.4,367.4 336.7,369 339.3,370.1C341.9,371.3 344.8,371.8 347.9,371.8C351,371.8 353.8,371.2 356.5,370.1C359.1,369 361.3,367.4 363.3,365.3C365.2,363.3 366.7,360.8 367.7,358C368.8,355.2 369.3,352.2 369.3,348.9L369.3,284.5L392.7,284.5L392.7,349.7L392.5,349.7ZM458.2,284.4L481.6,284.4L481.6,390.6L458.2,390.6L458.2,284.4Z" style="fill:rgb(229,29,108);fill-rule:nonzero;"/>
                <rect x="31" y="33.2" width="17.1" height="5.8" style="fill:rgb(242,124,170);fill-rule:nonzero;"/>
                <g>
                    <path d="M151.9,177.6C152.6,174.6 153.8,171.7 155.4,169.1C157,166.5 159,164.2 161.2,162.4C159.5,163.9 157.9,165.6 156.6,167.4C157.6,166 158.6,164.8 159.8,163.8C161,162.7 162.2,161.8 163.7,160.9C163.3,161.3 162.7,161.8 162.1,162.3C161.5,162.8 161,163.3 161,163.6C158,166.3 155.5,169.6 153.7,173.3C151.9,177 150.9,181 150.7,185.1C150.3,183.5 150.5,182.1 150.8,181C151.1,179.8 151.6,178.8 151.9,177.8M172,157.3C171.2,157.5 170.5,157.8 169.7,158.1C170.5,157.8 171.2,157.5 172,157.3M181.6,210.7C182.4,210.7 183.3,210.5 184.1,210.4C183.3,210.6 182.5,210.7 181.6,210.7M153.2,188.1L153.6,189.5C154.1,193 155.3,196.4 157.2,199.6C156.2,197.9 155.2,196.1 154.5,194.1C153.8,192.2 153.3,190.1 153.3,188.1" style="fill:rgb(64,90,112);fill-rule:nonzero;"/>
                    <path d="M153.8,184.3C153.8,180.8 154.8,177.2 156.5,174.4C154.9,177.3 154,180.7 153.8,184.3M198.9,195.7L198.9,195.3C199.5,194.4 200.1,193.3 200.6,192.3C200.6,192.6 200.6,192.9 200.5,193.2C200.2,193.8 199.9,194.1 199.7,194.4C199.5,194.7 199.2,195.1 199,195.8M180.6,210.7L179.6,210.7L180.6,210.7M198.1,197C198,197 197.9,196.9 197.7,197L198.9,195.5L198.9,195.7C198.8,196.1 198.3,196.6 198.2,197.1M186.1,204.5C185.7,204.6 185.4,205 185.3,205.1L182,205.1C181.8,205.1 181.4,205.2 181.1,205.4C180.9,205.3 180.6,205.2 180.4,205.1C183,205.1 185.7,204.7 188.4,203.7C187.7,204 187,204.3 186.2,204.5" style="fill:rgb(64,90,112);fill-rule:nonzero;"/>
                    <path d="M173.9,161.4C175.9,160.8 178.2,160.6 180.4,160.6C182.6,160.6 184.8,161 186.9,161.2C184.6,160.3 181.7,159.8 179.3,159.7C176.9,159.5 174.9,159.7 174.4,159.2C173.9,158.7 175.6,158.2 178.1,158.1C179.3,158.1 180.7,158.1 182,158.3C183.3,158.5 184.5,158.7 185.5,158.9L184.5,158.5C185,158.7 185.5,158.9 186,158.9C185.5,158.7 184.7,158.4 184,158.1C183.3,157.9 182.6,157.6 182.3,157.4C182.6,157.4 183,157.3 183.3,157.2C181.9,156.6 179.8,156.2 177.6,156.2C175.4,156.2 173.2,156.3 171.6,156.4C175.4,156 179.5,156 183.6,156.8C187.7,157.6 191.8,159.2 195.5,161.6C199.2,164 202.4,167.4 204.7,171.3C207,175.2 208.3,179.6 208.5,184C209.2,193.8 205.3,203.3 198.5,209.7C197.8,210.3 196.6,211.2 195.2,211.9C193.7,212.7 192.1,213.4 190.6,213.8C185.7,215.8 180.2,216.5 174.7,216C169,215.3 163.6,212.7 159.2,208.8C154.9,204.9 151.6,199.8 149.7,193.9C149.3,192.7 149.3,191.2 149.5,190.8C149.6,190.6 149.8,190.6 150.1,191.1C150.4,191.5 150.7,192.4 151.2,193.7C153,198.1 155.6,202.2 159,205.6C158.7,205.6 158.1,205 157.6,204.5C157.1,203.9 156.5,203.3 156.1,202.9C157.1,204.4 158.1,205.7 159.3,206.8C160.5,207.9 161.7,209 163.2,209.9C161.2,208.6 159.4,207.1 157.8,205.4C159.8,207.5 162.3,209.5 165,211C167.8,212.6 170.8,213.7 174,214.2C175.1,214.4 176.2,214.9 177.4,215.2C178.6,215.5 180,215.6 181.7,215.2C177.5,215.2 173.2,214.3 169.4,212.7C165.5,211 162,208.6 159,205.6C156.3,203 154.4,200.1 152.9,196.8C153.4,197.8 154,198.8 154.4,199.7C152,195 150.8,189.9 150.8,184.8C151.1,188.4 152,192 153.5,195.4C155,198.8 157,202 159.6,204.6C162.2,207.3 165.3,209.4 168.7,210.9C172.1,212.4 175.7,213.1 179.3,213.1C177.3,212.8 175,212.5 172.9,212C170.7,211.5 168.7,210.7 167.3,209.5C173,212.4 179.7,213.5 186.2,212.2L184.8,212.6C186.9,212.5 189,211.9 190.9,211.1C192.9,210.3 194.7,209.2 196.5,208L197.4,207.4L196.5,208C193.3,210.1 189.8,211.5 186.2,212.2C187.8,211.7 189.5,211.2 191.5,210.4C190.4,210.6 188.8,211.1 187.2,211.4C185.1,211.9 183,212.2 180.9,212.2C184.2,212.1 187.3,211.2 189.9,209.9C185.8,211.2 181.2,211.8 177,211.1C179.4,211.3 181.7,211.3 184.1,210.9C188,210.4 191.9,209.1 195.3,206.8L194.9,207.1C195.2,206.9 195.4,206.7 195.7,206.6C197,205.7 198.3,204.7 199.4,203.5C200.4,202.5 201.2,201.3 201.8,200L202.2,199.4C202,199.8 202,200.1 202.6,199.4C203.8,197.9 204.6,196.2 205.3,194.3C206,192.4 206.5,190.4 207,188.3C207.3,187.2 207.3,185.7 207.2,184L207.2,183.1C207.2,182.7 207.2,182.4 207.1,182C207.1,181.1 206.9,180.3 206.6,179.5C206.8,180.3 206.9,181.2 207.1,182L207.1,183C207.1,182.8 207,182.6 206.9,182.1C207.1,185.1 206.9,188.1 206.1,191C205.3,193.9 204,196.8 202.4,199.3C202.5,198.9 202.7,198.5 202.8,198.2C202.6,198.8 202.3,199.3 202,199.8C200.9,201.4 199.6,203 198.1,204.3C198.5,203.9 198.8,203.4 199.1,203C197.1,205 194.8,206.7 192.3,208C189.8,209.3 187.1,210.2 184.3,210.7C179,211.3 173.6,210.3 169,207.9C171.4,209.4 174.2,210.5 177.2,210.9C173.2,210.5 169.2,209.1 165.8,206.9C162.4,204.7 159.5,201.6 157.6,198.1C158.7,199.1 160.1,200.5 161.1,200.8C161.2,200.6 159.8,198.6 160.8,199.6C162.7,201.4 164.3,202.8 165.8,203.8C167.3,204.8 168.7,205.3 169.9,205.1C170.2,205.1 169.2,204 168.6,203.1C168,202.2 167.6,201.3 168.3,201.7C169.5,202.4 171.6,203.5 174,204.1C174.7,204.4 175.4,204.6 176.2,204.7L176.7,204.7C179.4,205.2 181.9,205 183.4,204.9C183.9,204.9 184.5,204.8 185,204.7C185.3,204.7 185.5,204.7 185.8,204.8C186.1,204.6 186.4,204.4 186.7,204.3C188.1,203.9 189.4,203.4 190.7,202.8C191.4,202.5 192.2,202.2 192.9,201.9C192.9,201.9 192.7,201.8 192.7,201.6C194.2,200.6 195.5,199.5 196.6,198.1C197.2,197.6 197.7,197.2 198.2,196.9C198.4,195.9 199.2,194.5 199.9,192.9C200.6,191.3 201.2,189.5 201.4,188C201.7,186.5 201.8,184.9 201.7,183.3C201.7,183 201.8,182.8 201.9,182.5C201.7,182.1 201.7,181.7 201.6,181.5C201.6,180.2 201.5,179.1 201.4,178C201.3,177.8 200.9,177.6 200.8,177.2C200.6,176.4 200.2,175.7 199.9,175C199.5,174.2 199.1,173.3 198.6,172.5C197,169.7 194.8,167.3 192.2,165.4L192.2,165C191.7,164.9 191.1,164.4 190.7,164.3L190.9,164.3C190.2,164.1 189.8,163.8 189.4,163.6C189,163.4 188.7,163.1 188.1,162.8C187.8,162.8 187.5,162.8 187.2,162.7C187.1,162.7 186.9,162.6 186.8,162.5C185.5,161.5 183.9,161.4 182.2,161.2C180.5,160.9 178.8,160.8 177,160.9C175.6,161 175,160.8 174,160.8" style="fill:rgb(64,90,112);fill-rule:nonzero;"/>
                    <path d="M200.7,191.9C201.3,190.5 201.8,189.1 202.1,187.6C201.9,189.2 201.7,190.7 200.7,191.9M167.6,201.2C167.3,200.7 166.9,200.1 166.5,199.6C169.1,202.1 172.3,203.8 175.9,204.7C174.5,204.5 172.8,203.8 171.3,203.1C169.8,202.4 168.6,201.6 167.6,201.3M198.8,195.6L198.8,195.4L198.8,195.6M158.6,198.8L158.4,198.4C159,199.3 159.7,200.2 160.5,201C159.9,200.4 159.2,199.6 158.7,198.7M154.9,187.4C154.6,185.2 154.6,182.9 154.9,180.6C155.5,177.7 156.6,175 158.2,172.8C155.7,177.1 154.5,182.2 154.8,187.3M163.1,195.8C162.8,195.1 162.6,194.4 162.3,193.7C162.6,194.4 162.9,195 163.3,195.7C163.1,195.7 163.1,195.7 163,195.9M165.1,205.3L164.6,204.9C165.1,205.2 165.6,205.5 166.2,205.7C166,205.7 165.5,205.4 165.2,205.3M160.9,188.2C160.9,188.7 161,189.3 161.2,189.8C161.1,189.5 160.9,189.2 160.8,188.9C160.8,188.7 161,188.5 161,188.2M161.1,179.9C161.3,179.2 161.5,178.5 161.8,177.9C161.5,178.7 161.3,179.6 161.1,180.4L161.1,179.9" style="fill:rgb(64,90,112);fill-rule:nonzero;"/>
                    <path d="M167.6,146C169.8,146.9 171.8,148.3 173.6,149.9C175.3,151.5 176.8,153.4 177.9,155.3C177,153.8 175.9,152.3 174.7,151.1C175.6,152.1 176.3,153 177,154.1C177.6,155.1 178.2,156.3 178.6,157.5C178.3,157.2 178.1,156.6 177.8,156.1C177.5,155.6 177.2,155.1 177,155C175.4,152.3 173.2,149.9 170.7,148C168.2,146.1 165.2,144.7 162.2,144C163.5,144 164.5,144.3 165.3,144.7C166.1,145.1 166.8,145.7 167.6,146M180.1,164.4C180.1,163.8 179.9,163.2 179.8,162.6C179.9,163.2 180.1,163.9 180.1,164.4M138.1,163.7C138.1,164.3 138.1,165 138,165.6C138,165 138,164.3 138.1,163.7M159.4,145.4L158.3,145.4C155.6,145.4 152.8,145.7 150.1,146.7C151.6,146.2 153.1,145.7 154.7,145.4C156.3,145.1 157.9,145.1 159.4,145.4" style="fill:rgb(24,153,181);fill-rule:nonzero;"/>
                    <path d="M162.2,146.4C164.9,146.9 167.4,148.2 169.4,149.9C167.4,148.3 164.9,147 162.2,146.4M146.9,179.1L147.3,179.1C147.9,179.7 148.6,180.3 149.3,180.8C149.1,180.8 148.9,180.7 148.7,180.6C148.3,180.3 148.1,180 147.9,179.8C147.7,179.6 147.4,179.4 147,179.1M138.2,163L138.2,162.3C138.2,162.5 138.2,162.8 138.1,163M146.1,178.3C146.1,178.3 146.2,178.1 146.2,178C146.5,178.4 146.9,178.7 147.2,179.1L147,179.1C146.7,178.9 146.4,178.5 146,178.3M142.1,168C142.1,167.7 141.8,167.4 141.8,167.3C141.9,166.5 142.1,165.7 142.2,164.8L142.2,164C142.3,163.8 142.4,163.7 142.5,163.5C142.1,165.5 142,167.6 142.5,169.8L142.2,168" style="fill:rgb(24,153,181);fill-rule:nonzero;"/>
                    <path d="M176.7,165.2C176.9,166.8 176.7,168.6 176.3,170.3C175.9,172 175.3,173.6 174.9,175.2C175.9,173.6 176.7,171.5 177.2,169.6C177.7,167.8 177.9,166.3 178.3,166C178.7,165.7 178.9,167.1 178.6,169C178.5,169.9 178.2,171 177.9,171.9C177.6,172.9 177.2,173.8 176.9,174.5C177.1,174.1 177.1,174.1 177.4,173.8C177.2,174.2 176.9,174.5 176.9,174.9C177.2,174.6 177.5,174 177.8,173.5C178.1,173 178.4,172.5 178.6,172.3L178.6,173.1C179.3,172.1 179.9,170.6 180.2,168.9C180.6,167.3 180.7,165.6 181,164.3C180.7,167.3 180.1,170.4 178.9,173.4C177.7,176.4 175.9,179.3 173.5,181.7C171.1,184.1 168.1,186.1 164.8,187.2C161.5,188.4 157.9,188.7 154.6,188.2C147,187.3 140.4,182.9 136.5,176.8C136.2,176.2 135.7,175.1 135.3,173.9C134.9,172.7 134.6,171.3 134.5,170.1C133.7,166 134,161.8 135.2,157.7C136.6,153.4 139.4,149.7 143,147C146.6,144.3 151,142.5 155.7,142C156.6,141.9 157.8,142 158.1,142.3C158.3,142.4 158.1,142.6 157.8,142.7C157.4,142.8 156.7,142.9 155.6,143.1C152,143.8 148.4,145.2 145.4,147.3C145.5,147.1 145.9,146.7 146.5,146.4C147,146.1 147.6,145.8 147.9,145.5C146.6,146 145.5,146.7 144.5,147.4C143.5,148.1 142.5,148.9 141.5,149.9C142.8,148.6 144.2,147.4 145.7,146.4C143.8,147.6 141.9,149.2 140.3,151.1C138.7,153 137.4,155.1 136.5,157.5C136.2,158.3 135.7,159.1 135.3,160C134.9,160.9 134.6,161.9 134.7,163.3C135.3,160.1 136.6,157 138.5,154.3C140.3,151.6 142.7,149.3 145.4,147.5C147.8,145.9 150.3,144.8 153,144.2C152.2,144.4 151.3,144.7 150.6,144.9C154.5,143.8 158.6,143.6 162.5,144.4C159.7,144.1 156.8,144.2 154,144.9C151.2,145.5 148.5,146.6 146.1,148.2C143.7,149.8 141.6,151.8 139.9,154.2C138.3,156.6 137.2,159.2 136.7,161.9C137.3,160.4 137.8,158.7 138.5,157.2C139.2,155.6 140.2,154.2 141.2,153.3C138.1,157.2 136.3,162.1 136.4,167.3L136.4,166.2C136.1,167.8 136.2,169.5 136.5,171.1C136.8,172.7 137.4,174.3 138,175.8C138.1,176.1 138.2,176.3 138.3,176.6L138,175.8C136.9,173.1 136.3,170.2 136.3,167.3C136.4,168.6 136.6,170 136.9,171.6C136.9,170.7 136.8,169.4 136.8,168.2C136.8,166.5 136.8,164.9 137.1,163.3C136.7,165.8 136.9,168.4 137.5,170.5C137.1,167.2 137.3,163.6 138.5,160.5C138,162.3 137.7,164.1 137.6,165.9C137.4,169 137.8,172.1 139,175L138.8,174.7C138.8,174.9 139,175.1 139.1,175.4C139.6,176.5 140.2,177.6 140.9,178.7C141.5,179.6 142.3,180.4 143.2,181.1L143.6,181.5C143.3,181.3 143.1,181.3 143.6,181.8C144.5,182.9 145.8,183.8 147.1,184.6C148.4,185.4 149.9,186.1 151.4,186.8C152.2,187.2 153.4,187.5 154.6,187.6C154.9,187.7 155.1,187.7 155.3,187.6L158.1,187.6L155.3,187.6C155.5,187.5 155.7,187.4 156,187.4C153.7,187.1 151.4,186.5 149.3,185.5C147.2,184.5 145.2,183.1 143.5,181.4C143.8,181.5 144.1,181.8 144.3,181.8C143.9,181.5 143.5,181.3 143.2,181C142.1,179.9 141.2,178.7 140.3,177.4C140.6,177.8 140.9,178.1 141.2,178.3C140,176.5 139,174.5 138.4,172.4C137.8,170.3 137.5,168.1 137.5,165.9C137.8,161.8 139.4,157.8 141.9,154.7C140.4,156.3 139.2,158.3 138.4,160.5C139.3,157.5 140.9,154.7 143.1,152.4C145.3,150.1 148,148.4 151,147.5C150,148.2 148.8,149.1 148.4,149.8C148.5,149.9 150.2,149.2 149.3,149.8C147.7,151 146.3,152 145.4,153C144.4,154 143.8,155 143.8,155.9C143.8,156.1 144.7,155.6 145.5,155.2C146.3,154.8 147,154.7 146.6,155.2C145.9,156 144.8,157.4 143.9,159.2C143.6,159.7 143.3,160.2 143.1,160.7L143.1,161.1C142.4,163.1 142.1,165.1 142,166.2L142,167.4C142,167.6 141.9,167.8 141.8,168C141.8,168.3 142,168.5 142,168.8C142,169.9 142.2,171 142.5,172C142.5,172.6 142.7,173.2 142.9,173.8C142.9,173.8 143,173.6 143.1,173.8C143.6,175.1 144.3,176.2 145.2,177.3C145.5,177.8 145.7,178.3 145.9,178.7C146.7,179 147.6,179.8 148.7,180.6C149.8,181.4 151.1,182.1 152.2,182.5C153.3,182.9 154.5,183.2 155.7,183.4C155.9,183.4 156.1,183.6 156.2,183.7C156.5,183.7 156.8,183.7 157,183.6C158,183.7 158.8,183.9 159.7,183.9C159.8,183.9 160.1,183.6 160.4,183.5C161,183.5 161.7,183.3 162.2,183.1L164.3,182.5C166.6,181.7 168.8,180.4 170.6,178.7C170.7,178.7 170.8,178.7 170.9,178.8C171.1,178.4 171.5,178.1 171.7,177.8L171.7,178C172,177.5 172.2,177.2 172.4,177C172.6,176.8 172.9,176.5 173.2,176.1C173.3,175.9 173.3,175.7 173.4,175.4C173.4,175.4 173.5,175.2 173.6,175.1C174.6,174.3 174.9,173.1 175.3,171.8C175.8,170.5 176.1,169.2 176.3,167.9C176.4,166.8 176.7,166.4 176.9,165.6" style="fill:rgb(24,153,181);fill-rule:nonzero;"/>
                    <path d="M149.5,181.1C150.5,181.8 151.5,182.4 152.6,182.8C151.4,182.4 150.3,182 149.5,181.1M147.4,154.5C147.9,154.4 148.3,154.2 148.8,153.9C146.5,155.5 144.7,157.7 143.6,160.3C144,159.2 144.8,158.1 145.6,157.1C146.4,156.1 147.2,155.2 147.5,154.5M147,179.1L147.2,179.1L147,179.1M150.6,148L150.9,148C150.1,148.2 149.3,148.6 148.6,149.1C149.2,148.7 149.9,148.3 150.6,148M159.7,146.9C161.5,147 163.2,147.4 164.9,148C167,148.9 168.9,150.1 170.3,151.7C167.4,149.2 163.7,147.5 159.7,147M152.1,151.9C152.7,151.8 153.3,151.7 153.8,151.6C153.2,151.7 152.7,151.9 152.1,152.1L152.1,151.9M144.6,152L145,151.6C144.7,151.9 144.4,152.3 144.2,152.7C144.2,152.6 144.5,152.2 144.7,152M158.2,151.3L156.9,151.3C157.1,151.3 157.4,151.2 157.6,151.1C157.7,151.2 157.9,151.3 158.1,151.4M164.5,152.7C165,153 165.5,153.2 165.9,153.5L164.1,152.6L164.5,152.6" style="fill:rgb(24,153,181);fill-rule:nonzero;"/>
                </g>
                <g>
                    <path d="M244.3,177.2C243.7,176.4 242.9,175.9 241.8,175.5C240.8,175.1 239.8,174.9 238.8,174.9C237.8,174.9 237.7,174.9 237.1,175.1C236.5,175.2 236,175.4 235.5,175.7C235,176 234.6,176.3 234.2,176.8C233.9,177.3 233.7,177.8 233.7,178.4C233.7,179.4 234.1,180.2 234.9,180.8C235.7,181.3 236.6,181.8 237.8,182.2C239,182.6 240.2,183 241.6,183.4C243,183.8 244.2,184.3 245.4,185C246.6,185.7 247.5,186.7 248.3,187.8C249.1,189 249.5,190.6 249.5,192.6C249.5,194.6 249.1,196.2 248.4,197.6C247.7,199 246.7,200.2 245.5,201.1C244.3,202 242.9,202.7 241.3,203.2C239.7,203.7 238,203.9 236.3,203.9C234.6,203.9 232,203.6 230.1,202.9C228.2,202.2 226.4,201.1 224.8,199.6L230.2,193.7C231,194.7 231.9,195.5 233.1,196.1C234.3,196.7 235.5,196.9 236.7,196.9C237.9,196.9 237.9,196.9 238.6,196.7C239.2,196.6 239.8,196.3 240.3,196C240.8,195.7 241.2,195.3 241.5,194.9C241.8,194.5 242,193.9 242,193.3C242,192.3 241.6,191.5 240.8,190.9C240,190.3 239,189.8 237.8,189.4C236.6,189 235.3,188.6 233.9,188.1C232.5,187.7 231.2,187.1 230,186.4C228.8,185.7 227.8,184.8 227,183.6C226.2,182.4 225.8,180.9 225.8,179C225.8,177.1 226.2,175.6 226.9,174.2C227.6,172.8 228.6,171.7 229.8,170.7C231,169.8 232.4,169.1 234,168.6C235.6,168.1 237.2,167.9 238.9,167.9C240.6,167.9 242.7,168.2 244.5,168.7C246.3,169.2 247.9,170.2 249.4,171.5L244.2,177.1L244.3,177.2ZM270,187.1C269.6,186.6 269.1,186.2 268.5,185.8C267.9,185.5 267.2,185.3 266.4,185.3C264.6,185.3 263.1,185.8 262.1,186.9C261.1,188 260.6,189.4 260.6,191.2C260.6,193 261.1,194.4 262.1,195.5C263.1,196.6 264.5,197.1 266.4,197.1C268.3,197.1 267.9,196.9 268.5,196.6C269.1,196.2 269.6,195.8 270,195.3L274.8,200.3C273.7,201.5 272.3,202.3 270.8,202.7C269.3,203.1 267.8,203.4 266.4,203.4C265,203.4 262.9,203.1 261.3,202.5C259.7,201.9 258.3,201.1 257.1,200C255.9,198.9 255,197.6 254.3,196.1C253.6,194.6 253.3,192.9 253.3,191C253.3,189.1 253.6,187.4 254.3,185.9C255,184.4 255.9,183.1 257.1,182C258.3,180.9 259.7,180.1 261.3,179.5C262.9,178.9 264.6,178.6 266.4,178.6C268.2,178.6 269.2,178.8 270.8,179.3C272.3,179.8 273.7,180.6 274.8,181.7L270,186.7L270,187.1ZM277.4,179.6L284.6,179.6L284.6,183.4C285.4,182 286.3,180.9 287.4,180.1C288.5,179.4 289.8,179 291.4,179L292.7,179C293.1,179 293.5,179 293.9,179.2L293.9,185.8C293.4,185.6 292.9,185.5 292.4,185.4C291.9,185.4 291.4,185.3 290.8,185.3C289.4,185.3 288.3,185.5 287.5,185.9C286.7,186.3 286.1,186.8 285.6,187.5C285.2,188.2 284.9,189 284.8,190C284.7,191 284.6,192 284.6,193.2L284.6,203L277.4,203L277.4,179.5L277.4,179.6ZM319.6,203L312.7,203L312.7,199.8C312.4,200.3 312.1,200.7 311.7,201.2C311.3,201.7 310.8,202.1 310.2,202.4C309.6,202.8 309,203 308.2,203.3C307.5,203.5 306.7,203.6 305.8,203.6C304,203.6 302.5,203.3 301.3,202.8C300.2,202.2 299.3,201.5 298.6,200.5C298,199.5 297.6,198.3 297.3,197C297,195.7 297,194.2 297,192.6L297,179.7L304.2,179.7L304.2,193.3C304.2,194 304.4,194.7 304.6,195.3C304.8,195.9 305.2,196.4 305.7,196.8C306.2,197.2 306.9,197.4 307.8,197.4C308.7,197.4 309.5,197.2 310.1,196.9C310.7,196.6 311.1,196.1 311.4,195.5C311.7,194.9 311.9,194.3 312,193.6C312,192.9 312.1,192.2 312.1,191.4L312.1,179.7L319.3,179.7L319.3,203.2L319.6,203ZM324.8,179.6L331.7,179.6L331.7,182.8C331.9,182.4 332.2,181.9 332.7,181.4C333.1,180.9 333.6,180.5 334.2,180.2C334.8,179.8 335.4,179.6 336.2,179.3C336.9,179.1 337.7,179 338.6,179C340.2,179 341.7,179.3 343,180C344.3,180.7 345.2,181.7 345.9,183.2C346.7,181.7 347.7,180.6 348.9,180C350.1,179.4 351.6,179 353.3,179C355,179 356.2,179.3 357.3,179.8C358.4,180.3 359.2,181.1 359.9,182C360.5,182.9 361,184 361.3,185.2C361.6,186.4 361.7,187.8 361.7,189.2L361.7,203L354.5,203L354.5,189.3C354.5,188.2 354.3,187.3 353.8,186.5C353.3,185.7 352.5,185.3 351.3,185.3C350.1,185.3 349.8,185.4 349.2,185.7C348.6,186 348.2,186.4 347.8,186.8C347.4,187.2 347.2,187.8 347.1,188.5C347,189.1 346.9,189.8 346.9,190.5L346.9,202.9L339.7,202.9L339.7,189C339.7,188.4 339.6,187.8 339.4,187.3C339.2,186.8 338.9,186.3 338.5,185.9C338.1,185.5 337.4,185.3 336.6,185.3C335.8,185.3 334.9,185.5 334.3,185.8C333.7,186.1 333.3,186.6 333,187.2C332.7,187.8 332.5,188.4 332.4,189.1C332.4,189.8 332.3,190.5 332.3,191.3L332.3,203L325.1,203L325.1,179.5L324.8,179.6Z" style="fill:rgb(64,90,112);fill-rule:nonzero;"/>
                </g>
                <g>
                    <path d="M370.9,203.3C370,203.3 369.3,203 368.7,202.4C368.1,201.8 367.8,201 367.8,200.2C367.8,199.4 368.1,198.6 368.7,198C369.3,197.4 370.1,197.1 370.9,197.1C371.7,197.1 372.5,197.4 373.1,198C373.7,198.6 374,199.4 374,200.2C374,201 373.7,201.8 373.1,202.4C372.5,203 371.7,203.3 370.9,203.3ZM379.8,191.6C379.8,189.9 380.1,188.4 380.7,186.9C381.3,185.5 382.2,184.2 383.3,183.1C384.4,182 385.7,181.1 387.2,180.5C388.7,179.9 390.3,179.6 392,179.6C393.7,179.6 395.3,179.9 396.8,180.5C398.3,181.1 399.6,182 400.7,183.1C401.8,184.2 402.7,185.5 403.3,186.9C403.9,188.3 404.2,189.9 404.2,191.6C404.2,193.3 403.9,194.8 403.3,196.3C402.7,197.8 401.8,199 400.7,200.1C399.6,201.2 398.3,202 396.8,202.7C395.3,203.3 393.7,203.6 392,203.6C390.3,203.6 388.7,203.3 387.2,202.7C385.7,202.1 384.4,201.2 383.3,200.1C382.2,199 381.3,197.8 380.7,196.3C380.1,194.8 379.8,193.3 379.8,191.6ZM384.4,191.6C384.4,192.8 384.6,193.8 384.9,194.8C385.3,195.8 385.8,196.6 386.4,197.3C387,198 387.8,198.5 388.8,198.9C389.7,199.3 390.8,199.5 391.9,199.5C393,199.5 394.1,199.3 395,198.9C395.9,198.5 396.7,198 397.4,197.3C398,196.6 398.5,195.8 398.9,194.8C399.3,193.8 399.4,192.7 399.4,191.6C399.4,190.5 399.2,189.4 398.9,188.4C398.5,187.4 398,186.6 397.4,185.9C396.8,185.2 396,184.7 395,184.3C394.1,183.9 393,183.7 391.9,183.7C390.8,183.7 389.7,183.9 388.8,184.3C387.9,184.7 387.1,185.2 386.4,185.9C385.8,186.6 385.3,187.4 384.9,188.4C384.5,189.4 384.4,190.5 384.4,191.6ZM409.5,180.1L413.8,180.1L413.8,183.6C414.1,183 414.5,182.4 415,181.9C415.5,181.4 416,181 416.6,180.6C417.2,180.2 417.8,180 418.6,179.8C419.3,179.6 420,179.5 420.7,179.5C421.4,179.5 422,179.5 422.6,179.8L422.4,184.5C422,184.5 421.7,184.3 421.3,184.3L420.2,184.3C418.1,184.3 416.5,184.9 415.3,186.1C414.2,187.3 413.6,189.1 413.6,191.6L413.6,203.1L409.3,203.1L409.3,180.2L409.5,180.1Z" style="fill:rgb(64,90,112);fill-rule:nonzero;"/>
                </g>
                <path d="M449.4,202.8C449.4,204.5 449.1,206.1 448.5,207.6C447.9,209 447.1,210.3 446,211.3C444.9,212.3 443.6,213.2 442,213.7C440.5,214.3 438.8,214.6 436.9,214.6C435,214.6 432.7,214.3 430.9,213.7C429.1,213.1 427.4,212 425.7,210.5L428.6,206.8C429.7,208 430.9,208.9 432.3,209.6C433.6,210.2 435.1,210.5 436.8,210.5C438.5,210.5 439.7,210.3 440.8,209.8C441.9,209.3 442.7,208.7 443.3,208C443.9,207.3 444.4,206.4 444.6,205.5C444.9,204.6 445,203.6 445,202.6L445,199.2L444.9,199.2C444.1,200.6 442.9,201.6 441.5,202.3C440.1,203 438.6,203.3 437,203.3C435.4,203.3 433.8,203 432.3,202.4C430.9,201.8 429.6,201 428.6,199.9C427.6,198.9 426.8,197.6 426.2,196.2C425.6,194.8 425.3,193.2 425.3,191.5C425.3,189.8 425.6,188.3 426.1,186.8C426.6,185.3 427.4,184.1 428.4,183C429.4,181.9 430.6,181.1 432.1,180.4C433.5,179.8 435.1,179.5 436.9,179.5C438.7,179.5 439.9,179.8 441.4,180.5C442.9,181.2 444,182.1 444.8,183.3L444.8,180L449.1,180L449.1,202.7L449.4,202.8ZM437.5,183.6C436.3,183.6 435.3,183.8 434.4,184.2C433.5,184.6 432.7,185.1 432,185.8C431.4,186.5 430.9,187.3 430.5,188.3C430.1,189.3 430,190.4 430,191.5C430,193.8 430.7,195.7 432,197.1C433.3,198.5 435.2,199.2 437.5,199.2C439.8,199.2 441.7,198.5 443,197.1C444.4,195.7 445,193.8 445,191.5C445,189.2 444.8,189.3 444.5,188.3C444.1,187.3 443.6,186.5 443,185.8C442.4,185.1 441.6,184.6 440.6,184.2C439.7,183.8 438.6,183.6 437.5,183.6ZM457,175.3L458.7,175.3L459.9,178.5L461.1,175.3L462.8,175.3L462.8,180.1L461.5,180.1L461.5,176.9L460.3,180.1L459.5,180.1L458.3,176.9L458.3,180.1L457,180.1L457,175.3ZM453.3,176.4L451.9,176.4L451.9,175.3L456,175.3L456,176.4L454.6,176.4L454.6,180.1L453.3,180.1L453.3,176.4Z" style="fill:rgb(64,90,112);fill-rule:nonzero;"/>
            </g>
        </g>
    </g>
</svg>
