<?xml version="1.0" encoding="UTF-8" standalone="no"?>
<?xml-stylesheet type="text/css" href="/css/main.css" ?>
<!DOCTYPE svg PUBLIC "-//W3C//DTD SVG 1.1//EN" "http://www.w3.org/Graphics/SVG/1.1/DTD/svg11.dtd">
<svg width="100%" height="100%" viewBox="0 0 40 40" version="1.1" xmlns="http://www.w3.org/2000/svg" xmlns:xlink="http://www.w3.org/1999/xlink" xml:space="preserve" xmlns:serif="http://www.serif.com/" style="fill-rule:evenodd;clip-rule:evenodd;stroke-linejoin:round;stroke-miterlimit:2;">
    <symbol id="linkedIn">
        <g transform="matrix(1,0,0,1,-44.4112,0)">
            <g transform="matrix(0.8,0,0,0.888889,44.4112,0)">
                <rect x="0" y="0" width="50" height="45" style="fill:none;"/>
                <g transform="matrix(1.25,0,0,1.125,-55.514,0)" class="fg-color">
                    <path d="M82.148,4.515C82.148,3.918 81.911,3.345 81.488,2.923C81.066,2.5 80.493,2.263 79.896,2.263L48.927,2.263C48.329,2.263 47.756,2.5 47.334,2.923C46.912,3.345 46.674,3.918 46.674,4.515L46.674,35.485C46.674,36.082 46.912,36.655 47.334,37.077C47.756,37.5 48.329,37.737 48.927,37.737L79.896,37.737C80.493,37.737 81.066,37.5 81.488,37.077C81.911,36.655 82.148,36.082 82.148,35.485L82.148,4.515Z"/>
                </g>
                <g transform="matrix(1.25,0,0,1.125,-55.514,0)" class="bg-color">
                    <path d="M61.63,16.939C61.63,16.63 61.753,16.333 61.972,16.115C62.191,15.896 62.487,15.773 62.797,15.773L66.218,15.773C66.528,15.773 66.824,15.896 67.043,16.115C67.262,16.333 67.385,16.63 67.385,16.939C67.385,17.714 67.385,18.589 67.385,18.589C68.245,17.439 69.116,16.617 69.996,16.123C70.877,15.629 71.95,15.382 73.215,15.382C74.926,15.382 76.264,15.928 77.231,17.018C78.198,18.109 78.681,19.793 78.681,22.072L78.681,31.892C78.681,32.536 78.159,33.058 77.515,33.058C76.406,33.058 74.747,33.058 73.637,33.058C73.328,33.058 73.031,32.935 72.813,32.716C72.594,32.498 72.471,32.201 72.471,31.892C72.471,29.353 72.471,23.553 72.471,23.553C72.471,22.468 72.284,21.7 71.909,21.25C71.535,20.8 71.008,20.574 70.33,20.574C69.581,20.574 68.974,20.878 68.508,21.486C68.043,22.093 67.81,23.184 67.81,24.757L67.81,31.892C67.81,32.536 67.288,33.058 66.643,33.058C65.542,33.058 63.898,33.058 62.797,33.058C62.152,33.058 61.63,32.536 61.63,31.892C61.63,28.742 61.63,20.089 61.63,16.939ZM51.503,16.939C51.503,16.295 52.025,15.773 52.669,15.773C53.771,15.773 55.415,15.773 56.516,15.773C57.16,15.773 57.683,16.295 57.683,16.939C57.683,20.089 57.683,28.742 57.683,31.892C57.683,32.536 57.16,33.058 56.516,33.058C55.415,33.058 53.771,33.058 52.669,33.058C52.025,33.058 51.503,32.536 51.503,31.892C51.503,28.742 51.503,20.089 51.503,16.939ZM54.7,6.787C56.465,6.787 57.897,8.219 57.897,9.984C57.897,11.748 56.465,13.181 54.7,13.181C52.936,13.181 51.503,11.748 51.503,9.984C51.503,8.219 52.936,6.787 54.7,6.787Z" style="fill-rule:nonzero;"/>
                </g>
            </g>
        </g>
    </symbol>
    <symbol id="gitHub">
        <g transform="matrix(1,0,0,1,-45.8708,0)">
            <g id="GitHub" transform="matrix(0.8,0,0,0.888889,45.8708,0)">
                <rect x="0" y="0" width="50" height="45" style="fill:none;"/>
                <g transform="matrix(1.24019,0,0,1.11617,-56.6921,0.708506)" fill="var( --color )">
                    <circle cx="65.871" cy="19.922" r="18.133"/>
                </g>
                <g transform="matrix(0.035008,0,0,0.0315072,-1.12697,-0.616438)" fill="var( --backgroundColor )">
                    <path d="M588.016,1349.06C578.14,1360.24 562.596,1364.54 548.382,1360.01C287.126,1279.9 98.866,1035.67 98.866,747.819C98.866,390.483 388.978,100.371 746.315,100.371C1103.65,100.371 1393.76,390.483 1393.76,747.819C1393.76,1029.25 1213.82,1268.98 962.803,1358.13C948.34,1363.07 932.385,1360.77 919.905,1351.95C907.425,1343.13 899.937,1328.85 899.772,1313.57C899.554,1313.32 899.552,1313.06 899.552,1312.8C899.552,1247.71 899.552,1140.27 899.552,1076.45C899.552,1061.22 893.037,1047.51 882.642,1037.95C1064.8,1007.58 1198.93,909.104 1198.93,709.042C1198.93,618.591 1167.5,545.414 1114.19,489.985C1166.13,373.526 1101.99,299.373 1101.99,299.373C1101.99,299.373 991.157,294.706 917.95,382.243C866.25,368.835 809.747,362.074 750.582,362.074C691.269,362.074 634.63,369.857 582.773,384.61C509.613,294.622 396.777,299.373 396.777,299.373C396.777,299.373 330.168,376.39 387.679,496.695C333.949,552.98 302.238,625.008 302.238,709.042C302.238,911.553 433.916,1009.97 617.378,1039.04C607.65,1048.53 601.611,1061.79 601.611,1076.45L601.611,1123.85C581.558,1132.66 544.066,1142.1 489.536,1127.38C399.622,1103.1 411.807,1055.95 375.291,1031.33C334.642,1003.93 312.475,1000.15 293.919,1002.26C280.04,1003.84 266.666,1010.06 273.59,1021.31C282.654,1036.03 303.126,1042.94 319.775,1062.18C341.389,1087.16 347.557,1109.43 365.685,1144.79C384.395,1181.3 425.158,1219.67 492.554,1230.84C533.695,1237.65 574.006,1231.39 601.611,1224.53L601.611,1312.8C601.611,1326.68 596.482,1339.37 588.016,1349.06Z"/>
                </g>
            </g>
        </g>
    </symbol>
    <symbol id="artStation">
        <g transform="matrix(1,0,0,1,-91.3723,0)">
            <g id="ArtStation" transform="matrix(0.8,0,0,0.888889,91.3723,0)">
                <rect x="0" y="0" width="50" height="45" style="fill:none;"/>
                <g transform="matrix(1.25,0,0,1.125,-114.215,0)" fill="var( --color )">
                    <path d="M107.64,4.605L94.004,28.341L98.743,33.364L118.981,35.227L125.253,35.227L125.298,24.912L107.64,4.605Z" />
                </g>
                <g transform="matrix(1.25,0,0,1.125,-114.215,0)" fill="var( --backgroundColor )">
                    <path d="M107.64,4.648L125.258,35.227C125.258,35.227 127.317,31.784 128.194,30.198C129.072,28.611 128.835,27.734 127.89,26.046C126.945,24.359 117.832,8.698 116.854,6.74C115.875,4.783 114.052,4.648 113.512,4.614C112.972,4.58 107.64,4.648 107.64,4.648ZM94.004,28.375L115.402,28.341L119.491,35.227L100.489,35.227C98.903,35.227 97.717,35.024 96.873,33.573C96.029,32.121 94.004,28.375 94.004,28.375ZM104.703,9.744L112.601,23.279L96.873,23.312L104.703,9.744Z" />
                </g>
            </g>
        </g>
    </symbol>
    <symbol id="beHance">
        <g transform="matrix(1,0,0,1,-136.982,0)">
            <g id="BeHance" transform="matrix(0.8,0,0,0.888889,136.982,0)">
                <rect x="0" y="0" width="50" height="45" style="fill:none;"/>
                <g transform="matrix(1.25,0,0,1.125,-171.228,0)" fill="var( --color )">
                    <path d="M170.645,25.692L174.605,25.692C174.341,28.218 173.215,29.692 172.052,30.552C170.888,31.413 169.433,31.843 167.685,31.843C164.919,31.843 162.872,30.876 161.544,28.941C160.496,27.39 159.971,25.434 159.971,23.071C159.971,20.249 160.66,18.038 162.038,16.44C163.416,14.842 165.159,14.042 167.266,14.042C169.633,14.042 171.5,14.879 172.868,16.552C174.236,18.225 174.89,20.789 174.83,24.242L164.285,24.242C164.315,25.578 164.655,26.618 165.304,27.361C165.953,28.104 166.762,28.475 167.73,28.475C168.389,28.475 169.054,28.305 169.503,27.92C169.952,27.535 170.635,26.794 170.645,25.692ZM139.091,7.949L147.868,7.949C149.606,7.949 150.902,8.026 151.755,8.181C152.609,8.336 153.373,8.659 154.047,9.151C154.721,9.643 155.283,10.298 155.732,11.116C156.182,11.934 156.406,12.85 156.406,13.866C156.406,14.967 156.129,15.978 155.575,16.897C155.021,17.816 154.269,18.506 153.321,18.966C154.659,19.383 155.687,20.094 156.406,21.099C157.125,22.104 157.485,23.285 157.485,24.643C157.485,25.712 157.253,26.752 156.788,27.762C156.324,28.772 155.69,29.579 154.886,30.183C154.082,30.787 153.091,31.159 151.913,31.298C151.174,31.383 149.391,31.437 146.565,31.458L139.091,31.458L139.091,7.949ZM143.525,21.211L143.525,27.497L147.629,27.497C149.227,27.497 150.24,27.449 150.669,27.353C151.329,27.225 151.865,26.912 152.28,26.415C152.694,25.918 152.901,25.252 152.901,24.418C152.901,23.713 152.742,23.114 152.422,22.622C152.102,22.13 151.641,21.772 151.036,21.548C150.432,21.323 149.122,21.211 147.105,21.211L143.525,21.211ZM170.651,21.483C170.621,20.179 170.307,19.188 169.707,18.509C169.108,17.83 168.379,17.49 167.521,17.49C166.602,17.49 165.843,17.848 165.244,18.565C164.645,19.281 164.35,20.254 164.36,21.483L170.651,21.483ZM143.525,11.861L143.525,17.298L146.43,17.298C148.158,17.298 149.232,17.271 149.651,17.218C150.41,17.121 151.006,16.841 151.441,16.376C151.875,15.911 152.092,15.299 152.092,14.54C152.092,13.813 151.905,13.222 151.531,12.768C151.156,12.313 150.6,12.038 149.861,11.942C149.421,11.888 148.158,11.861 146.071,11.861L143.525,11.861ZM171.706,9.275L161.339,9.275L161.339,12.283L171.706,12.283L171.706,9.275Z" />
                </g>
            </g>
        </g>
    </symbol>
</svg>