<?xml version="1.0" encoding="UTF-8" standalone="no"?>
<!DOCTYPE svg PUBLIC "-//W3C//DTD SVG 1.1//EN" "http://www.w3.org/Graphics/SVG/1.1/DTD/svg11.dtd">
<svg width="100%" height="100%" viewBox="0 0 4615 1446" version="1.1" xmlns="http://www.w3.org/2000/svg" xmlns:xlink="http://www.w3.org/1999/xlink" xml:space="preserve" xmlns:serif="http://www.serif.com/" style="fill-rule:evenodd;clip-rule:evenodd;stroke-linejoin:round;stroke-miterlimit:2;">
    <g id="Artboard1" transform="matrix(1.04134,0,0,1,0,0)">
        <rect x="0" y="0" width="4431.5" height="1445.46" style="fill:none;"/>
        <g transform="matrix(4.00127,0,0,4.16667,107.534,9)">
            <circle cx="904.05" cy="168.63" r="150.07" style="fill:none;stroke:black;stroke-width:6.68px;"/>
        </g>
        <g transform="matrix(0.960305,0,0,1,109.454,0)">
            <path d="M3274.42,389.166L3391.8,389.166L3575.88,862.693L3770.63,357.153L3952.03,861.359L4149.45,389.166L4265.49,389.166L3948.03,1146.81L3765.29,642.603L3575.88,1146.81L3274.42,389.166Z"/>
        </g>
        <g transform="matrix(4.00127,0,0,4.16667,109.454,0)">
            <path d="M704.49,23.8L704.49,323.95" style="fill:none;fill-rule:nonzero;stroke:black;stroke-width:6.68px;"/>
        </g>
        <g transform="matrix(4.00127,0,0,4.16667,104.213,0)">
            <path d="M28,151.19L23.33,151.19L23.33,89.19L1.76,89.19L1.76,84.8L49.58,84.8L49.58,89.16L28,89.16L28,151.19Z" style="fill-rule:nonzero;"/>
        </g>
        <g transform="matrix(4.00127,0,0,4.16667,104.213,0)">
            <path d="M95.51,151.19L95.51,119.19C95.51,114.23 94.467,110.62 92.38,108.36C90.293,106.1 87.053,104.98 82.66,105C76.76,105 72.427,106.49 69.66,109.47C66.893,112.45 65.523,117.287 65.55,123.98L65.55,151.23L61.09,151.23L61.09,80.53L65.58,80.53L65.58,103L65.36,109.31L65.68,109.31C67.33,106.52 69.765,104.277 72.68,102.86C75.987,101.429 79.569,100.746 83.17,100.86C94.37,100.86 99.97,106.86 99.97,118.86L99.97,151.15L95.51,151.19Z" style="fill-rule:nonzero;"/>
        </g>
        <g transform="matrix(4.00127,0,0,4.16667,104.213,0)">
            <path d="M138.67,152.1C131.49,152.1 125.897,149.89 121.89,145.47C117.883,141.05 115.883,134.857 115.89,126.89C115.89,119.017 117.83,112.713 121.71,107.98C125.59,103.247 130.81,100.877 137.37,100.87C143.19,100.87 147.777,102.9 151.13,106.96C154.483,111.02 156.15,116.53 156.13,123.49L156.13,127.12L120.6,127.12C120.66,133.9 122.24,139.077 125.34,142.65C128.44,146.223 132.883,148.007 138.67,148C141.156,148.026 143.639,147.828 146.09,147.41C148.868,146.822 151.583,145.972 154.2,144.87L154.2,149C151.727,150.112 149.138,150.943 146.48,151.48C143.901,151.925 141.287,152.133 138.67,152.1ZM137.35,104.87C133.036,104.692 128.853,106.41 125.91,109.57C123.03,112.703 121.363,117.223 120.91,123.13L151.42,123.13C151.42,117.403 150.18,112.93 147.7,109.71C145.26,106.494 141.383,104.681 137.35,104.87Z" style="fill-rule:nonzero;"/>
        </g>
        <g transform="matrix(4.00127,0,0,4.16667,104.213,0)">
            <path d="M200.65,84.8L218.86,84.8C227.06,84.8 233.083,86.193 236.93,88.98C240.777,91.767 242.7,95.973 242.7,101.6C242.816,105.137 241.554,108.585 239.18,111.21C236.83,113.76 233.4,115.41 228.89,116.13L228.89,116.4C234.223,117.187 238.123,118.853 240.59,121.4C243.057,123.947 244.303,127.513 244.33,132.1C244.33,138.207 242.303,142.913 238.25,146.22C234.197,149.527 228.447,151.183 221,151.19L200.65,151.19L200.65,84.8ZM205.28,114.36L219.9,114.36C226.14,114.36 230.673,113.323 233.5,111.25C236.327,109.177 237.743,105.93 237.75,101.51C237.75,97.09 236.153,93.88 232.96,91.88C229.767,89.88 225.007,88.88 218.68,88.88L205.28,88.88L205.28,114.36ZM205.28,118.45L205.28,147.1L220.9,147.1C233.187,147.1 239.333,142.1 239.34,132.1C239.34,122.98 232.86,118.423 219.9,118.43L205.28,118.45Z" style="fill-rule:nonzero;"/>
        </g>
        <g transform="matrix(4.00127,0,0,4.16667,104.213,0)">
            <path d="M280.55,152.1C273.37,152.1 267.777,149.89 263.77,145.47C259.763,141.05 257.763,134.857 257.77,126.89C257.77,119.017 259.707,112.713 263.58,107.98C267.453,103.247 272.677,100.877 279.25,100.87C285.063,100.87 289.65,102.9 293.01,106.96C296.37,111.02 298.037,116.53 298.01,123.49L298.01,127.12L262.47,127.12C262.53,133.9 264.113,139.077 267.22,142.65C270.327,146.223 274.77,148.007 280.55,148C283.036,148.025 285.519,147.828 287.97,147.41C290.747,146.821 293.463,145.97 296.08,144.87L296.08,149C293.607,150.112 291.018,150.943 288.36,151.48C285.781,151.925 283.167,152.132 280.55,152.1ZM279.23,104.87C274.916,104.691 270.732,106.409 267.79,109.57C264.91,112.703 263.227,117.223 262.74,123.13L293.26,123.13C293.26,117.403 292.02,112.93 289.54,109.71C287.107,106.507 283.249,104.696 279.23,104.87Z" style="fill-rule:nonzero;"/>
        </g>
        <g transform="matrix(4.00127,0,0,4.16667,104.213,0)">
            <path d="M348.86,151.19L348.86,119.19C348.86,114.23 347.817,110.62 345.73,108.36C343.643,106.1 340.4,104.98 336,105C330.1,105 325.767,106.49 323,109.47C320.233,112.45 318.863,117.287 318.89,123.98L318.89,151.23L314.39,151.23L314.39,80.53L318.89,80.53L318.89,103L318.66,109.31L319,109.31C320.653,106.522 323.087,104.279 326,102.86C329.307,101.43 332.889,100.747 336.49,100.86C347.69,100.86 353.29,106.86 353.29,118.86L353.29,151.15L348.86,151.19Z" style="fill-rule:nonzero;"/>
        </g>
        <g transform="matrix(4.00127,0,0,4.16667,104.213,0)">
            <path d="M402.06,151.19L400.92,143.38L400.56,143.38C398.539,146.164 395.926,148.466 392.91,150.12C390.014,151.508 386.831,152.193 383.62,152.12C378.78,152.12 375.01,150.877 372.31,148.39C369.61,145.903 368.277,142.47 368.31,138.09C368.162,133.552 370.454,129.266 374.31,126.87C378.31,124.203 384.113,122.797 391.72,122.65L401.12,122.37L401.12,119.1C401.12,114.433 400.167,110.893 398.26,108.48C396.353,106.067 393.267,104.863 389,104.87C384.024,104.975 379.148,106.286 374.79,108.69L373.11,104.78C378.13,102.343 383.63,101.052 389.21,101C394.63,101 398.677,102.407 401.35,105.22C404.023,108.033 405.357,112.423 405.35,118.39L405.35,151.22L402.06,151.19ZM383.89,148C389.163,148 393.32,146.493 396.36,143.48C399.4,140.467 400.92,136.283 400.92,130.93L400.92,126.07L392.29,126.43C385.357,126.763 380.417,127.847 377.47,129.68C374.523,131.513 373.033,134.37 373,138.25C372.846,140.946 373.886,143.577 375.84,145.44C377.77,147.16 380.44,148 383.89,148Z" style="fill-rule:nonzero;"/>
        </g>
        <g transform="matrix(4.00127,0,0,4.16667,104.213,0)">
            <path d="M435,151.19L415.93,101.83L420.56,101.83L433.32,135.39C434.809,139.067 436.085,142.826 437.14,146.65L437.41,146.65C438.65,142.53 439.923,138.747 441.23,135.3L453.99,101.83L458.62,101.83L439.5,151.19L435,151.19Z" style="fill-rule:nonzero;"/>
        </g>
        <g transform="matrix(4.00127,0,0,4.16667,104.213,0)">
            <path d="M469,88.11C469,85.21 469.95,83.75 471.86,83.75C472.741,83.72 473.576,84.153 474.06,84.89C474.644,85.858 474.92,86.982 474.85,88.11C474.912,89.241 474.637,90.365 474.06,91.34C473.59,92.097 472.75,92.547 471.86,92.52C469.953,92.52 469,91.05 469,88.11ZM474.13,151.19L469.63,151.19L469.63,101.83L474.13,101.83L474.13,151.19Z" style="fill-rule:nonzero;"/>
        </g>
        <g transform="matrix(4.00127,0,0,4.16667,104.213,0)">
            <path d="M534.26,126.44C534.26,134.493 532.307,140.783 528.4,145.31C524.493,149.837 519.107,152.1 512.24,152.1C508.205,152.188 504.229,151.112 500.79,149C497.418,146.828 494.777,143.692 493.21,140C491.379,135.729 490.482,131.116 490.58,126.47C490.58,118.423 492.53,112.15 496.43,107.65C500.33,103.15 505.69,100.9 512.51,100.9C519.29,100.9 524.623,103.18 528.51,107.74C532.397,112.3 534.313,118.533 534.26,126.44ZM495.26,126.44C495.26,133.22 496.75,138.51 499.73,142.31C502.71,146.11 506.927,148.01 512.38,148.01C517.833,148.01 522.05,146.11 525.03,142.31C528.01,138.51 529.5,133.22 529.5,126.44C529.5,119.627 527.993,114.343 524.98,110.59C521.967,106.837 517.75,104.973 512.33,105C506.877,105 502.677,106.87 499.73,110.61C496.783,114.35 495.307,119.627 495.3,126.44L495.26,126.44Z" style="fill-rule:nonzero;"/>
        </g>
        <g transform="matrix(4.00127,0,0,4.16667,104.213,0)">
            <path d="M570.15,100.87C572.408,100.889 574.659,101.103 576.88,101.51L576.01,105.82C573.916,105.304 571.767,105.045 569.61,105.05C565.488,105.008 561.604,107.019 559.26,110.41C556.56,113.983 555.227,118.493 555.26,123.94L555.26,151.19L550.76,151.19L550.76,101.83L554.57,101.83L555.03,110.73L555.35,110.73C557.35,107.097 559.513,104.547 561.84,103.08C564.339,101.559 567.225,100.791 570.15,100.87Z" style="fill-rule:nonzero;"/>
        </g>
        <g transform="matrix(4.00127,0,0,4.16667,104.213,0)">
            <path d="M619.67,151.19L618.54,143.38L618.17,143.38C616.149,146.164 613.536,148.466 610.52,150.12C607.627,151.508 604.447,152.193 601.24,152.12C596.387,152.12 592.617,150.877 589.93,148.39C587.243,145.903 585.91,142.47 585.93,138.09C585.78,133.552 588.072,129.265 591.93,126.87C595.93,124.203 601.737,122.797 609.35,122.65L618.75,122.37L618.75,119.1C618.75,114.433 617.797,110.893 615.89,108.48C613.983,106.067 610.91,104.87 606.67,104.89C601.694,104.994 596.817,106.305 592.46,108.71L590.78,104.8C595.779,102.362 601.258,101.064 606.82,101C612.24,101 616.29,102.407 618.97,105.22C621.65,108.033 622.983,112.423 622.97,118.39L622.97,151.22L619.67,151.19ZM601.51,148C606.777,148 610.93,146.493 613.97,143.48C617.01,140.467 618.533,136.283 618.54,130.93L618.54,126.07L609.91,126.43C602.983,126.763 598.04,127.847 595.08,129.68C592.12,131.513 590.647,134.367 590.66,138.24C590.502,140.934 591.538,143.566 593.49,145.43C595.39,147.16 598.06,148 601.51,148Z" style="fill-rule:nonzero;"/>
        </g>
        <g transform="matrix(4.00127,0,0,4.16667,104.213,0)">
            <rect x="641.76" y="80.53" width="4.5" height="70.66" style="fill-rule:nonzero;"/>
        </g>
        <g transform="matrix(4.00127,0,0,4.16667,104.213,0)">
            <path d="M47.36,245.67C47.547,250.78 45.273,255.682 41.25,258.84C37.177,262.08 31.76,263.7 25,263.7C16.887,263.7 10.667,262.807 6.34,261.02L6.34,256.39C11.12,258.39 17.22,259.39 24.64,259.39C30.093,259.39 34.427,258.14 37.64,255.64C40.742,253.342 42.535,249.669 42.44,245.81C42.524,243.62 41.972,241.452 40.85,239.57C39.51,237.67 37.734,236.12 35.67,235.05C32.295,233.27 28.767,231.794 25.13,230.64C18.35,228.307 13.683,225.787 11.13,223.08C8.577,220.373 7.257,216.777 7.17,212.29C7.065,207.549 9.234,203.032 13,200.15C16.893,197.01 21.893,195.443 28,195.45C34.042,195.412 40.027,196.62 45.58,199L43.9,203C38.915,200.812 33.543,199.64 28.1,199.55C23.2,199.55 19.297,200.687 16.39,202.96C13.515,205.142 11.876,208.593 12,212.2C11.921,214.282 12.383,216.349 13.34,218.2C14.421,219.961 15.927,221.422 17.72,222.45C21.06,224.291 24.565,225.814 28.19,227C32.266,228.278 36.181,230.02 39.86,232.19C42.202,233.602 44.16,235.57 45.56,237.92C46.822,240.303 47.443,242.974 47.36,245.67Z" style="fill-rule:nonzero;"/>
        </g>
        <g transform="matrix(4.00127,0,0,4.16667,104.213,0)">
            <path d="M80,263.7C72.947,263.7 67.42,261.473 63.42,257.02C59.42,252.567 57.42,246.36 57.42,238.4C57.42,230.227 59.493,223.863 63.64,219.31C67.787,214.757 73.453,212.477 80.64,212.47C84.828,212.458 88.984,213.214 92.9,214.7L91.68,218.7C88.105,217.408 84.349,216.689 80.55,216.57C74.49,216.57 69.903,218.44 66.79,222.18C63.677,225.92 62.117,231.3 62.11,238.32C62.11,244.987 63.67,250.203 66.79,253.97C69.91,257.737 74.27,259.62 79.87,259.62C84.153,259.661 88.4,258.841 92.36,257.21L92.36,261.39C89.213,262.937 85.093,263.707 80,263.7Z" style="fill-rule:nonzero;"/>
        </g>
        <g transform="matrix(4.00127,0,0,4.16667,104.213,0)">
            <path d="M103.8,199.71C103.8,196.81 104.8,195.35 106.66,195.35C107.541,195.32 108.376,195.753 108.86,196.49C109.447,197.457 109.727,198.58 109.66,199.71C109.719,200.842 109.441,201.967 108.86,202.94C108.39,203.697 107.55,204.147 106.66,204.12C104.753,204.12 103.8,202.65 103.8,199.71ZM108.93,262.79L104.44,262.79L104.44,213.43L108.93,213.43L108.93,262.79Z" style="fill-rule:nonzero;"/>
        </g>
        <g transform="matrix(4.00127,0,0,4.16667,104.213,0)">
            <path d="M145.4,263.7C138.22,263.7 132.627,261.49 128.62,257.07C124.613,252.65 122.613,246.457 122.62,238.49C122.62,230.617 124.557,224.313 128.43,219.58C132.303,214.847 137.527,212.477 144.1,212.47C149.907,212.47 154.493,214.5 157.86,218.56C161.227,222.62 162.893,228.13 162.86,235.09L162.86,238.72L127.32,238.72C127.38,245.5 128.963,250.677 132.07,254.25C135.177,257.823 139.62,259.61 145.4,259.61C147.886,259.635 150.369,259.438 152.82,259.02C155.597,258.431 158.313,257.58 160.93,256.48L160.93,260.56C158.457,261.672 155.868,262.503 153.21,263.04C150.632,263.498 148.018,263.719 145.4,263.7ZM144.08,216.47C139.766,216.291 135.582,218.009 132.64,221.17C129.76,224.303 128.093,228.823 127.64,234.73L158.16,234.73C158.16,229.003 156.92,224.53 154.44,221.31C151.997,218.092 148.116,216.279 144.08,216.47Z" style="fill-rule:nonzero;"/>
        </g>
        <g transform="matrix(4.00127,0,0,4.16667,104.213,0)">
            <path d="M210.92,262.79L210.92,230.79C210.92,225.83 209.877,222.22 207.79,219.96C205.703,217.7 202.463,216.573 198.07,216.58C192.17,216.58 187.837,218.07 185.07,221.05C182.303,224.03 180.947,228.86 181,235.54L181,262.79L176.5,262.79L176.5,213.43L180.32,213.43L181.18,220.19L181.45,220.19C184.657,215.05 190.363,212.477 198.57,212.47C209.77,212.47 215.37,218.47 215.37,230.47L215.37,262.76L210.92,262.79Z" style="fill-rule:nonzero;"/>
        </g>
        <g transform="matrix(4.00127,0,0,4.16667,104.213,0)">
            <path d="M251.07,263.7C244.01,263.7 238.483,261.473 234.49,257.02C230.497,252.567 228.497,246.36 228.49,238.4C228.49,230.227 230.563,223.863 234.71,219.31C238.857,214.757 244.523,212.477 251.71,212.47C255.908,212.456 260.074,213.212 264,214.7L262.77,218.7C259.199,217.409 255.446,216.69 251.65,216.57C245.59,216.57 241.003,218.44 237.89,222.18C234.777,225.92 233.217,231.3 233.21,238.32C233.21,244.987 234.77,250.203 237.89,253.97C241.01,257.737 245.38,259.617 251,259.61C255.283,259.651 259.53,258.831 263.49,257.2L263.49,261.38C260.323,262.933 256.183,263.707 251.07,263.7Z" style="fill-rule:nonzero;"/>
        </g>
        <g transform="matrix(4.00127,0,0,4.16667,104.213,0)">
            <path d="M295.48,263.7C288.3,263.7 282.707,261.49 278.7,257.07C274.693,252.65 272.693,246.457 272.7,238.49C272.7,230.617 274.637,224.313 278.51,219.58C282.383,214.847 287.607,212.477 294.18,212.47C299.987,212.47 304.573,214.5 307.94,218.56C311.307,222.62 312.973,228.13 312.94,235.09L312.94,238.72L277.4,238.72C277.46,245.5 279.043,250.677 282.15,254.25C285.257,257.823 289.7,259.61 295.48,259.61C297.966,259.635 300.449,259.438 302.9,259.02C305.678,258.432 308.393,257.582 311.01,256.48L311.01,260.56C308.537,261.672 305.948,262.503 303.29,263.04C300.712,263.499 298.098,263.719 295.48,263.7ZM294.16,216.47C289.846,216.291 285.662,218.009 282.72,221.17C279.84,224.303 278.173,228.823 277.72,234.73L308.23,234.73C308.23,229.003 306.99,224.53 304.51,221.31C302.07,218.094 298.193,216.281 294.16,216.47Z" style="fill-rule:nonzero;"/>
        </g>
        <g transform="matrix(4.00127,0,0,4.16667,104.213,0)">
            <path d="M388.16,262.79L351.88,262.79L351.88,196.4L388.16,196.4L388.16,200.67L356.51,200.67L356.51,225.78L386.39,225.78L386.39,230.05L356.51,230.05L356.51,258.52L388.16,258.52L388.16,262.79Z" style="fill-rule:nonzero;"/>
        </g>
        <g transform="matrix(4.00127,0,0,4.16667,104.213,0)">
            <path d="M414.18,237.4L396.97,213.4L402.14,213.4L416.86,234.2L431.43,213.4L436.38,213.4L419.45,237.4L437.61,262.79L432.39,262.79L416.86,240.79L401.24,262.79L396.29,262.79L414.18,237.4Z" style="fill-rule:nonzero;"/>
        </g>
        <g transform="matrix(4.00127,0,0,4.16667,104.213,0)">
            <path d="M469.49,263.7C461.89,263.7 456.35,260.853 452.87,255.16L452.55,255.16L452.69,258.97C452.81,261.21 452.87,263.67 452.87,266.33L452.87,285.13L448.37,285.13L448.37,213.43L452.19,213.43L453.05,220.43L453.32,220.43C456.707,215.097 462.127,212.43 469.58,212.43C476.247,212.43 481.323,214.62 484.81,219C488.297,223.38 490.047,229.743 490.06,238.09C490.06,246.203 488.22,252.493 484.54,256.96C480.86,261.427 475.843,263.673 469.49,263.7ZM469.4,259.7C474.453,259.7 478.367,257.823 481.14,254.07C483.913,250.317 485.297,245.063 485.29,238.31C485.29,223.81 480.053,216.56 469.58,216.56C463.833,216.56 459.61,218.143 456.91,221.31C454.21,224.477 452.877,229.63 452.91,236.77L452.91,238.22C452.91,245.94 454.203,251.45 456.79,254.75C459.377,258.05 463.58,259.7 469.4,259.7Z" style="fill-rule:nonzero;"/>
        </g>
        <g transform="matrix(4.00127,0,0,4.16667,104.213,0)">
            <path d="M523.66,263.7C516.493,263.7 510.9,261.49 506.88,257.07C502.86,252.65 500.86,246.457 500.88,238.49C500.88,230.617 502.817,224.313 506.69,219.58C510.563,214.847 515.787,212.477 522.36,212.47C528.167,212.47 532.75,214.5 536.11,218.56C539.47,222.62 541.137,228.13 541.11,235.09L541.11,238.72L505.59,238.72C505.65,245.5 507.23,250.677 510.33,254.25C513.43,257.823 517.873,259.61 523.66,259.61C526.149,259.635 528.636,259.438 531.09,259.02C533.864,258.43 536.576,257.58 539.19,256.48L539.19,260.56C536.718,261.673 534.128,262.505 531.47,263.04C528.892,263.499 526.278,263.72 523.66,263.7ZM522.35,216.47C518.033,216.29 513.846,218.009 510.9,221.17C508.027,224.303 506.36,228.823 505.9,234.73L536.42,234.73C536.42,229.003 535.177,224.53 532.69,221.31C530.253,218.095 526.38,216.282 522.35,216.47Z" style="fill-rule:nonzero;"/>
        </g>
        <g transform="matrix(4.00127,0,0,4.16667,104.213,0)">
            <path d="M574.2,212.47C576.454,212.489 578.703,212.703 580.92,213.11L580.06,217.42C577.966,216.904 575.817,216.645 573.66,216.65C569.54,216.606 565.657,218.613 563.31,222C560.643,225.573 559.31,230.083 559.31,235.53L559.31,262.78L554.82,262.78L554.82,213.43L558.63,213.43L559.09,222.33L559.4,222.33C561.4,218.69 563.6,216.15 565.9,214.68C568.396,213.16 571.279,212.392 574.2,212.47Z" style="fill-rule:nonzero;"/>
        </g>
        <g transform="matrix(4.00127,0,0,4.16667,104.213,0)">
            <path d="M604,259.7C606.503,259.737 609.002,259.492 611.45,258.97L611.45,262.61C609.011,263.372 606.465,263.74 603.91,263.7C599.55,263.7 596.333,262.533 594.26,260.2C592.187,257.867 591.15,254.2 591.15,249.2L591.15,217.33L583.84,217.33L583.84,214.7L591.15,212.7L593.42,201.52L595.74,201.52L595.74,213.52L610.22,213.52L610.22,217.42L595.73,217.42L595.73,248.67C595.73,252.45 596.39,255.25 597.73,257.07C599.07,258.89 601.15,259.7 604,259.7Z" style="fill-rule:nonzero;"/>
        </g>
        <g transform="matrix(4.00127,0,0,4.16667,104.213,0)">
            <path d="M652.72,249.94C652.919,253.967 651.026,257.823 647.72,260.13C644.387,262.51 639.617,263.7 633.41,263.7C626.81,263.7 621.573,262.683 617.7,260.65L617.7,255.8C622.571,258.257 627.954,259.532 633.41,259.52C638.29,259.52 641.993,258.71 644.52,257.09C646.86,255.782 648.314,253.301 648.31,250.62C648.331,248.181 647.223,245.864 645.31,244.35C643.31,242.66 639.99,240.99 635.38,239.35C631.772,238.162 628.292,236.617 624.99,234.74C623.18,233.639 621.636,232.149 620.47,230.38C619.408,228.589 618.881,226.531 618.95,224.45C618.865,220.923 620.631,217.596 623.6,215.69C626.7,213.543 631.033,212.467 636.6,212.46C641.806,212.435 646.965,213.455 651.77,215.46L650,219.56C645.743,217.688 641.159,216.668 636.51,216.56C632.51,216.56 629.29,217.23 626.93,218.56C624.779,219.563 623.396,221.727 623.39,224.1C623.297,226.471 624.315,228.754 626.14,230.27C627.973,231.817 631.55,233.543 636.87,235.45C640.247,236.567 643.504,238.021 646.59,239.79C648.422,240.889 649.984,242.386 651.16,244.17C652.214,245.907 652.755,247.908 652.72,249.94Z" style="fill-rule:nonzero;"/>
        </g>
    </g>
</svg>
